<?xml version="1.0" encoding="utf-8"?>
<!-- Generator: Adobe Illustrator 27.9.0, SVG Export Plug-In . SVG Version: 6.00 Build 0)  -->
<svg version="1.1" id="Balance" xmlns="http://www.w3.org/2000/svg" xmlns:xlink="http://www.w3.org/1999/xlink" x="0px" y="0px"
	 viewBox="0 0 32 32" style="enable-background:new 0 0 32 32;" xml:space="preserve">
<style type="text/css">
	.st0{fill:url(#SVGID_1_);}
</style>
<linearGradient id="SVGID_1_" gradientUnits="userSpaceOnUse" x1="1.3403" y1="16.2243" x2="30.2855" y2="16.2243">
	<stop  offset="0" style="stop-color:#4FBCDD"/>
	<stop  offset="1" style="stop-color:#89CFE7"/>
</linearGradient>
<path class="st0" d="M15.8,4.8c-5.3,0-9.7,4-9.7,9.1c0,1.9,0.7,3.6,1.9,5H2.7c-0.7,0-1.4,0.6-1.4,1.3c0,0.7,0.6,1.4,1.3,1.4
	c0,0,0,0,0,0h8.6c0.6,0.1,1.1-0.2,1.3-0.7c0,0,0-0.1,0.1-0.1c0,0,0,0,0,0c0,0,0-0.1,0-0.1c0,0,0,0,0,0c0,0,0,0,0-0.1
	c0,0,0-0.1,0-0.1c0,0,0,0,0,0c0,0,0-0.1,0-0.1c0-0.5-0.3-1-0.7-1.2c0,0,0,0,0,0c-2-1.2-3.3-3-3.3-5.2c0-3.5,3.1-6.4,7.1-6.4
	s7.1,2.9,7.1,6.4c0,2-1.5,4-3.4,5.2c-0.5,0.3-0.7,0.8-0.7,1.3c0,0,0,0.1,0,0.1c0,0,0,0.1,0,0.1c0,0,0,0.1,0,0.1c0,0,0,0,0,0
	c0,0,0,0.1,0,0.1c0,0,0,0,0,0c0,0,0,0.1,0.1,0.1c0.3,0.5,0.8,0.7,1.3,0.7h8.6c0.7,0,1.4-0.6,1.4-1.3c0-0.7-0.6-1.4-1.3-1.4
	c0,0,0,0,0,0h-5.3c1.1-1.4,2-3.1,2-5C25.6,8.8,21.1,4.8,15.8,4.8z M2.7,25c-0.7,0-1.4,0.6-1.4,1.3c0,0.7,0.6,1.4,1.3,1.4
	c0,0,0,0,0,0h26.2c0.7,0,1.4-0.6,1.4-1.3c0-0.7-0.6-1.4-1.3-1.4c0,0,0,0,0,0H2.7z"/>
</svg>
