<?xml version="1.0" encoding="utf-8"?>
<!-- Generator: Adobe Illustrator 27.1.1, SVG Export Plug-In . SVG Version: 6.00 Build 0)  -->
<svg version="1.1" id="Univers" xmlns="http://www.w3.org/2000/svg" xmlns:xlink="http://www.w3.org/1999/xlink" x="0px" y="0px"
	 viewBox="0 0 272 134" style="enable-background:new 0 0 272 134;" xml:space="preserve">
<style type="text/css">
	.st0{fill:#CFE4BA;}
	.st1{fill:url(#SVGID_1_);}
	.st2{fill:url(#SVGID_00000101090462189900661940000009326104175617824150_);}
	.st3{fill:url(#SVGID_00000036935436454509557060000010915449442738039179_);}
	.st4{fill:url(#SVGID_00000109720879388267786560000003811224819877708181_);}
	.st5{fill:url(#SVGID_00000129196821117214749590000011136118478258709161_);}
	.st6{fill:url(#SVGID_00000172432368659696152900000015265188480050759326_);}
	.st7{fill:url(#SVGID_00000026842833039865226260000007400249139898444947_);}
	.st8{fill:url(#SVGID_00000003815094868336896740000005719360588076474017_);}
	.st9{fill:url(#SVGID_00000079447254150229585430000008830882637939778731_);}
	.st10{fill:url(#SVGID_00000052067615850657393910000010496352788543736449_);}
	.st11{fill:url(#SVGID_00000116206071827924751440000016629864116504152979_);}
	.st12{fill:url(#SVGID_00000140008629187010007870000007104224768128536501_);}
	.st13{fill:url(#SVGID_00000182520207479516730140000017765013526177306256_);}
	.st14{fill:url(#SVGID_00000157998458109035892550000016553097056417897142_);}
</style>
<g>
	<g>
		<g>
			<g>
				<circle class="st0" cx="86.9" cy="9.12" r="0.93"/>
				<circle class="st0" cx="83.28" cy="58.5" r="0.93"/>
				<circle class="st0" cx="60.81" cy="32.55" r="0.93"/>
				<circle class="st0" cx="159.48" cy="20.85" r="0.93"/>
				<circle class="st0" cx="244.76" cy="60.52" r="0.56"/>
				<circle class="st0" cx="229.59" cy="31.81" r="0.56"/>
				<circle class="st0" cx="186.86" cy="64.63" r="0.56"/>
				<circle class="st0" cx="127.97" cy="6.18" r="0.56"/>
				<circle class="st0" cx="199.4" cy="35.26" r="0.56"/>
				<circle class="st0" cx="191.4" cy="94.26" r="0.56"/>
				<circle class="st0" cx="90.98" cy="37.27" r="0.56"/>
				<circle class="st0" cx="41.15" cy="34.77" r="0.56"/>
				<circle class="st0" cx="78.89" cy="92.04" r="0.56"/>
				<circle class="st0" cx="118.89" cy="120.04" r="0.56"/>
				<circle class="st0" cx="81.5" cy="120.42" r="0.56"/>
				<circle class="st0" cx="225.32" cy="85.21" r="0.56"/>
				<circle class="st0" cx="221.35" cy="116.23" r="0.56"/>
				<circle class="st0" cx="125.23" cy="13.99" r="0.93"/>
				<circle class="st0" cx="131.11" cy="127.45" r="0.93"/>
				<circle class="st0" cx="265.63" cy="73.53" r="0.56"/>
				<circle class="st0" cx="51.63" cy="65.53" r="0.56"/>
				<circle class="st0" cx="257.99" cy="86.71" r="0.93"/>
				<circle class="st0" cx="6.37" cy="52.65" r="0.56"/>
				<circle class="st0" cx="24.49" cy="54.24" r="0.93"/>
				<circle class="st0" cx="196.05" cy="8.46" r="0.93"/>
				<circle class="st0" cx="206.86" cy="59.23" r="0.93"/>
				<circle class="st0" cx="208.58" cy="112.46" r="0.93"/>
				<circle class="st0" cx="62.6" cy="93.15" r="0.93"/>
				<circle class="st0" cx="168.14" cy="118.07" r="0.93"/>
				<circle class="st0" cx="27.95" cy="84.57" r="0.93"/>
			</g>
			<linearGradient id="SVGID_1_" gradientUnits="userSpaceOnUse" x1="179.5145" y1="19.8965" x2="185.8429" y2="19.8965">
				<stop  offset="0" style="stop-color:#84CAE5"/>
				<stop  offset="1" style="stop-color:#91D6EB"/>
			</linearGradient>
			<path class="st1" d="M185.84,19.9L185.84,19.9c-1.75,0-3.16,1.42-3.16,3.16v0v0c0-1.75-1.42-3.16-3.16-3.16l0,0l0,0
				c1.75,0,3.16-1.42,3.16-3.16v0v0C182.68,18.48,184.1,19.9,185.84,19.9L185.84,19.9z"/>
			
				<linearGradient id="SVGID_00000028319285916137221480000003787106184869746864_" gradientUnits="userSpaceOnUse" x1="202.5145" y1="91.8965" x2="208.8429" y2="91.8965">
				<stop  offset="0" style="stop-color:#84CAE5"/>
				<stop  offset="1" style="stop-color:#91D6EB"/>
			</linearGradient>
			<path style="fill:url(#SVGID_00000028319285916137221480000003787106184869746864_);" d="M208.84,91.9L208.84,91.9
				c-1.75,0-3.16,1.42-3.16,3.16l0,0l0,0c0-1.75-1.42-3.16-3.16-3.16l0,0l0,0c1.75,0,3.16-1.42,3.16-3.16l0,0l0,0
				C205.68,90.48,207.1,91.9,208.84,91.9L208.84,91.9z"/>
			
				<linearGradient id="SVGID_00000084487901352686674420000015919970206293144721_" gradientUnits="userSpaceOnUse" x1="77.5145" y1="25.8965" x2="83.8429" y2="25.8965">
				<stop  offset="0" style="stop-color:#84CAE5"/>
				<stop  offset="1" style="stop-color:#91D6EB"/>
			</linearGradient>
			<path style="fill:url(#SVGID_00000084487901352686674420000015919970206293144721_);" d="M83.84,25.9L83.84,25.9
				c-1.75,0-3.16,1.42-3.16,3.16v0v0c0-1.75-1.42-3.16-3.16-3.16l0,0l0,0c1.75,0,3.16-1.42,3.16-3.16v0v0
				C80.68,24.48,82.1,25.9,83.84,25.9L83.84,25.9z"/>
			
				<linearGradient id="SVGID_00000120531003222639886650000004007688929232258694_" gradientUnits="userSpaceOnUse" x1="38.5145" y1="56.8965" x2="44.8429" y2="56.8965">
				<stop  offset="0" style="stop-color:#84CAE5"/>
				<stop  offset="1" style="stop-color:#91D6EB"/>
			</linearGradient>
			<path style="fill:url(#SVGID_00000120531003222639886650000004007688929232258694_);" d="M44.84,56.9L44.84,56.9
				c-1.75,0-3.16,1.42-3.16,3.16v0v0c0-1.75-1.42-3.16-3.16-3.16l0,0l0,0c1.75,0,3.16-1.42,3.16-3.16v0v0
				C41.68,55.48,43.1,56.9,44.84,56.9L44.84,56.9z"/>
			
				<linearGradient id="SVGID_00000080172276216989928210000014983458562564443326_" gradientUnits="userSpaceOnUse" x1="223.9041" y1="47.2862" x2="233.4533" y2="47.2862">
				<stop  offset="0" style="stop-color:#84CAE5"/>
				<stop  offset="1" style="stop-color:#91D6EB"/>
			</linearGradient>
			<path style="fill:url(#SVGID_00000080172276216989928210000014983458562564443326_);" d="M233.45,47.29L233.45,47.29
				c-2.64,0-4.77,2.14-4.77,4.77v0v0c0-2.64-2.14-4.77-4.77-4.77l0,0l0,0c2.64,0,4.77-2.14,4.77-4.77v0v0
				C228.68,45.15,230.82,47.29,233.45,47.29L233.45,47.29z"/>
			
				<linearGradient id="SVGID_00000134233867275978681390000000725917714722090888_" gradientUnits="userSpaceOnUse" x1="91.9041" y1="105.2862" x2="101.4533" y2="105.2862">
				<stop  offset="0" style="stop-color:#84CAE5"/>
				<stop  offset="1" style="stop-color:#91D6EB"/>
			</linearGradient>
			<path style="fill:url(#SVGID_00000134233867275978681390000000725917714722090888_);" d="M101.45,105.29L101.45,105.29
				c-2.64,0-4.77,2.14-4.77,4.77l0,0l0,0c0-2.64-2.14-4.77-4.77-4.77l0,0l0,0c2.64,0,4.77-2.14,4.77-4.77v0v0
				C96.68,103.15,98.82,105.29,101.45,105.29L101.45,105.29z"/>
		</g>
		
			<linearGradient id="SVGID_00000026848770014517047300000004092273364541765276_" gradientUnits="userSpaceOnUse" x1="-244.7403" y1="-332.9302" x2="-229.3907" y2="-332.9302" gradientTransform="matrix(0.7071 -0.7071 0.7071 0.7071 552.0438 86.7266)">
			<stop  offset="0" style="stop-color:#FFAEFF"/>
			<stop  offset="0.0778" style="stop-color:#E3A4EC;stop-opacity:0.9222"/>
			<stop  offset="0.2672" style="stop-color:#A58CC3;stop-opacity:0.7328"/>
			<stop  offset="0.4489" style="stop-color:#7179A0;stop-opacity:0.5511"/>
			<stop  offset="0.6177" style="stop-color:#496A85;stop-opacity:0.3823"/>
			<stop  offset="0.7709" style="stop-color:#2C5F71;stop-opacity:0.2291"/>
			<stop  offset="0.9034" style="stop-color:#1A5865;stop-opacity:0.0966"/>
			<stop  offset="1" style="stop-color:#145661;stop-opacity:0"/>
		</linearGradient>
		<path style="fill:url(#SVGID_00000026848770014517047300000004092273364541765276_);" d="M143.57,24.02
			c-0.09,0.09-0.09,0.25,0,0.34c0.09,0.09,0.25,0.09,0.34,0l10.68-10.68l-0.34-0.34L143.57,24.02z"/>
		
			<linearGradient id="SVGID_00000086672486444196824560000001200751471917020049_" gradientUnits="userSpaceOnUse" x1="-219.395" y1="-223.5332" x2="-204.0453" y2="-223.5332" gradientTransform="matrix(0.7071 -0.7071 0.7071 0.7071 552.0438 86.7266)">
			<stop  offset="0" style="stop-color:#FFAEFF"/>
			<stop  offset="0.0778" style="stop-color:#E3A4EC;stop-opacity:0.9222"/>
			<stop  offset="0.2672" style="stop-color:#A58CC3;stop-opacity:0.7328"/>
			<stop  offset="0.4489" style="stop-color:#7179A0;stop-opacity:0.5511"/>
			<stop  offset="0.6177" style="stop-color:#496A85;stop-opacity:0.3823"/>
			<stop  offset="0.7709" style="stop-color:#2C5F71;stop-opacity:0.2291"/>
			<stop  offset="0.9034" style="stop-color:#1A5865;stop-opacity:0.0966"/>
			<stop  offset="1" style="stop-color:#145661;stop-opacity:0"/>
		</linearGradient>
		<path style="fill:url(#SVGID_00000086672486444196824560000001200751471917020049_);" d="M238.85,83.46
			c-0.09,0.09-0.09,0.25,0,0.34c0.09,0.09,0.25,0.09,0.34,0l10.68-10.68l-0.34-0.34L238.85,83.46z"/>
		
			<linearGradient id="SVGID_00000129885485207094851170000007673688657875204784_" gradientUnits="userSpaceOnUse" x1="-341.7244" y1="-293.5368" x2="-326.3748" y2="-293.5368" gradientTransform="matrix(0.7071 -0.7071 0.7071 0.7071 552.0438 86.7266)">
			<stop  offset="0" style="stop-color:#FFAEFF"/>
			<stop  offset="0.0778" style="stop-color:#E3A4EC;stop-opacity:0.9222"/>
			<stop  offset="0.2672" style="stop-color:#A58CC3;stop-opacity:0.7328"/>
			<stop  offset="0.4489" style="stop-color:#7179A0;stop-opacity:0.5511"/>
			<stop  offset="0.6177" style="stop-color:#496A85;stop-opacity:0.3823"/>
			<stop  offset="0.7709" style="stop-color:#2C5F71;stop-opacity:0.2291"/>
			<stop  offset="0.9034" style="stop-color:#1A5865;stop-opacity:0.0966"/>
			<stop  offset="1" style="stop-color:#145661;stop-opacity:0"/>
		</linearGradient>
		<path style="fill:url(#SVGID_00000129885485207094851170000007673688657875204784_);" d="M102.85,120.46
			c-0.09,0.09-0.09,0.25,0,0.34c0.09,0.09,0.25,0.09,0.34,0l10.68-10.68l-0.34-0.34L102.85,120.46z"/>
		
			<linearGradient id="SVGID_00000070797262777123357590000018014340058029572765_" gradientUnits="userSpaceOnUse" x1="-375.6656" y1="-340.2058" x2="-360.3159" y2="-340.2058" gradientTransform="matrix(0.7071 -0.7071 0.7071 0.7071 552.0438 86.7266)">
			<stop  offset="0" style="stop-color:#FFAEFF"/>
			<stop  offset="0.0778" style="stop-color:#E3A4EC;stop-opacity:0.9222"/>
			<stop  offset="0.2672" style="stop-color:#A58CC3;stop-opacity:0.7328"/>
			<stop  offset="0.4489" style="stop-color:#7179A0;stop-opacity:0.5511"/>
			<stop  offset="0.6177" style="stop-color:#496A85;stop-opacity:0.3823"/>
			<stop  offset="0.7709" style="stop-color:#2C5F71;stop-opacity:0.2291"/>
			<stop  offset="0.9034" style="stop-color:#1A5865;stop-opacity:0.0966"/>
			<stop  offset="1" style="stop-color:#145661;stop-opacity:0"/>
		</linearGradient>
		<path style="fill:url(#SVGID_00000070797262777123357590000018014340058029572765_);" d="M45.85,111.46
			c-0.09,0.09-0.09,0.25,0,0.34s0.25,0.09,0.34,0l10.68-10.68l-0.34-0.34L45.85,111.46z"/>
		
			<linearGradient id="SVGID_00000061441046957372112570000003203694514878762149_" gradientUnits="userSpaceOnUse" x1="-203.7725" y1="-288.4878" x2="-188.4228" y2="-288.4878" gradientTransform="matrix(0.7071 -0.7071 0.7071 0.7071 552.0438 86.7266)">
			<stop  offset="0" style="stop-color:#FFAEFF"/>
			<stop  offset="0.0778" style="stop-color:#E3A4EC;stop-opacity:0.9222"/>
			<stop  offset="0.2672" style="stop-color:#A58CC3;stop-opacity:0.7328"/>
			<stop  offset="0.4489" style="stop-color:#7179A0;stop-opacity:0.5511"/>
			<stop  offset="0.6177" style="stop-color:#496A85;stop-opacity:0.3823"/>
			<stop  offset="0.7709" style="stop-color:#2C5F71;stop-opacity:0.2291"/>
			<stop  offset="0.9034" style="stop-color:#1A5865;stop-opacity:0.0966"/>
			<stop  offset="1" style="stop-color:#145661;stop-opacity:0"/>
		</linearGradient>
		<path style="fill:url(#SVGID_00000061441046957372112570000003203694514878762149_);" d="M203.96,26.48
			c-0.09,0.09-0.09,0.25,0,0.34c0.09,0.09,0.25,0.09,0.34,0l10.68-10.68l-0.34-0.34L203.96,26.48z"/>
		
			<linearGradient id="SVGID_00000005267386121562014480000010562207373562645690_" gradientUnits="userSpaceOnUse" x1="-371.3568" y1="-383.9472" x2="-356.0071" y2="-383.9472" gradientTransform="matrix(0.7071 -0.7071 0.7071 0.7071 552.0438 86.7266)">
			<stop  offset="0" style="stop-color:#FFAEFF"/>
			<stop  offset="0.0778" style="stop-color:#E3A4EC;stop-opacity:0.9222"/>
			<stop  offset="0.2672" style="stop-color:#A58CC3;stop-opacity:0.7328"/>
			<stop  offset="0.4489" style="stop-color:#7179A0;stop-opacity:0.5511"/>
			<stop  offset="0.6177" style="stop-color:#496A85;stop-opacity:0.3823"/>
			<stop  offset="0.7709" style="stop-color:#2C5F71;stop-opacity:0.2291"/>
			<stop  offset="0.9034" style="stop-color:#1A5865;stop-opacity:0.0966"/>
			<stop  offset="1" style="stop-color:#145661;stop-opacity:0"/>
		</linearGradient>
		<path style="fill:url(#SVGID_00000005267386121562014480000010562207373562645690_);" d="M17.96,77.48
			c-0.09,0.09-0.09,0.25,0,0.34c0.09,0.09,0.25,0.09,0.34,0l10.68-10.68l-0.34-0.34L17.96,77.48z"/>
		
			<linearGradient id="SVGID_00000164481239803517347630000004723945541833592466_" gradientUnits="userSpaceOnUse" x1="-118.4274" y1="-259.1922" x2="-103.0778" y2="-259.1922" gradientTransform="matrix(2.1645 -2.1645 0.7071 0.7071 606.0187 32.7517)">
			<stop  offset="0" style="stop-color:#FFAEFF"/>
			<stop  offset="0.0778" style="stop-color:#E3A4EC;stop-opacity:0.9222"/>
			<stop  offset="0.2672" style="stop-color:#A58CC3;stop-opacity:0.7328"/>
			<stop  offset="0.4489" style="stop-color:#7179A0;stop-opacity:0.5511"/>
			<stop  offset="0.6177" style="stop-color:#496A85;stop-opacity:0.3823"/>
			<stop  offset="0.7709" style="stop-color:#2C5F71;stop-opacity:0.2291"/>
			<stop  offset="0.9034" style="stop-color:#1A5865;stop-opacity:0.0966"/>
			<stop  offset="1" style="stop-color:#145661;stop-opacity:0"/>
		</linearGradient>
		<path style="fill:url(#SVGID_00000164481239803517347630000004723945541833592466_);" d="M166.76,105.12
			c-0.29,0.29-0.45,0.6-0.35,0.7c0.09,0.09,0.41-0.06,0.7-0.35l32.7-32.7l-0.34-0.34L166.76,105.12z"/>
		
			<linearGradient id="SVGID_00000172401093503915900370000017691272335618648501_" gradientUnits="userSpaceOnUse" x1="-126.5147" y1="-366.1451" x2="-111.1651" y2="-366.1451" gradientTransform="matrix(2.1645 -2.1645 0.7071 0.7071 606.0187 32.7517)">
			<stop  offset="0" style="stop-color:#FFAEFF"/>
			<stop  offset="0.0778" style="stop-color:#E3A4EC;stop-opacity:0.9222"/>
			<stop  offset="0.2672" style="stop-color:#A58CC3;stop-opacity:0.7328"/>
			<stop  offset="0.4489" style="stop-color:#7179A0;stop-opacity:0.5511"/>
			<stop  offset="0.6177" style="stop-color:#496A85;stop-opacity:0.3823"/>
			<stop  offset="0.7709" style="stop-color:#2C5F71;stop-opacity:0.2291"/>
			<stop  offset="0.9034" style="stop-color:#1A5865;stop-opacity:0.0966"/>
			<stop  offset="1" style="stop-color:#145661;stop-opacity:0"/>
		</linearGradient>
		<path style="fill:url(#SVGID_00000172401093503915900370000017691272335618648501_);" d="M73.62,46.99
			c-0.29,0.29-0.45,0.6-0.35,0.7c0.09,0.09,0.41-0.06,0.7-0.35l32.7-32.7l-0.34-0.34L73.62,46.99z"/>
	</g>
	<circle class="st0" cx="136" cy="66.98" r="36"/>
</g>
</svg>
