<svg width="32" height="32" viewBox="0 0 32 32" fill="none" xmlns="http://www.w3.org/2000/svg">
<path d="M3.66665 3.00001C3.48997 2.99751 3.31455 3.03015 3.1506 3.09604C2.98664 3.16192 2.83741 3.25974 2.71158 3.3838C2.58576 3.50786 2.48584 3.65569 2.41765 3.8187C2.34945 3.98171 2.31433 4.15664 2.31433 4.33334C2.31433 4.51004 2.34945 4.68498 2.41765 4.84799C2.48584 5.011 2.58576 5.15883 2.71158 5.28289C2.83741 5.40695 2.98664 5.50477 3.1506 5.57065C3.31455 5.63653 3.48997 5.66918 3.66665 5.66668C6.55554 5.66668 7.29626 6.83877 8.67968 8.51564C9.32161 9.29374 10.1112 10.1652 11.1523 10.8828C7.89426 12.6249 5.66665 16.0597 5.66665 20C5.66665 25.6912 10.3088 30.3333 16 30.3333C21.6911 30.3333 26.3333 25.6912 26.3333 20C26.3333 16.166 24.2218 12.8145 21.1068 11.0313C22.2797 10.2864 23.1216 9.33757 23.7917 8.50001C24.4668 7.6561 25.035 6.9476 25.7213 6.46876C26.4077 5.98992 27.2222 5.66668 28.6667 5.66668C28.8433 5.66918 29.0188 5.63653 29.1827 5.57065C29.3467 5.50477 29.4959 5.40695 29.6217 5.28289C29.7475 5.15883 29.8475 5.011 29.9157 4.84799C29.9839 4.68498 30.019 4.51004 30.019 4.33334C30.019 4.15664 29.9839 3.98171 29.9157 3.8187C29.8475 3.65569 29.7475 3.50786 29.6217 3.3838C29.4959 3.25974 29.3467 3.16192 29.1827 3.09604C29.0188 3.03015 28.8433 2.99751 28.6667 3.00001C26.7778 3.00001 25.3006 3.5101 24.1953 4.28126C23.09 5.05242 22.3665 6.01059 21.7083 6.83334C20.3919 8.47885 19.5959 9.66668 16.3333 9.66668C16.2794 9.66645 16.2254 9.66949 16.1719 9.67579C16.1609 9.67561 16.1503 9.67334 16.1393 9.67319C16.093 9.66859 16.0465 9.66642 16 9.66668C12.9233 9.66668 12.1036 8.47419 10.737 6.81772C9.37038 5.16125 7.44443 3.00001 3.66665 3.00001ZM16 12.3333C20.25 12.3333 23.6667 15.75 23.6667 20C23.6667 24.25 20.25 27.6667 16 27.6667C11.75 27.6667 8.33332 24.25 8.33332 20C8.33332 15.75 11.75 12.3333 16 12.3333Z" fill="url(#paint0_linear_912_595)"/>
<defs>
<linearGradient id="paint0_linear_912_595" x1="2.31433" y1="16.6666" x2="30.019" y2="16.6666" gradientUnits="userSpaceOnUse">
<stop stop-color="#4FBCDD"/>
<stop offset="1" stop-color="#89CFE7"/>
</linearGradient>
</defs>
</svg>
