<?xml version="1.0" encoding="utf-8"?>
<!-- Generator: Adobe Illustrator 27.1.1, SVG Export Plug-In . SVG Version: 6.00 Build 0)  -->
<svg version="1.1" id="Layer_6" xmlns="http://www.w3.org/2000/svg" xmlns:xlink="http://www.w3.org/1999/xlink" x="0px" y="0px"
	 viewBox="0 0 28 24" style="enable-background:new 0 0 28 24;" xml:space="preserve">
<style type="text/css">
	.st0{fill:url(#SVGID_1_);}
</style>
<linearGradient id="SVGID_1_" gradientUnits="userSpaceOnUse" x1="1.7764" y1="11.9998" x2="26.2236" y2="11.9998">
	<stop  offset="0" style="stop-color:#84CAE5"/>
	<stop  offset="1" style="stop-color:#91D6EB"/>
</linearGradient>
<path class="st0" d="M21.9,5l2-2c0.2-0.2,0.2-0.6,0-0.8s-0.6-0.2-0.8,0l-2.2,2.2C19.1,3,16.8,2.1,14,2.1C5.6,2.1,1.8,10,1.8,12
	c0,1.2,1.4,4.6,4.3,7l-2,2c-0.2,0.2-0.2,0.6,0,0.8c0.1,0.1,0.3,0.2,0.4,0.2s0.3-0.1,0.4-0.2l2.2-2.2c1.8,1.2,4.1,2.1,6.9,2.1
	c8.4,0,12.2-7.9,12.2-9.9C26.2,10.8,24.8,7.4,21.9,5z M3,12c0-1.2,3.2-8.7,11-8.7c2.5,0,4.5,0.7,6.1,1.8l-2.8,2.8
	c-0.9-0.7-2-1.2-3.2-1.2c-2.9,0-5.2,2.4-5.2,5.2c0,1.2,0.4,2.3,1.2,3.2L7,18.2C4.2,15.9,3,12.8,3,12z M18,12c0,2.2-1.8,4-4,4
	c-0.9,0-1.7-0.3-2.4-0.8l5.6-5.6C17.7,10.3,18,11.1,18,12z M10,12c0-0.1,0-0.1,0-0.2c0.4,0.1,0.7,0.2,1.1,0.2c1.9,0,3.5-1.6,3.5-3.5
	c0-0.2,0-0.3-0.1-0.5c0.7,0.1,1.3,0.4,1.8,0.7l-5.6,5.6C10.3,13.7,10,12.9,10,12z M13.3,8c0,0.2,0.1,0.3,0.1,0.5
	c0,1.3-1,2.3-2.3,2.3c-0.3,0-0.6-0.1-0.9-0.2c0,0,0,0,0,0C10.7,9.3,11.9,8.3,13.3,8z M14,20.7c-2.5,0-4.5-0.7-6.1-1.8l2.8-2.8
	c0.9,0.7,2,1.2,3.2,1.2c2.9,0,5.2-2.4,5.2-5.2c0-1.2-0.4-2.3-1.2-3.2L21,5.8c2.8,2.3,4,5.4,4,6.2C25,13.2,21.8,20.7,14,20.7z"/>
</svg>
