<svg width="34" height="14" viewBox="0 0 34 14" fill="none" xmlns="http://www.w3.org/2000/svg">
<g clip-path="url(#clip0_538_401)">
<path fill-rule="evenodd" clip-rule="evenodd" d="M34.0448 7.23345C34.0448 4.84094 32.8721 2.95312 30.6308 2.95312C28.3801 2.95312 27.0183 4.84094 27.0183 7.21476C27.0183 10.0278 28.6259 11.4483 30.9334 11.4483C32.0588 11.4483 32.9099 11.1959 33.553 10.8408V8.97169C32.9099 9.28949 32.1723 9.4857 31.2361 9.4857C30.3187 9.4857 29.5054 9.16797 29.4014 8.06519H34.0259C34.0259 7.94367 34.0448 7.45773 34.0448 7.23345ZM29.373 6.34558C29.373 5.28953 30.0255 4.85029 30.6213 4.85029C31.1982 4.85029 31.8129 5.28953 31.8129 6.34558H29.373Z" fill="#8792A2"/>
<path fill-rule="evenodd" clip-rule="evenodd" d="M23.368 2.95312C22.4412 2.95312 21.8455 3.38302 21.5145 3.68208L21.3916 3.10265H19.311V13.9997L21.6752 13.5043L21.6847 10.8595C22.0252 11.1025 22.5264 11.4483 23.3586 11.4483C25.0514 11.4483 26.5928 10.1025 26.5928 7.14C26.5834 4.42973 25.023 2.95312 23.368 2.95312ZM22.8006 9.39225C22.2427 9.39225 21.9117 9.19597 21.6847 8.953L21.6752 5.48579C21.9211 5.21477 22.2616 5.02785 22.8006 5.02785C23.6612 5.02785 24.257 5.98111 24.257 7.20538C24.257 8.45768 23.6707 9.39225 22.8006 9.39225Z" fill="#8792A2"/>
<path fill-rule="evenodd" clip-rule="evenodd" d="M16.0576 2.40183L18.4313 1.89716V0L16.0576 0.495319V2.40183Z" fill="#8792A2"/>
<path d="M18.4313 3.11169H16.0576V11.2891H18.4313V3.11169Z" fill="#8792A2"/>
<path fill-rule="evenodd" clip-rule="evenodd" d="M13.5138 3.80356L13.3625 3.11198H11.3198V11.2894H13.684V5.74745C14.242 5.02783 15.1877 5.15868 15.4809 5.26148V3.11198C15.1782 2.99984 14.0718 2.79423 13.5138 3.80356Z" fill="#8792A2"/>
<path fill-rule="evenodd" clip-rule="evenodd" d="M8.78548 1.08423L6.47796 1.5702L6.46851 9.05602C6.46851 10.4392 7.5182 11.4579 8.91787 11.4579C9.69328 11.4579 10.2607 11.3177 10.5728 11.1495V9.2523C10.2702 9.37382 8.77599 9.80369 8.77599 8.42056V5.10285H10.5728V3.11223H8.77599L8.78548 1.08423Z" fill="#8792A2"/>
<path fill-rule="evenodd" clip-rule="evenodd" d="M2.39259 5.4858C2.39259 5.12131 2.69522 4.98113 3.19642 4.98113C3.91515 4.98113 4.82301 5.19608 5.54174 5.57924V3.38302C4.75681 3.07462 3.98135 2.95312 3.19642 2.95312C1.27668 2.95312 0 3.94376 0 5.59794C0 8.17733 3.59362 7.76615 3.59362 8.87824C3.59362 9.30818 3.21534 9.44832 2.68576 9.44832C1.90083 9.44832 0.898407 9.13059 0.104026 8.70072V10.925C0.983514 11.2988 1.87247 11.4577 2.68576 11.4577C4.65279 11.4577 6.00512 10.495 6.00512 8.82217C5.99567 6.03718 2.39259 6.53251 2.39259 5.4858Z" fill="#8792A2"/>
</g>
<defs>
<clipPath id="clip0_538_401">
<rect width="34" height="14" fill="white"/>
</clipPath>
</defs>
</svg>
