<svg width="213" height="100" viewBox="0 0 213 100" fill="none" xmlns="http://www.w3.org/2000/svg">
<g clip-path="url(#clip0_72_367)">
<path d="M66.0611 3.60896C66.4795 3.60896 66.8187 3.26976 66.8187 2.85133C66.8187 2.43289 66.4795 2.09369 66.0611 2.09369C65.6427 2.09369 65.3035 2.43289 65.3035 2.85133C65.3035 3.26976 65.6427 3.60896 66.0611 3.60896Z" fill="#CFE4BA"/>
<path d="M63.1039 43.8289C63.5223 43.8289 63.8615 43.4897 63.8615 43.0713C63.8615 42.6529 63.5223 42.3137 63.1039 42.3137C62.6854 42.3137 62.3462 42.6529 62.3462 43.0713C62.3462 43.4897 62.6854 43.8289 63.1039 43.8289Z" fill="#CFE4BA"/>
<path d="M44.8065 22.6965C45.225 22.6965 45.5642 22.3573 45.5642 21.9389C45.5642 21.5205 45.225 21.1813 44.8065 21.1813C44.3881 21.1813 44.0489 21.5205 44.0489 21.9389C44.0489 22.3573 44.3881 22.6965 44.8065 22.6965Z" fill="#CFE4BA"/>
<path d="M125.181 13.165C125.6 13.165 125.939 12.8258 125.939 12.4074C125.939 11.9889 125.6 11.6497 125.181 11.6497C124.763 11.6497 124.424 11.9889 124.424 12.4074C124.424 12.8258 124.763 13.165 125.181 13.165Z" fill="#CFE4BA"/>
<path d="M194.656 45.1813C194.908 45.1813 195.112 44.977 195.112 44.7251C195.112 44.4731 194.908 44.2689 194.656 44.2689C194.404 44.2689 194.2 44.4731 194.2 44.7251C194.2 44.977 194.404 45.1813 194.656 45.1813Z" fill="#CFE4BA"/>
<path d="M182.306 21.7922C182.557 21.7922 182.762 21.588 182.762 21.336C182.762 21.0841 182.557 20.8798 182.306 20.8798C182.054 20.8798 181.849 21.0841 181.849 21.336C181.849 21.588 182.054 21.7922 182.306 21.7922Z" fill="#CFE4BA"/>
<path d="M147.495 48.5295C147.747 48.5295 147.951 48.3253 147.951 48.0733C147.951 47.8214 147.747 47.6171 147.495 47.6171C147.243 47.6171 147.039 47.8214 147.039 48.0733C147.039 48.3253 147.243 48.5295 147.495 48.5295Z" fill="#CFE4BA"/>
<path d="M99.5112 0.912424C99.7632 0.912424 99.9674 0.708171 99.9674 0.456212C99.9674 0.204253 99.7632 0 99.5112 0C99.2592 0 99.055 0.204253 99.055 0.456212C99.055 0.708171 99.2592 0.912424 99.5112 0.912424Z" fill="#CFE4BA"/>
<path d="M157.703 24.6029C157.955 24.6029 158.159 24.3986 158.159 24.1466C158.159 23.8947 157.955 23.6904 157.703 23.6904C157.451 23.6904 157.246 23.8947 157.246 24.1466C157.246 24.3986 157.451 24.6029 157.703 24.6029Z" fill="#CFE4BA"/>
<path d="M151.185 72.668C151.437 72.668 151.642 72.4638 151.642 72.2118C151.642 71.9599 151.437 71.7556 151.185 71.7556C150.933 71.7556 150.729 71.9599 150.729 72.2118C150.729 72.4638 150.933 72.668 151.185 72.668Z" fill="#CFE4BA"/>
<path d="M69.3849 26.2322C69.6369 26.2322 69.8411 26.0279 69.8411 25.776C69.8411 25.524 69.6369 25.3198 69.3849 25.3198C69.133 25.3198 68.9287 25.524 68.9287 25.776C68.9287 26.0279 69.133 26.2322 69.3849 26.2322Z" fill="#CFE4BA"/>
<path d="M28.7902 24.2037C29.0422 24.2037 29.2464 23.9994 29.2464 23.7475C29.2464 23.4955 29.0422 23.2913 28.7902 23.2913C28.5383 23.2913 28.334 23.4955 28.334 23.7475C28.334 23.9994 28.5383 24.2037 28.7902 24.2037Z" fill="#CFE4BA"/>
<path d="M59.5357 70.8594C59.7876 70.8594 59.9919 70.6552 59.9919 70.4032C59.9919 70.1513 59.7876 69.947 59.5357 69.947C59.2837 69.947 59.0794 70.1513 59.0794 70.4032C59.0794 70.6552 59.2837 70.8594 59.5357 70.8594Z" fill="#CFE4BA"/>
<path d="M92.1222 93.6701C92.3742 93.6701 92.5784 93.4658 92.5784 93.2138C92.5784 92.9619 92.3742 92.7576 92.1222 92.7576C91.8702 92.7576 91.666 92.9619 91.666 93.2138C91.666 93.4658 91.8702 93.6701 92.1222 93.6701Z" fill="#CFE4BA"/>
<path d="M61.6538 93.9796C61.9057 93.9796 62.11 93.7754 62.11 93.5234C62.11 93.2715 61.9057 93.0672 61.6538 93.0672C61.4018 93.0672 61.1976 93.2715 61.1976 93.5234C61.1976 93.7754 61.4018 93.9796 61.6538 93.9796Z" fill="#CFE4BA"/>
<path d="M178.827 65.2953C179.079 65.2953 179.283 65.091 179.283 64.8391C179.283 64.5871 179.079 64.3829 178.827 64.3829C178.575 64.3829 178.371 64.5871 178.371 64.8391C178.371 65.091 178.575 65.2953 178.827 65.2953Z" fill="#CFE4BA"/>
<path d="M175.585 90.5581C175.836 90.5581 176.041 90.3538 176.041 90.1018C176.041 89.8499 175.836 89.6456 175.585 89.6456C175.333 89.6456 175.128 89.8499 175.128 90.1018C175.128 90.3538 175.333 90.5581 175.585 90.5581Z" fill="#CFE4BA"/>
<path d="M97.2872 7.57637C97.7056 7.57637 98.0448 7.23717 98.0448 6.81873C98.0448 6.4003 97.7056 6.0611 97.2872 6.0611C96.8687 6.0611 96.5295 6.4003 96.5295 6.81873C96.5295 7.23717 96.8687 7.57637 97.2872 7.57637Z" fill="#CFE4BA"/>
<path d="M102.077 100.008C102.496 100.008 102.835 99.6689 102.835 99.2505C102.835 98.8321 102.496 98.4929 102.077 98.4929C101.659 98.4929 101.32 98.8321 101.32 99.2505C101.32 99.6689 101.659 100.008 102.077 100.008Z" fill="#CFE4BA"/>
<path d="M211.666 55.78C211.918 55.78 212.122 55.5758 212.122 55.3238C212.122 55.0719 211.918 54.8676 211.666 54.8676C211.414 54.8676 211.21 55.0719 211.21 55.3238C211.21 55.5758 211.414 55.78 211.666 55.78Z" fill="#CFE4BA"/>
<path d="M37.3279 49.2627C37.5799 49.2627 37.7841 49.0585 37.7841 48.8065C37.7841 48.5545 37.5799 48.3503 37.3279 48.3503C37.0759 48.3503 36.8717 48.5545 36.8717 48.8065C36.8717 49.0585 37.0759 49.2627 37.3279 49.2627Z" fill="#CFE4BA"/>
<path d="M205.442 66.8106C205.86 66.8106 206.2 66.4714 206.2 66.0529C206.2 65.6345 205.86 65.2953 205.442 65.2953C205.024 65.2953 204.684 65.6345 204.684 66.0529C204.684 66.4714 205.024 66.8106 205.442 66.8106Z" fill="#CFE4BA"/>
<path d="M0.456212 38.7617C0.708171 38.7617 0.912424 38.5575 0.912424 38.3055C0.912424 38.0536 0.708171 37.8493 0.456212 37.8493C0.204253 37.8493 0 38.0536 0 38.3055C0 38.5575 0.204253 38.7617 0.456212 38.7617Z" fill="#CFE4BA"/>
<path d="M15.2179 40.3666C15.6364 40.3666 15.9756 40.0274 15.9756 39.609C15.9756 39.1905 15.6364 38.8513 15.2179 38.8513C14.7995 38.8513 14.4603 39.1905 14.4603 39.609C14.4603 40.0274 14.7995 40.3666 15.2179 40.3666Z" fill="#CFE4BA"/>
<path d="M154.982 3.07131C155.4 3.07131 155.739 2.7321 155.739 2.31367C155.739 1.89524 155.4 1.55603 154.982 1.55603C154.563 1.55603 154.224 1.89524 154.224 2.31367C154.224 2.7321 154.563 3.07131 154.982 3.07131Z" fill="#CFE4BA"/>
<path d="M163.78 44.4318C164.198 44.4318 164.538 44.0926 164.538 43.6741C164.538 43.2557 164.198 42.9165 163.78 42.9165C163.362 42.9165 163.022 43.2557 163.022 43.6741C163.022 44.0926 163.362 44.4318 163.78 44.4318Z" fill="#CFE4BA"/>
<path d="M165.189 87.7963C165.608 87.7963 165.947 87.4571 165.947 87.0387C165.947 86.6203 165.608 86.2811 165.189 86.2811C164.771 86.2811 164.432 86.6203 164.432 87.0387C164.432 87.4571 164.771 87.7963 165.189 87.7963Z" fill="#CFE4BA"/>
<path d="M46.2648 72.0652C46.6832 72.0652 47.0224 71.726 47.0224 71.3076C47.0224 70.8891 46.6832 70.5499 46.2648 70.5499C45.8463 70.5499 45.5071 70.8891 45.5071 71.3076C45.5071 71.726 45.8463 72.0652 46.2648 72.0652Z" fill="#CFE4BA"/>
<path d="M132.236 92.3666C132.655 92.3666 132.994 92.0274 132.994 91.609C132.994 91.1905 132.655 90.8513 132.236 90.8513C131.818 90.8513 131.479 91.1905 131.479 91.609C131.479 92.0274 131.818 92.3666 132.236 92.3666Z" fill="#CFE4BA"/>
<path d="M18.0285 65.0672C18.4469 65.0672 18.7861 64.728 18.7861 64.3096C18.7861 63.8911 18.4469 63.5519 18.0285 63.5519C17.6101 63.5519 17.2709 63.8911 17.2709 64.3096C17.2709 64.728 17.6101 65.0672 18.0285 65.0672Z" fill="#CFE4BA"/>
<path d="M146.664 11.6252C145.238 11.6252 144.09 12.7821 144.09 14.1996C144.09 12.7739 142.933 11.6252 141.515 11.6252C142.941 11.6252 144.09 10.4684 144.09 9.0509C144.09 10.4766 145.246 11.6252 146.664 11.6252Z" fill="url(#paint0_linear_72_367)"/>
<path d="M165.401 70.2811C163.976 70.2811 162.827 71.4379 162.827 72.8554C162.827 71.4297 161.67 70.2811 160.253 70.2811C161.678 70.2811 162.827 69.1242 162.827 67.7067C162.827 69.1324 163.984 70.2811 165.401 70.2811Z" fill="url(#paint1_linear_72_367)"/>
<path d="M63.5682 16.5132C62.1426 16.5132 60.9939 17.6701 60.9939 19.0876C60.9939 17.6619 59.8371 16.5132 58.4196 16.5132C59.8452 16.5132 60.9939 15.3564 60.9939 13.9389C60.9939 15.3646 62.1507 16.5132 63.5682 16.5132Z" fill="url(#paint2_linear_72_367)"/>
<path d="M31.7963 41.7678C30.3707 41.7678 29.222 42.9246 29.222 44.3422C29.222 42.9165 28.0652 41.7678 26.6477 41.7678C28.0733 41.7678 29.222 40.611 29.222 39.1935C29.222 40.6191 30.3788 41.7678 31.7963 41.7678Z" fill="url(#paint3_linear_72_367)"/>
<path d="M185.45 33.9389C183.299 33.9389 181.564 35.6823 181.564 37.8249C181.564 35.6742 179.821 33.9389 177.678 33.9389C179.829 33.9389 181.564 32.1955 181.564 30.053C181.564 32.2037 183.308 33.9389 185.45 33.9389Z" fill="url(#paint4_linear_72_367)"/>
<path d="M77.9145 81.1894C75.7637 81.1894 74.0285 82.9328 74.0285 85.0754C74.0285 82.9246 72.2851 81.1894 70.1426 81.1894C72.2933 81.1894 74.0285 79.446 74.0285 77.3035C74.0285 79.4542 75.7719 81.1894 77.9145 81.1894Z" fill="url(#paint5_linear_72_367)"/>
<path style="mix-blend-mode:screen" d="M112.228 14.9898C112.155 15.0631 112.155 15.1935 112.228 15.2668C112.301 15.3401 112.432 15.3401 112.505 15.2668L121.206 6.56617L120.929 6.28918L112.228 14.9898Z" fill="url(#paint6_linear_72_367)"/>
<path style="mix-blend-mode:screen" d="M189.841 63.4053C189.768 63.4786 189.768 63.609 189.841 63.6823C189.914 63.7556 190.045 63.7556 190.118 63.6823L198.819 54.9817L198.542 54.7047L189.841 63.4053Z" fill="url(#paint7_linear_72_367)"/>
<path style="mix-blend-mode:screen" d="M79.0468 93.5478C78.9735 93.6212 78.9735 93.7515 79.0468 93.8248C79.1202 93.8981 79.2505 93.8981 79.3238 93.8248L88.0244 85.1242L87.7475 84.8472L79.0468 93.5478Z" fill="url(#paint8_linear_72_367)"/>
<path style="mix-blend-mode:screen" d="M32.611 86.2159C32.5377 86.2892 32.5377 86.4195 32.611 86.4929C32.6843 86.5662 32.8147 86.5662 32.888 86.4929L41.5886 77.7922L41.3116 77.5153L32.611 86.2159Z" fill="url(#paint9_linear_72_367)"/>
<path style="mix-blend-mode:screen" d="M161.426 16.9939C161.352 17.0672 161.352 17.1976 161.426 17.2709C161.499 17.3442 161.629 17.3442 161.703 17.2709L170.403 8.57026L170.126 8.29327L161.426 16.9939Z" fill="url(#paint10_linear_72_367)"/>
<path style="mix-blend-mode:screen" d="M9.89816 58.5417C9.82484 58.6151 9.82484 58.7454 9.89816 58.8187C9.97148 58.892 10.1018 58.892 10.1751 58.8187L18.8758 50.1181L18.5988 49.8411L9.89816 58.5417Z" fill="url(#paint11_linear_72_367)"/>
<path style="mix-blend-mode:screen" d="M131.112 81.0509C130.876 81.2872 130.745 81.5397 130.827 81.6212C130.908 81.7027 131.161 81.5723 131.397 81.336L158.037 54.6965L157.76 54.4196L131.12 81.0591L131.112 81.0509Z" fill="url(#paint12_linear_72_367)"/>
<path style="mix-blend-mode:screen" d="M55.2424 33.7027C55.0061 33.9389 54.8758 34.1915 54.9572 34.2729C55.0387 34.3544 55.2913 34.224 55.5275 33.9878L82.167 7.34827L81.89 7.07129L55.2505 33.7108L55.2424 33.7027Z" fill="url(#paint13_linear_72_367)"/>
</g>
<g clip-path="url(#clip1_72_367)">
<path d="M106 75C119.807 75 131 63.8071 131 50C131 36.1929 119.807 25 106 25C92.1929 25 81 36.1929 81 50C81 63.8071 92.1929 75 106 75Z" fill="#CFE4BA"/>
</g>
<defs>
<linearGradient id="paint0_linear_72_367" x1="141.507" y1="11.6252" x2="146.664" y2="11.6252" gradientUnits="userSpaceOnUse">
<stop stop-color="#84CAE5"/>
<stop offset="1" stop-color="#91D6EB"/>
</linearGradient>
<linearGradient id="paint1_linear_72_367" x1="160.244" y1="70.2811" x2="165.401" y2="70.2811" gradientUnits="userSpaceOnUse">
<stop stop-color="#84CAE5"/>
<stop offset="1" stop-color="#91D6EB"/>
</linearGradient>
<linearGradient id="paint2_linear_72_367" x1="58.4114" y1="16.5132" x2="63.5682" y2="16.5132" gradientUnits="userSpaceOnUse">
<stop stop-color="#84CAE5"/>
<stop offset="1" stop-color="#91D6EB"/>
</linearGradient>
<linearGradient id="paint3_linear_72_367" x1="26.6395" y1="41.7678" x2="31.7963" y2="41.7678" gradientUnits="userSpaceOnUse">
<stop stop-color="#84CAE5"/>
<stop offset="1" stop-color="#91D6EB"/>
</linearGradient>
<linearGradient id="paint4_linear_72_367" x1="177.67" y1="33.9389" x2="185.45" y2="33.9389" gradientUnits="userSpaceOnUse">
<stop stop-color="#84CAE5"/>
<stop offset="1" stop-color="#91D6EB"/>
</linearGradient>
<linearGradient id="paint5_linear_72_367" x1="70.1344" y1="81.1894" x2="77.9145" y2="81.1894" gradientUnits="userSpaceOnUse">
<stop stop-color="#84CAE5"/>
<stop offset="1" stop-color="#91D6EB"/>
</linearGradient>
<linearGradient id="paint6_linear_72_367" x1="112.228" y1="15.2705" x2="121.07" y2="6.42803" gradientUnits="userSpaceOnUse">
<stop stop-color="#FFAEFF"/>
<stop offset="0.12" stop-color="#CF8DCF"/>
<stop offset="0.3" stop-color="#916391"/>
<stop offset="0.48" stop-color="#5D3F5D"/>
<stop offset="0.64" stop-color="#342434"/>
<stop offset="0.78" stop-color="#171017"/>
<stop offset="0.91" stop-color="#060406"/>
<stop offset="1"/>
</linearGradient>
<linearGradient id="paint7_linear_72_367" x1="189.845" y1="63.6936" x2="198.688" y2="54.8512" gradientUnits="userSpaceOnUse">
<stop stop-color="#FFAEFF"/>
<stop offset="0.12" stop-color="#CF8DCF"/>
<stop offset="0.3" stop-color="#916391"/>
<stop offset="0.48" stop-color="#5D3F5D"/>
<stop offset="0.64" stop-color="#342434"/>
<stop offset="0.78" stop-color="#171017"/>
<stop offset="0.91" stop-color="#060406"/>
<stop offset="1"/>
</linearGradient>
<linearGradient id="paint8_linear_72_367" x1="79.0471" y1="93.8328" x2="87.8895" y2="84.9903" gradientUnits="userSpaceOnUse">
<stop stop-color="#FFAEFF"/>
<stop offset="0.12" stop-color="#CF8DCF"/>
<stop offset="0.3" stop-color="#916391"/>
<stop offset="0.48" stop-color="#5D3F5D"/>
<stop offset="0.64" stop-color="#342434"/>
<stop offset="0.78" stop-color="#171017"/>
<stop offset="0.91" stop-color="#060406"/>
<stop offset="1"/>
</linearGradient>
<linearGradient id="paint9_linear_72_367" x1="32.6113" y1="86.4996" x2="41.4538" y2="77.6572" gradientUnits="userSpaceOnUse">
<stop stop-color="#FFAEFF"/>
<stop offset="0.12" stop-color="#CF8DCF"/>
<stop offset="0.3" stop-color="#916391"/>
<stop offset="0.48" stop-color="#5D3F5D"/>
<stop offset="0.64" stop-color="#342434"/>
<stop offset="0.78" stop-color="#171017"/>
<stop offset="0.91" stop-color="#060406"/>
<stop offset="1"/>
</linearGradient>
<linearGradient id="paint10_linear_72_367" x1="161.429" y1="17.2694" x2="170.271" y2="8.42695" gradientUnits="userSpaceOnUse">
<stop stop-color="#FFAEFF"/>
<stop offset="0.12" stop-color="#CF8DCF"/>
<stop offset="0.3" stop-color="#916391"/>
<stop offset="0.48" stop-color="#5D3F5D"/>
<stop offset="0.64" stop-color="#342434"/>
<stop offset="0.78" stop-color="#171017"/>
<stop offset="0.91" stop-color="#060406"/>
<stop offset="1"/>
</linearGradient>
<linearGradient id="paint11_linear_72_367" x1="9.89751" y1="58.8202" x2="18.7399" y2="49.9777" gradientUnits="userSpaceOnUse">
<stop stop-color="#FFAEFF"/>
<stop offset="0.12" stop-color="#CF8DCF"/>
<stop offset="0.3" stop-color="#916391"/>
<stop offset="0.48" stop-color="#5D3F5D"/>
<stop offset="0.64" stop-color="#342434"/>
<stop offset="0.78" stop-color="#171017"/>
<stop offset="0.91" stop-color="#060406"/>
<stop offset="1"/>
</linearGradient>
<linearGradient id="paint12_linear_72_367" x1="132.38" y1="80.0748" x2="159.438" y2="53.017" gradientUnits="userSpaceOnUse">
<stop stop-color="#FFAEFF"/>
<stop offset="0.12" stop-color="#CF8DCF"/>
<stop offset="0.3" stop-color="#916391"/>
<stop offset="0.48" stop-color="#5D3F5D"/>
<stop offset="0.64" stop-color="#342434"/>
<stop offset="0.78" stop-color="#171017"/>
<stop offset="0.91" stop-color="#060406"/>
<stop offset="1"/>
</linearGradient>
<linearGradient id="paint13_linear_72_367" x1="56.5224" y1="32.7029" x2="83.5802" y2="5.64503" gradientUnits="userSpaceOnUse">
<stop stop-color="#FFAEFF"/>
<stop offset="0.12" stop-color="#CF8DCF"/>
<stop offset="0.3" stop-color="#916391"/>
<stop offset="0.48" stop-color="#5D3F5D"/>
<stop offset="0.64" stop-color="#342434"/>
<stop offset="0.78" stop-color="#171017"/>
<stop offset="0.91" stop-color="#060406"/>
<stop offset="1"/>
</linearGradient>
<clipPath id="clip0_72_367">
<rect width="212.122" height="100" fill="white"/>
</clipPath>
<clipPath id="clip1_72_367">
<rect width="50" height="50" fill="white" transform="translate(81 25)"/>
</clipPath>
</defs>
</svg>
