<?xml version="1.0" encoding="utf-8"?>
<!-- Generator: Adobe Illustrator 27.1.1, SVG Export Plug-In . SVG Version: 6.00 Build 0)  -->
<svg version="1.1" id="Layer_5" xmlns="http://www.w3.org/2000/svg" xmlns:xlink="http://www.w3.org/1999/xlink" x="0px" y="0px"
	 viewBox="0 0 24 24" style="enable-background:new 0 0 24 24;" xml:space="preserve">
<style type="text/css">
	.st0{fill:url(#SVGID_1_);}
	.st1{fill:url(#SVGID_00000160191544692353377940000014898470880552227761_);}
	.st2{fill:url(#SVGID_00000102529330698071306080000015611356032971799184_);}
	.st3{clip-path:url(#SVGID_00000003796680653322717550000015561984440415863469_);fill:#84CAE5;}
	.st4{clip-path:url(#SVGID_00000003796680653322717550000015561984440415863469_);fill:#85CBE6;}
	.st5{clip-path:url(#SVGID_00000003796680653322717550000015561984440415863469_);fill:#86CCE6;}
	.st6{clip-path:url(#SVGID_00000003796680653322717550000015561984440415863469_);fill:#87CDE7;}
	.st7{clip-path:url(#SVGID_00000003796680653322717550000015561984440415863469_);fill:#88CEE7;}
	.st8{clip-path:url(#SVGID_00000003796680653322717550000015561984440415863469_);fill:#89CFE8;}
	.st9{clip-path:url(#SVGID_00000003796680653322717550000015561984440415863469_);fill:#8BD0E8;}
	.st10{clip-path:url(#SVGID_00000003796680653322717550000015561984440415863469_);fill:#8CD1E9;}
	.st11{clip-path:url(#SVGID_00000003796680653322717550000015561984440415863469_);fill:#8DD2E9;}
	.st12{clip-path:url(#SVGID_00000003796680653322717550000015561984440415863469_);fill:#8ED3EA;}
	.st13{clip-path:url(#SVGID_00000003796680653322717550000015561984440415863469_);fill:#8FD4EA;}
	.st14{clip-path:url(#SVGID_00000003796680653322717550000015561984440415863469_);fill:#90D5EB;}
	.st15{clip-path:url(#SVGID_00000003796680653322717550000015561984440415863469_);fill:#91D6EB;}
</style>
<g>
	<g>
		<g>
			<linearGradient id="SVGID_1_" gradientUnits="userSpaceOnUse" x1="0.3816" y1="2.7437" x2="20.1736" y2="2.7437">
				<stop  offset="0" style="stop-color:#84CAE5"/>
				<stop  offset="1" style="stop-color:#91D6EB"/>
			</linearGradient>
			<path class="st0" d="M19.57,3.34H0.98c-0.33,0-0.6-0.27-0.6-0.6s0.27-0.6,0.6-0.6h18.59c0.33,0,0.6,0.27,0.6,0.6
				S19.91,3.34,19.57,3.34z"/>
		</g>
		<g>
			
				<linearGradient id="SVGID_00000114775982991436046600000012723254084572954546_" gradientUnits="userSpaceOnUse" x1="0.3816" y1="12.0396" x2="14.1736" y2="12.0396">
				<stop  offset="0" style="stop-color:#84CAE5"/>
				<stop  offset="1" style="stop-color:#91D6EB"/>
			</linearGradient>
			<path style="fill:url(#SVGID_00000114775982991436046600000012723254084572954546_);" d="M13.57,12.64H0.98
				c-0.33,0-0.6-0.27-0.6-0.6s0.27-0.6,0.6-0.6h12.59c0.33,0,0.6,0.27,0.6,0.6S13.91,12.64,13.57,12.64z"/>
		</g>
		<g>
			
				<linearGradient id="SVGID_00000134957775182659237040000004278827361897312166_" gradientUnits="userSpaceOnUse" x1="0.3816" y1="21.3354" x2="20.1736" y2="21.3354">
				<stop  offset="0" style="stop-color:#84CAE5"/>
				<stop  offset="1" style="stop-color:#91D6EB"/>
			</linearGradient>
			<path style="fill:url(#SVGID_00000134957775182659237040000004278827361897312166_);" d="M19.57,21.94H0.98
				c-0.33,0-0.6-0.27-0.6-0.6s0.27-0.6,0.6-0.6h18.59c0.33,0,0.6,0.27,0.6,0.6S19.91,21.94,19.57,21.94z"/>
		</g>
	</g>
	<g>
		<g>
			<defs>
				<path id="SVGID_00000109015427082306376730000003132291443869192112_" d="M23.62,12L23.62,12c-2.03,0-3.67,1.64-3.67,3.67v0v0
					c0-2.03-1.64-3.67-3.67-3.67h0h0c2.03,0,3.67-1.64,3.67-3.67v0v0C19.95,10.36,21.59,12,23.62,12L23.62,12z"/>
			</defs>
			<clipPath id="SVGID_00000057847790001017596120000011286905581078468019_">
				<use xlink:href="#SVGID_00000109015427082306376730000003132291443869192112_"  style="overflow:visible;"/>
			</clipPath>
			<path style="clip-path:url(#SVGID_00000057847790001017596120000011286905581078468019_);fill:#84CAE5;" d="M16.28,8.33v7.34
				V8.33z"/>
			
				<rect x="16.28" y="8.33" style="clip-path:url(#SVGID_00000057847790001017596120000011286905581078468019_);fill:#84CAE5;" width="0.56" height="7.34"/>
			
				<rect x="16.84" y="8.33" style="clip-path:url(#SVGID_00000057847790001017596120000011286905581078468019_);fill:#85CBE6;" width="0.56" height="7.34"/>
			
				<rect x="17.41" y="8.33" style="clip-path:url(#SVGID_00000057847790001017596120000011286905581078468019_);fill:#86CCE6;" width="0.56" height="7.34"/>
			
				<rect x="17.97" y="8.33" style="clip-path:url(#SVGID_00000057847790001017596120000011286905581078468019_);fill:#87CDE7;" width="0.56" height="7.34"/>
			
				<rect x="18.54" y="8.33" style="clip-path:url(#SVGID_00000057847790001017596120000011286905581078468019_);fill:#88CEE7;" width="0.56" height="7.34"/>
			
				<rect x="19.1" y="8.33" style="clip-path:url(#SVGID_00000057847790001017596120000011286905581078468019_);fill:#89CFE8;" width="0.56" height="7.34"/>
			
				<rect x="19.67" y="8.33" style="clip-path:url(#SVGID_00000057847790001017596120000011286905581078468019_);fill:#8BD0E8;" width="0.56" height="7.34"/>
			
				<rect x="20.23" y="8.33" style="clip-path:url(#SVGID_00000057847790001017596120000011286905581078468019_);fill:#8CD1E9;" width="0.56" height="7.34"/>
			
				<rect x="20.8" y="8.33" style="clip-path:url(#SVGID_00000057847790001017596120000011286905581078468019_);fill:#8DD2E9;" width="0.56" height="7.34"/>
			
				<rect x="21.36" y="8.33" style="clip-path:url(#SVGID_00000057847790001017596120000011286905581078468019_);fill:#8ED3EA;" width="0.56" height="7.34"/>
			
				<rect x="21.92" y="8.33" style="clip-path:url(#SVGID_00000057847790001017596120000011286905581078468019_);fill:#8FD4EA;" width="0.56" height="7.34"/>
			
				<rect x="22.49" y="8.33" style="clip-path:url(#SVGID_00000057847790001017596120000011286905581078468019_);fill:#90D5EB;" width="0.56" height="7.34"/>
			
				<rect x="23.05" y="8.33" style="clip-path:url(#SVGID_00000057847790001017596120000011286905581078468019_);fill:#91D6EB;" width="0.56" height="7.34"/>
			<path style="clip-path:url(#SVGID_00000057847790001017596120000011286905581078468019_);fill:#91D6EB;" d="M23.62,15.67V8.33
				V15.67z"/>
		</g>
	</g>
</g>
</svg>
