<svg width="207" height="118" viewBox="0 0 207 118" fill="none" xmlns="http://www.w3.org/2000/svg">
<g clip-path="url(#clip0_42_2410)">
<path d="M173.19 73.6599C172.98 74.0399 172.77 74.4199 172.55 74.8099C171.11 77.3999 169.63 80.0899 168.06 82.7799C175.81 84.3099 181.31 86.3099 181.31 86.3099C181.31 86.3099 172.35 90.0099 162.32 98.7099C153.35 106.49 142.92 116.47 131.65 114.78C148.35 122.75 165.3 108.5 179.55 97.7699C193.87 86.9799 206.28 82.8299 206.28 82.8299C206.28 82.8299 190.97 76.0199 173.18 73.6499L173.19 73.6599Z" fill="#CFE4BA"/>
<path d="M33.1 73.6599C33.31 74.0399 33.52 74.4199 33.74 74.8099C35.18 77.3999 36.66 80.0899 38.23 82.7799C30.48 84.3099 24.98 86.3099 24.98 86.3099C24.98 86.3099 33.94 90.0099 43.97 98.7099C52.94 106.49 63.37 116.47 74.64 114.78C57.94 122.75 40.99 108.5 26.74 97.7699C12.41 86.9899 0 82.8399 0 82.8399C0 82.8399 15.31 76.0299 33.1 73.6599Z" fill="#B6CC9E"/>
<path d="M12.62 41.0401C12.62 41.0401 24.05 51.4401 34.39 69.9401C44.68 88.3401 56.21 111.83 78.06 111.18C65.07 107.64 58.55 91.8701 52.57 79.1801C45.87 64.9801 37.95 56.7101 37.95 56.7101C37.95 56.7101 88.62 60.0601 96.44 89.2201C92.39 40.8001 12.62 41.0401 12.62 41.0401Z" fill="#B6CC9E"/>
<path d="M130.02 70.22C128.18 71.23 126.41 72.34 124.74 73.54C125.04 80.16 123.91 86.68 120.53 92.56C126.36 85.87 129.2 78.2 130.02 70.22Z" fill="#CFE4BA"/>
<path d="M76.99 54.33C79.48 55.91 81.85 57.65 84.06 59.56C89.79 40.35 103.15 23.65 103.15 23.65V0C103.15 0 81.87 26.6 77 54.33H76.99Z" fill="#B6CC9E"/>
<path d="M129.3 54.33C124.42 26.6 103.14 0 103.14 0V23.65C103.14 23.65 116.49 40.35 122.23 59.56C124.43 57.65 126.8 55.91 129.3 54.33Z" fill="#CFE4BA"/>
<path d="M76.27 70.22C77.09 78.2 79.93 85.86 85.76 92.56C82.38 86.68 81.24 80.16 81.55 73.54C79.88 72.33 78.11 71.23 76.27 70.22Z" fill="#B6CC9E"/>
<path d="M109.84 89.2201C117.66 60.0601 168.33 56.7101 168.33 56.7101C168.33 56.7101 160.41 64.9801 153.71 79.1801C147.72 91.8701 141.21 107.63 128.22 111.18C150.07 111.83 161.6 88.3401 171.89 69.9401C182.23 51.4501 193.66 41.0401 193.66 41.0401C193.66 41.0401 113.89 40.8001 109.83 89.2201H109.84Z" fill="#CFE4BA"/>
</g>
<defs>
<clipPath id="clip0_42_2410">
<rect width="206.29" height="117.11" fill="white"/>
</clipPath>
</defs>
</svg>
