<svg width="195" height="42" viewBox="0 0 195 42" fill="none" xmlns="http://www.w3.org/2000/svg">
<g clip-path="url(#clip0_42_1900)">
<path d="M14.6606 41.4779C14.4506 41.1273 14.3455 40.6201 14.3455 39.9563L14.293 32.1993C14.2555 31.5354 14.2405 30.4315 14.2405 28.895C14.1729 25.643 14.1354 21.9734 14.1354 17.886V15.2083C13.8203 16.8865 13.2726 19.2435 12.4998 22.2866C11.727 25.4342 11.1793 28.0224 10.8642 30.0437V30.357L10.7066 31.3564C10.6391 32.1247 10.459 32.9153 10.1814 33.7134C9.82878 34.5562 9.28107 34.9739 8.54578 34.9739C7.2778 34.9739 6.64755 33.333 6.64755 30.0437C6.64755 28.2238 6.45998 26.277 6.09234 24.1961C5.7247 22.1151 5.13197 19.5567 4.32166 16.5136L2.73855 10.6436L2.63351 16.9387C2.63351 18.8258 2.72354 22.4283 2.89611 27.7389L3.00115 31.3042L3.10619 38.4869C3.10619 39.2179 2.84359 39.8817 2.31088 40.4784C1.43305 40.4784 0.825313 40.2099 0.495186 39.6654C0.157556 39.1209 -0.00750732 38.3303 -0.00750732 37.2786L0.0975331 32.9824C0.202573 31.0954 0.255094 29.6782 0.255094 28.7384L0.150053 18.6169L0.0525158 8.44326C0.0525158 6.9366 0.0900302 4.68407 0.157556 1.67821L1.5831 0.835376C1.86071 0.872669 2.14582 1.07405 2.42343 1.43953C2.70103 1.80501 3.02366 2.39425 3.37629 3.19233C4.25413 5.36281 5.39457 9.69632 6.80511 16.2003C7.01519 17.1103 7.15775 17.8636 7.22528 18.4529C7.64544 20.4816 7.94555 22.0181 8.12562 23.0698L8.91342 27.105L9.28107 25.3745L10.2865 21.0783C10.8492 18.5647 11.3143 16.357 11.682 14.4699C12.0496 12.5828 12.4098 10.5392 12.7624 8.33884C13.1526 5.71337 13.3926 3.53543 13.4977 1.78263V1.46937C13.5652 1.01438 13.7753 0.656367 14.1279 0.395312C14.4806 0.134257 14.9007 0 15.3959 0C15.711 0 15.9961 0.141715 16.2437 0.417688C16.4913 0.701119 16.6114 0.992009 16.6114 1.31273C16.6114 5.50453 16.7689 11.7848 17.0841 20.1385C17.2566 24.2259 17.3842 28.2312 17.4517 32.147C17.5192 33.9297 17.5567 36.1822 17.5567 38.9121C17.5567 39.7176 17.3467 40.4337 16.9265 41.0602C16.5063 41.6867 16.0262 42 15.501 42C15.1483 42 14.8707 41.821 14.6531 41.4779H14.6606Z" fill="#CFE4BA"/>
<path d="M27.9032 40.7693C27.1304 40.195 26.4927 39.4118 26.005 38.4347C24.9846 36.3015 24.3544 33.9744 24.1068 31.4608C23.7917 29.0815 23.6341 26.7917 23.6341 24.5914C23.6341 24.1737 23.6491 23.8231 23.6866 23.5397V22.5999C23.6866 22.4283 23.6716 22.3388 23.6341 22.3388V21.3916L23.6866 17.7219C23.7241 16.6031 23.8592 14.8205 24.1068 12.374C24.2793 10.6958 24.6845 9.0698 25.3222 7.49601C25.5698 6.79489 25.885 6.26532 26.2751 5.89984C26.6653 5.53437 27.1004 5.3479 27.5956 5.3479C28.9987 5.3479 30.2666 5.6015 31.3921 6.10869C32.5175 6.61588 33.4629 7.32446 34.2432 8.23442C34.9484 9.10709 35.5412 10.1811 36.0364 11.4566C36.5316 12.732 36.8767 14.0895 37.0943 15.5216C37.3044 16.9909 37.4094 18.5424 37.4094 20.1907V20.6084C37.4094 21.6899 37.4244 22.6745 37.4619 23.5472L37.5144 26.5381C37.5144 36.6074 35.1585 41.642 30.4467 41.642C29.5314 41.642 28.691 41.3511 27.9182 40.7768L27.9032 40.7693ZM31.9623 38.6734C32.4875 38.1662 32.8927 37.4726 33.1778 36.5999C33.8455 34.8173 34.2507 32.8929 34.3932 30.8343C34.5658 29.0517 34.6558 27.5152 34.6558 26.2174C34.6558 24.6436 34.5358 22.585 34.2882 20.0266C34.0781 17.334 33.9731 15.3277 33.9731 13.9925V13.0527C33.9055 11.7251 33.4554 10.569 32.6301 9.59191C31.8047 8.61482 30.7918 8.12254 29.5989 8.12254C28.4059 8.12254 27.6106 8.80128 27.228 10.1662C26.8753 11.2477 26.7028 12.65 26.7028 14.358C26.7028 15.0218 26.7178 15.5813 26.7553 16.0362V17.4534L26.6503 19.8626C26.5827 20.5935 26.5452 21.399 26.5452 22.2717C26.5452 24.1588 26.5977 26.0309 26.7028 27.8807C26.8453 30.4987 27.198 33.057 27.7607 35.5333C28.3234 38.1215 29.1487 39.4118 30.2366 39.4118C30.8669 39.4118 31.4521 39.1582 31.9773 38.651L31.9623 38.6734Z" fill="#CFE4BA"/>
<path d="M46.893 40.7693C46.1202 40.195 45.4825 39.4118 44.9948 38.4347C43.9744 36.3015 43.3442 33.9744 43.0966 31.4608C42.7815 29.0815 42.6239 26.7917 42.6239 24.5914C42.6239 24.1737 42.6389 23.8231 42.6764 23.5397V22.5999C42.6764 22.4283 42.6614 22.3388 42.6239 22.3388V21.3916L42.6764 17.7219C42.7139 16.6031 42.849 14.8205 43.0966 12.374C43.2691 10.6958 43.6743 9.0698 44.3121 7.49601C44.5596 6.79489 44.8748 6.26532 45.2649 5.89984C45.6551 5.53437 46.0902 5.3479 46.5854 5.3479C47.9885 5.3479 49.2565 5.6015 50.3819 6.10869C51.5073 6.61588 52.4527 7.32446 53.233 8.23442C53.9383 9.10709 54.531 10.1811 55.0262 11.4566C55.5214 12.732 55.8665 14.0895 56.0841 15.5216C56.2942 16.9909 56.3992 18.5424 56.3992 20.1907V20.6084C56.3992 21.6899 56.4142 22.6745 56.4517 23.5472L56.5042 26.5381C56.5042 36.6074 54.1483 41.642 49.4365 41.642C48.5212 41.642 47.6808 41.3511 46.908 40.7768L46.893 40.7693ZM50.9521 38.6734C51.4773 38.1662 51.8825 37.4726 52.1676 36.5999C52.8353 34.8173 53.2405 32.8929 53.383 30.8343C53.5556 29.0517 53.6456 27.5152 53.6456 26.2174C53.6456 24.6436 53.5256 22.585 53.278 20.0266C53.0679 17.334 52.9629 15.3277 52.9629 13.9925V13.0527C52.8953 11.7251 52.4452 10.569 51.6199 9.59191C50.7945 8.61482 49.7817 8.12254 48.5887 8.12254C47.3957 8.12254 46.6004 8.80128 46.2178 10.1662C45.8651 11.2477 45.6926 12.65 45.6926 14.358C45.6926 15.0218 45.7076 15.5813 45.7451 16.0362V17.4534L45.6401 19.8626C45.5725 20.5935 45.535 21.399 45.535 22.2717C45.535 24.1588 45.5875 26.0309 45.6926 27.8807C45.8351 30.4987 46.1878 33.057 46.7505 35.5333C47.3132 38.1215 48.1385 39.4118 49.2264 39.4118C49.8567 39.4118 50.4419 39.1582 50.9671 38.651L50.9521 38.6734Z" fill="#CFE4BA"/>
<path d="M75.6891 40.456C75.479 40.2323 75.3215 39.837 75.2164 39.2776L74.9013 38.2781V38.017C74.9013 36.8609 73.6934 32.9302 71.2849 26.2174C68.8765 19.5045 66.9858 14.5445 65.6128 11.3223V37.6963L65.8228 38.0618C65.8604 38.1289 65.9279 38.2557 66.0329 38.4273C66.138 38.6063 66.1905 38.7778 66.1905 38.9494C66.1905 39.4044 66.0329 39.7848 65.7178 40.1055C65.4027 40.4262 65.0125 40.5754 64.5548 40.5754C63.4294 40.5754 62.8667 39.5088 62.8667 37.3756L62.8142 28.4102C62.7767 25.7176 62.7617 22.7118 62.7617 19.3926C62.7617 18.2738 62.8142 16.6478 62.9192 14.5146C63.0243 12.3143 63.0768 10.6883 63.0768 9.63665C63.0768 7.99573 63.707 6.69792 64.975 5.75812V6.07138C65.1851 6.00426 65.3276 5.96696 65.3952 5.96696C66.2055 5.96696 67.2259 7.36174 68.4563 10.1588C69.4392 12.3964 70.3321 14.7533 71.1199 17.2371C71.9077 19.7208 72.9581 23.2488 74.2561 27.8284L74.7813 29.7155C75.5916 32.5498 76.2068 34.5786 76.627 35.7943C77.3323 28.276 77.6849 19.4001 77.6849 9.15929V8.48055C77.6474 8.2717 77.6324 8.04048 77.6324 7.8018C77.6324 6.75013 78.0525 6.22802 78.9004 6.22802C79.3956 6.22802 79.7707 6.42194 80.0333 6.80234C80.2959 7.19019 80.431 7.67501 80.431 8.2717V12.2024C80.3634 17.5876 80.1458 23.4203 79.8007 29.7155C79.4481 36.0106 79.0279 39.5535 78.5327 40.3591C77.5123 40.635 76.8821 40.7768 76.6345 40.7768C76.2143 40.7768 75.8992 40.6649 75.6891 40.4337V40.456Z" fill="#CFE4BA"/>
<path d="M98.3703 40.6873C97.7701 40.5157 97.47 40.0234 97.47 39.2179V8.75652C97.47 8.15982 97.365 7.27223 97.1549 6.07884C96.9073 4.99733 96.7872 4.10228 96.7872 3.40116V3.24453C97.3875 2.26744 97.8226 1.63345 98.1077 1.35748C98.6029 1.35748 99.2482 1.29035 100.058 1.14863C100.794 1.00692 101.447 0.939789 102.009 0.939789C102.572 0.939789 103.12 1.10388 103.645 1.43952C104.17 1.77516 104.433 2.16302 104.433 2.618C104.433 3.66968 103.622 4.19179 102.009 4.19179H101.274C101.064 4.15449 100.816 4.13958 100.539 4.13958C100.224 4.13958 100.028 4.15449 99.9609 4.19179C99.9609 5.37772 100.028 6.81725 100.171 8.488L100.276 9.95737L100.381 12.8439C100.381 13.5077 100.329 14.5221 100.224 15.887L100.119 18.8258L100.854 18.6691C101.559 18.4603 102.137 18.3559 102.594 18.3559C102.977 18.3559 103.33 18.5051 103.652 18.8034C103.967 19.1017 104.125 19.4448 104.125 19.8252C104.125 20.2429 103.99 20.6233 103.727 20.9515C103.465 21.2872 103.142 21.4512 102.752 21.4512L102.122 21.399H101.439C100.914 21.399 100.539 21.5258 100.329 21.7645V37.9648L103.285 37.8082C105.288 37.8082 106.293 38.2632 106.293 39.1731V39.382C106.083 39.7997 105.693 40.1428 105.13 40.4038C104.568 40.6649 104.02 40.829 103.495 40.9036L101.754 40.9558H100.119C99.4508 40.9558 98.873 40.8663 98.3778 40.6947L98.3703 40.6873Z" fill="#CFE4BA"/>
<path d="M125.268 40.456C125.058 40.2323 124.901 39.837 124.795 39.2776L124.48 38.2781V38.017C124.48 36.8609 123.272 32.9302 120.864 26.2174C118.456 19.5045 116.565 14.5445 115.192 11.3223V37.6963L115.402 38.0618C115.439 38.1289 115.507 38.2557 115.612 38.4273C115.717 38.6063 115.77 38.7778 115.77 38.9494C115.77 39.4044 115.612 39.7848 115.297 40.1055C114.982 40.4262 114.592 40.5754 114.134 40.5754C113.008 40.5754 112.446 39.5088 112.446 37.3756L112.393 28.4102C112.356 25.7176 112.341 22.7118 112.341 19.3926C112.341 18.2738 112.393 16.6478 112.498 14.5146C112.603 12.3143 112.656 10.6883 112.656 9.63665C112.656 7.99573 113.286 6.69792 114.554 5.75812V6.07138C114.764 6.00426 114.907 5.96696 114.974 5.96696C115.785 5.96696 116.805 7.36174 118.035 10.1588C119.018 12.3964 119.911 14.7533 120.699 17.2371C121.487 19.7208 122.537 23.2488 123.835 27.8284L124.36 29.7155C125.171 32.5498 125.786 34.5786 126.206 35.7943C126.911 28.276 127.264 19.4001 127.264 9.15929V8.48055C127.226 8.2717 127.211 8.04048 127.211 7.8018C127.211 6.75013 127.632 6.22802 128.479 6.22802C128.975 6.22802 129.35 6.42194 129.612 6.80234C129.875 7.19019 130.01 7.67501 130.01 8.2717V12.2024C129.942 17.5876 129.725 23.4203 129.38 29.7155C129.027 36.0106 128.607 39.5535 128.112 40.3591C127.091 40.635 126.461 40.7768 126.214 40.7768C125.793 40.7768 125.478 40.6649 125.268 40.4337V40.456Z" fill="#CFE4BA"/>
<path d="M138.271 40.8439C137.903 40.5306 137.7 40.1428 137.663 39.6878V37.2786C137.625 36.9654 137.61 36.5999 137.61 36.1747C137.61 35.4438 137.558 34.325 137.453 32.8183L137.348 29.4619C137.348 27.7464 137.4 25.1955 137.505 21.8093C137.648 18.7661 137.715 16.2152 137.715 14.1566C137.715 13.6643 137.663 12.9334 137.558 11.9563C137.453 10.9419 137.4 10.211 137.4 9.75598C137.4 7.27223 138.136 6.03409 139.614 6.03409C140.777 6.03409 142.12 6.26531 143.65 6.71283C145.181 7.16781 145.946 7.7123 145.946 8.33883C145.946 8.68939 145.796 9.01011 145.496 9.30846C145.196 9.60681 144.836 9.84549 144.416 10.017C142.937 9.49493 141.602 9.14437 140.409 8.96536C140.447 9.48747 140.462 10.2408 140.462 11.2179C140.462 12.6127 140.447 13.8732 140.409 14.992C140.304 16.6702 140.251 17.9307 140.251 18.7661L140.409 19.6089L141.249 19.5567C141.527 19.5194 141.88 19.5045 142.307 19.5045C143.995 19.5045 144.836 19.9968 144.836 20.9739C144.836 21.3617 144.678 21.6825 144.363 21.9435C144.048 22.2046 143.643 22.3388 143.148 22.3388C142.517 22.3388 142.022 22.3015 141.67 22.2344H140.349C140.417 23.1444 140.454 24.472 140.454 26.2174C140.454 27.9627 140.439 29.5365 140.402 30.9387C140.296 33.0719 140.244 34.6606 140.244 35.7123C140.244 37.6739 140.281 38.651 140.349 38.651L142.09 38.5988C142.69 38.5615 143.41 38.5466 144.25 38.5466C145.586 38.5466 146.254 38.9643 146.254 39.8071C146.254 40.2994 146.036 40.6723 145.594 40.9334C145.151 41.1945 144.618 41.3287 143.988 41.3287H139.501C139.043 41.3287 138.631 41.1721 138.263 40.8588L138.271 40.8439Z" fill="#CFE4BA"/>
<path d="M159.181 39.0091C158.446 37.1891 157.898 35.3245 157.546 33.4001L157.178 31.6175C156.158 26.6201 155.505 23.7709 155.227 23.0698H154.597C154.597 24.0842 154.582 25.0091 154.544 25.8519V28.7384C154.544 33.4225 154.875 37.0773 155.55 39.6953L154.972 41.1124H153.494L152.811 40.3293L152.864 36.8162C152.864 33.6686 152.706 28.9025 152.391 22.5029C152.106 15.6857 151.971 10.9121 151.971 8.18967C151.971 6.51146 152.549 5.67609 153.712 5.67609C155.61 5.67609 157.163 6.16836 158.378 7.14545C159.594 8.12254 160.202 9.48749 160.202 11.2328V14.9025C160.202 15.4246 160.112 16.0288 159.939 16.715C159.759 17.3937 159.571 17.9457 159.361 18.3634L158.356 20.2504L157.516 21.8242L157.778 23.0847L158.513 26.8066C159.009 29.4992 159.481 31.6846 159.939 33.3628C160.397 35.041 160.959 36.5626 161.627 37.9276L161.942 38.5541C162.295 39.2552 162.467 39.8146 162.467 40.2323C162.467 40.5829 162.362 40.8887 162.152 41.1497C161.942 41.4108 161.657 41.545 161.312 41.545C160.539 41.545 159.834 40.7022 159.204 39.0314L159.181 39.0091ZM156.78 17.3266C157.328 15.5962 157.598 14 157.598 12.5306C157.598 11.4118 157.456 10.3602 157.178 9.38307C156.998 8.82366 156.713 8.39852 156.308 8.10017C155.902 7.80182 155.4 7.65264 154.807 7.65264L154.702 7.9137L154.597 8.3836L154.702 14.5743C154.77 16.3943 154.807 18.3708 154.807 20.4965C155.58 20.1087 156.24 19.057 156.788 17.3266H156.78Z" fill="#CFE4BA"/>
<path d="M171.786 40.5082C170.976 40.1428 170.293 39.658 169.73 39.0687C169.273 38.5764 168.852 37.8604 168.462 36.9206C168.072 35.9808 167.795 35.0708 167.614 34.1907C167.434 33.5269 167.299 32.5647 167.194 31.3042C167.089 30.0437 167.014 28.9622 166.984 28.0522V22.9131C166.984 20.8844 167.022 19.2285 167.089 17.9307C167.157 16.3569 167.389 14.7011 167.772 12.9483C168.087 11.3745 168.635 9.99466 169.408 8.80872C170.143 7.62279 171.186 6.80233 172.521 6.34735C173.152 6.10121 173.894 5.98187 174.735 5.98187C176.243 5.98187 177.001 6.42194 177.001 7.29461C177.001 7.71229 176.836 8.05539 176.498 8.31645C176.16 8.5775 175.77 8.71176 175.312 8.71176C175.102 8.71176 174.907 8.69684 174.735 8.65955C174.592 8.62226 174.42 8.60734 174.21 8.60734C173.609 8.60734 173.084 8.9206 172.626 9.5546C172.169 10.1811 171.779 11.0613 171.463 12.1801C170.901 14.3505 170.511 16.7075 170.3 19.2584C170.158 21.6377 170.09 23.398 170.09 24.5541C170.09 25.7102 170.143 27.366 170.248 29.4321C170.391 31.3564 170.691 33.0346 171.148 34.4667C171.396 35.3095 171.681 35.9808 172.019 36.488C172.349 36.9952 172.784 37.4203 173.309 37.7709C173.909 38.1588 174.525 38.3452 175.155 38.3452C176.843 38.3452 177.683 35.5482 177.683 29.9542V27.545C177.436 27.4406 177.031 27.3884 176.468 27.3884H175.41C174.179 27.3884 173.564 26.9856 173.564 26.1801C173.564 25.6878 173.729 25.3149 174.067 25.0538C174.405 24.7927 174.832 24.6585 175.357 24.6585V24.7107H176.093C179.259 24.7107 180.842 25.2552 180.842 26.3367C180.842 26.65 180.752 27.2765 180.579 28.2237C180.369 29.0591 180.264 29.6931 180.264 30.1108C180.264 30.7075 180.317 31.6324 180.422 32.8929L180.527 35.675C180.527 37.3532 179.942 38.6734 178.764 39.6356C177.586 40.5978 176.153 41.0751 174.465 41.0751C173.482 41.0751 172.581 40.8886 171.771 40.5232L171.786 40.5082Z" fill="#CFE4BA"/>
<path d="M188.72 40.2174C189.103 39.4864 189.298 36.5104 189.298 31.3042C189.298 30.081 189.208 28.7533 189.035 27.3213L188.878 25.7997C188.773 24.8524 188.72 24.1364 188.72 23.6516V22.2866C188.367 21.414 187.73 19.788 186.792 17.4086C185.861 15.0293 185.111 13.0378 184.548 11.4342C183.881 9.58444 183.543 8.32392 183.543 7.6601V7.39904L184.759 6.50399C185.359 6.57112 185.989 7.34683 186.657 8.80874C187.22 10.0991 187.842 11.9563 188.533 14.3655C189.215 16.7746 189.56 18.0575 189.56 18.1918C189.703 17.8039 189.981 16.4987 190.408 14.2611C190.828 12.0234 191.309 10.0469 191.834 8.33884C192.434 6.62333 193.049 5.77304 193.679 5.77304C194.032 5.77304 194.34 5.87746 194.602 6.08631C194.865 6.29515 195 6.55621 195 6.86947C195 8.6521 194.505 11.1657 193.522 14.4177C192.464 17.9457 191.939 20.4965 191.939 22.0703V37.853C191.939 40.195 191.361 41.366 190.198 41.366C189.598 41.366 189.11 40.9782 188.72 40.2099V40.2174Z" fill="#CFE4BA"/>
</g>
<defs>
<clipPath id="clip0_42_1900">
<rect width="195" height="42" fill="white"/>
</clipPath>
</defs>
</svg>
