<svg width="213" height="100" viewBox="0 0 213 100" fill="none" xmlns="http://www.w3.org/2000/svg">
<g clip-path="url(#clip0_72_365)">
<path d="M66.0611 3.60896C66.4795 3.60896 66.8187 3.26976 66.8187 2.85133C66.8187 2.43289 66.4795 2.09369 66.0611 2.09369C65.6427 2.09369 65.3035 2.43289 65.3035 2.85133C65.3035 3.26976 65.6427 3.60896 66.0611 3.60896Z" fill="#CFE4BA"/>
<path d="M63.1039 43.8289C63.5223 43.8289 63.8615 43.4897 63.8615 43.0712C63.8615 42.6528 63.5223 42.3136 63.1039 42.3136C62.6855 42.3136 62.3463 42.6528 62.3463 43.0712C62.3463 43.4897 62.6855 43.8289 63.1039 43.8289Z" fill="#CFE4BA"/>
<path d="M44.8065 22.6965C45.225 22.6965 45.5642 22.3573 45.5642 21.9389C45.5642 21.5205 45.225 21.1813 44.8065 21.1813C44.3881 21.1813 44.0489 21.5205 44.0489 21.9389C44.0489 22.3573 44.3881 22.6965 44.8065 22.6965Z" fill="#CFE4BA"/>
<path d="M125.181 13.1649C125.6 13.1649 125.939 12.8257 125.939 12.4073C125.939 11.9889 125.6 11.6497 125.181 11.6497C124.763 11.6497 124.424 11.9889 124.424 12.4073C124.424 12.8257 124.763 13.1649 125.181 13.1649Z" fill="#CFE4BA"/>
<path d="M194.656 45.1812C194.908 45.1812 195.112 44.977 195.112 44.725C195.112 44.4731 194.908 44.2688 194.656 44.2688C194.404 44.2688 194.2 44.4731 194.2 44.725C194.2 44.977 194.404 45.1812 194.656 45.1812Z" fill="#CFE4BA"/>
<path d="M182.305 21.7923C182.557 21.7923 182.762 21.5881 182.762 21.3361C182.762 21.0841 182.557 20.8799 182.305 20.8799C182.053 20.8799 181.849 21.0841 181.849 21.3361C181.849 21.5881 182.053 21.7923 182.305 21.7923Z" fill="#CFE4BA"/>
<path d="M147.495 48.5295C147.747 48.5295 147.951 48.3252 147.951 48.0733C147.951 47.8213 147.747 47.6171 147.495 47.6171C147.243 47.6171 147.039 47.8213 147.039 48.0733C147.039 48.3252 147.243 48.5295 147.495 48.5295Z" fill="#CFE4BA"/>
<path d="M99.5112 0.912424C99.7632 0.912424 99.9674 0.708171 99.9674 0.456212C99.9674 0.204253 99.7632 0 99.5112 0C99.2592 0 99.055 0.204253 99.055 0.456212C99.055 0.708171 99.2592 0.912424 99.5112 0.912424Z" fill="#CFE4BA"/>
<path d="M157.703 24.6029C157.955 24.6029 158.159 24.3986 158.159 24.1466C158.159 23.8947 157.955 23.6904 157.703 23.6904C157.451 23.6904 157.246 23.8947 157.246 24.1466C157.246 24.3986 157.451 24.6029 157.703 24.6029Z" fill="#CFE4BA"/>
<path d="M151.185 72.668C151.437 72.668 151.642 72.4638 151.642 72.2118C151.642 71.9599 151.437 71.7556 151.185 71.7556C150.933 71.7556 150.729 71.9599 150.729 72.2118C150.729 72.4638 150.933 72.668 151.185 72.668Z" fill="#CFE4BA"/>
<path d="M69.3849 26.2321C69.6369 26.2321 69.8411 26.0279 69.8411 25.7759C69.8411 25.524 69.6369 25.3197 69.3849 25.3197C69.133 25.3197 68.9287 25.524 68.9287 25.7759C68.9287 26.0279 69.133 26.2321 69.3849 26.2321Z" fill="#CFE4BA"/>
<path d="M28.7902 24.2037C29.0422 24.2037 29.2464 23.9994 29.2464 23.7475C29.2464 23.4955 29.0422 23.2913 28.7902 23.2913C28.5382 23.2913 28.334 23.4955 28.334 23.7475C28.334 23.9994 28.5382 24.2037 28.7902 24.2037Z" fill="#CFE4BA"/>
<path d="M59.5356 70.8594C59.7876 70.8594 59.9918 70.6552 59.9918 70.4032C59.9918 70.1513 59.7876 69.947 59.5356 69.947C59.2837 69.947 59.0794 70.1513 59.0794 70.4032C59.0794 70.6552 59.2837 70.8594 59.5356 70.8594Z" fill="#CFE4BA"/>
<path d="M92.1222 93.6701C92.3742 93.6701 92.5784 93.4659 92.5784 93.2139C92.5784 92.9619 92.3742 92.7577 92.1222 92.7577C91.8703 92.7577 91.666 92.9619 91.666 93.2139C91.666 93.4659 91.8703 93.6701 92.1222 93.6701Z" fill="#CFE4BA"/>
<path d="M61.6538 93.9797C61.9057 93.9797 62.11 93.7754 62.11 93.5235C62.11 93.2715 61.9057 93.0673 61.6538 93.0673C61.4018 93.0673 61.1976 93.2715 61.1976 93.5235C61.1976 93.7754 61.4018 93.9797 61.6538 93.9797Z" fill="#CFE4BA"/>
<path d="M178.827 65.2954C179.079 65.2954 179.283 65.0911 179.283 64.8391C179.283 64.5872 179.079 64.3829 178.827 64.3829C178.575 64.3829 178.371 64.5872 178.371 64.8391C178.371 65.0911 178.575 65.2954 178.827 65.2954Z" fill="#CFE4BA"/>
<path d="M175.585 90.5581C175.836 90.5581 176.041 90.3538 176.041 90.1018C176.041 89.8499 175.836 89.6456 175.585 89.6456C175.333 89.6456 175.128 89.8499 175.128 90.1018C175.128 90.3538 175.333 90.5581 175.585 90.5581Z" fill="#CFE4BA"/>
<path d="M97.2872 7.57637C97.7056 7.57637 98.0448 7.23717 98.0448 6.81873C98.0448 6.4003 97.7056 6.0611 97.2872 6.0611C96.8687 6.0611 96.5295 6.4003 96.5295 6.81873C96.5295 7.23717 96.8687 7.57637 97.2872 7.57637Z" fill="#CFE4BA"/>
<path d="M102.077 100.008C102.496 100.008 102.835 99.669 102.835 99.2506C102.835 98.8321 102.496 98.4929 102.077 98.4929C101.659 98.4929 101.32 98.8321 101.32 99.2506C101.32 99.669 101.659 100.008 102.077 100.008Z" fill="#CFE4BA"/>
<path d="M211.666 55.7801C211.918 55.7801 212.122 55.5759 212.122 55.3239C212.122 55.0719 211.918 54.8677 211.666 54.8677C211.414 54.8677 211.21 55.0719 211.21 55.3239C211.21 55.5759 211.414 55.7801 211.666 55.7801Z" fill="#CFE4BA"/>
<path d="M37.3279 49.2628C37.5799 49.2628 37.7841 49.0585 37.7841 48.8066C37.7841 48.5546 37.5799 48.3503 37.3279 48.3503C37.076 48.3503 36.8717 48.5546 36.8717 48.8066C36.8717 49.0585 37.076 49.2628 37.3279 49.2628Z" fill="#CFE4BA"/>
<path d="M205.442 66.8106C205.86 66.8106 206.2 66.4714 206.2 66.0529C206.2 65.6345 205.86 65.2953 205.442 65.2953C205.024 65.2953 204.684 65.6345 204.684 66.0529C204.684 66.4714 205.024 66.8106 205.442 66.8106Z" fill="#CFE4BA"/>
<path d="M0.456212 38.7617C0.708171 38.7617 0.912424 38.5574 0.912424 38.3055C0.912424 38.0535 0.708171 37.8492 0.456212 37.8492C0.204253 37.8492 0 38.0535 0 38.3055C0 38.5574 0.204253 38.7617 0.456212 38.7617Z" fill="#CFE4BA"/>
<path d="M15.2179 40.3666C15.6363 40.3666 15.9755 40.0274 15.9755 39.609C15.9755 39.1905 15.6363 38.8513 15.2179 38.8513C14.7995 38.8513 14.4603 39.1905 14.4603 39.609C14.4603 40.0274 14.7995 40.3666 15.2179 40.3666Z" fill="#CFE4BA"/>
<path d="M154.982 3.07131C155.4 3.07131 155.739 2.7321 155.739 2.31367C155.739 1.89524 155.4 1.55603 154.982 1.55603C154.563 1.55603 154.224 1.89524 154.224 2.31367C154.224 2.7321 154.563 3.07131 154.982 3.07131Z" fill="#CFE4BA"/>
<path d="M163.78 44.4318C164.198 44.4318 164.538 44.0926 164.538 43.6741C164.538 43.2557 164.198 42.9165 163.78 42.9165C163.362 42.9165 163.022 43.2557 163.022 43.6741C163.022 44.0926 163.362 44.4318 163.78 44.4318Z" fill="#CFE4BA"/>
<path d="M165.189 87.7963C165.608 87.7963 165.947 87.4571 165.947 87.0386C165.947 86.6202 165.608 86.281 165.189 86.281C164.771 86.281 164.432 86.6202 164.432 87.0386C164.432 87.4571 164.771 87.7963 165.189 87.7963Z" fill="#CFE4BA"/>
<path d="M46.2648 72.0652C46.6832 72.0652 47.0224 71.726 47.0224 71.3076C47.0224 70.8891 46.6832 70.5499 46.2648 70.5499C45.8463 70.5499 45.5071 70.8891 45.5071 71.3076C45.5071 71.726 45.8463 72.0652 46.2648 72.0652Z" fill="#CFE4BA"/>
<path d="M132.236 92.3666C132.655 92.3666 132.994 92.0274 132.994 91.609C132.994 91.1905 132.655 90.8513 132.236 90.8513C131.818 90.8513 131.479 91.1905 131.479 91.609C131.479 92.0274 131.818 92.3666 132.236 92.3666Z" fill="#CFE4BA"/>
<path d="M18.0285 65.0672C18.4469 65.0672 18.7861 64.7279 18.7861 64.3095C18.7861 63.8911 18.4469 63.5519 18.0285 63.5519C17.6101 63.5519 17.2709 63.8911 17.2709 64.3095C17.2709 64.7279 17.6101 65.0672 18.0285 65.0672Z" fill="#CFE4BA"/>
</g>
<g clip-path="url(#clip1_72_365)">
<path d="M107.671 25.5874C100.084 31.1888 95.1608 40.1958 95.1608 50.3496C95.1608 60.5035 99.7203 68.8182 106.818 74.4545C119.958 74.021 130.476 63.2447 130.476 50C130.476 36.7552 120.406 26.4475 107.671 25.5874Z" fill="#CFE4BA"/>
<path d="M106 74.4756C119.517 74.4756 130.476 63.5175 130.476 50.0001C130.476 36.4826 119.517 25.5245 106 25.5245C92.4825 25.5245 81.5245 36.4826 81.5245 50.0001C81.5245 63.5175 92.4825 74.4756 106 74.4756Z" stroke="#CFE4BA" stroke-width="1.5" stroke-miterlimit="10"/>
</g>
<defs>
<clipPath id="clip0_72_365">
<rect width="212.122" height="100" fill="white"/>
</clipPath>
<clipPath id="clip1_72_365">
<rect width="50" height="50" fill="white" transform="translate(81 25)"/>
</clipPath>
</defs>
</svg>
