<?xml version="1.0" encoding="utf-8"?>
<!-- Generator: Adobe Illustrator 27.9.0, SVG Export Plug-In . SVG Version: 6.00 Build 0)  -->
<svg version="1.1" id="Belier" xmlns="http://www.w3.org/2000/svg" xmlns:xlink="http://www.w3.org/1999/xlink" x="0px" y="0px"
	 viewBox="0 0 32 32" style="enable-background:new 0 0 32 32;" xml:space="preserve">
<style type="text/css">
	.st0{fill:#FFFFFF;}
</style>
<path class="st0" d="M7,3.4C4.9,3.5,3,4.9,1.8,7.2C1.5,7.9,1.8,8.7,2.4,9c0.7,0.3,1.5,0,1.8-0.6l0,0c0.8-1.8,2-2.3,3-2.3
	c1,0.1,2.2,0.8,3,2.8c2.5,6.3,4.2,18.7,4.2,18.8c0,0.4,0.3,0.8,0.6,1c0,0,0.1,0,0.1,0.1c0,0,0.1,0,0.1,0.1l0,0h0.1l0,0h0.1l0,0
	c0,0,0,0,0.1,0h0.1l0,0h0.1c0,0,0,0,0.1,0c0,0,0,0,0.1,0c0,0,0,0,0.1,0c0,0,0,0,0.1,0l0,0h0.1c0.1,0,0.2-0.1,0.2-0.1
	c0.3-0.2,0.6-0.6,0.6-1c0-0.1,1.7-12.5,4.2-18.8c0.8-2,2-2.8,3-2.8c1-0.1,2.2,0.5,3,2.3c0.3,0.7,1.1,1,1.8,0.6
	c0.7-0.3,1-1.1,0.6-1.8l0,0c-1.2-2.5-3.3-3.9-5.6-3.8c-2,0.1-4.1,1.8-5.1,4.5c-1.3,3.2-2.3,7.6-3,11.4c-0.7-3.8-1.7-8.2-3-11.4
	c-1.1-2.7-3.1-4.4-5.4-4.5C7.3,3.4,7.1,3.4,7,3.4z"/>
</svg>
