<?xml version="1.0" encoding="utf-8"?>
<!-- Generator: Adobe Illustrator 27.9.0, SVG Export Plug-In . SVG Version: 6.00 Build 0)  -->
<svg version="1.1" id="Cancer" xmlns="http://www.w3.org/2000/svg" xmlns:xlink="http://www.w3.org/1999/xlink" x="0px" y="0px"
	 viewBox="0 0 32 32" style="enable-background:new 0 0 32 32;" xml:space="preserve">
<style type="text/css">
	.st0{fill:url(#SVGID_1_);}
</style>
<linearGradient id="SVGID_1_" gradientUnits="userSpaceOnUse" x1="2.3679" y1="16.2243" x2="29.258" y2="16.2243">
	<stop  offset="0" style="stop-color:#4FBCDD"/>
	<stop  offset="1" style="stop-color:#89CFE7"/>
</linearGradient>
<path class="st0" d="M15.9,4.8C10.8,4.8,6.3,6.4,4,9.3c-0.5,0.6-0.4,1.4,0.2,1.9s1.4,0.4,1.9-0.2c1.5-1.9,5.3-3.5,9.8-3.5
	c1.7,0,3.3,0.2,4.7,0.6c-2,1-3.4,3.1-3.4,5.4c0,3.3,2.7,6.1,6.1,6.1s6.1-2.7,6.1-6.1c0-0.1,0-0.1,0-0.2c0-0.1,0-0.1,0-0.2
	c0-2.6-1.8-4.7-4.2-6.2C22.6,5.6,19.4,4.8,15.9,4.8z M23.2,10.2c1.9,0,3.4,1.5,3.4,3.4s-1.5,3.4-3.4,3.4s-3.4-1.5-3.4-3.4
	S21.3,10.2,23.2,10.2z M8.4,12.9c-3.3,0-6.1,2.7-6.1,6.1c0,0.1,0,0.1,0,0.2c0,0.1,0,0.1,0,0.2c0,2.6,1.8,4.7,4.2,6.2
	s5.6,2.3,9.2,2.3c5.1,0,9.6-1.6,11.9-4.5c0.5-0.6,0.4-1.4-0.2-1.9c-0.6-0.5-1.4-0.4-1.9,0.2l0,0C24,23.3,20.2,25,15.7,25
	c-1.7,0-3.3-0.2-4.7-0.6c2-1,3.4-3.1,3.4-5.4C14.5,15.6,11.7,12.9,8.4,12.9z M8.4,15.6c1.9,0,3.4,1.5,3.4,3.4s-1.5,3.4-3.4,3.4
	s-3.4-1.5-3.4-3.4S6.5,15.6,8.4,15.6z"/>
</svg>
