<?xml version="1.0" encoding="utf-8"?>
<!-- Generator: Adobe Illustrator 27.9.0, SVG Export Plug-In . SVG Version: 6.00 Build 0)  -->
<svg version="1.1" id="Capricorne" xmlns="http://www.w3.org/2000/svg" xmlns:xlink="http://www.w3.org/1999/xlink" x="0px" y="0px"
	 viewBox="0 0 32 32" style="enable-background:new 0 0 32 32;" xml:space="preserve">
<style type="text/css">
	.st0{fill:#FFFFFF;}
</style>
<path class="st0" d="M3,2.1c-0.7,0-1.3,0.6-1.3,1.4c0,0.6,0.4,1,0.9,1.2C3.9,5.2,5.1,6.6,5.1,8v1.5v6.1v8.1c0,0.7,0.6,1.4,1.3,1.4
	s1.4-0.6,1.4-1.3l0,0v-8.1V9.5c0-2.6,2.1-4.7,4.7-4.7s4.7,2.1,4.7,4.7v8.7c0,0.1,0,0.2,0,0.2v2.3c0,1.9,0.9,3.7,2.4,4.8
	c-0.2,0.4-0.6,0.8-1.1,1.2c-0.8,0.5-1.7,0.9-2.4,0.9h-1.5c-0.7,0-1.4,0.6-1.4,1.3c0,0.7,0.6,1.4,1.3,1.4l0,0H16c1.4,0,2.8-0.5,4-1.4
	c0.8-0.6,1.5-1.3,2-2.2c0.5,0.1,1,0.2,1.5,0.2c3.4,0,6.4-2.4,6.4-5.5c0,0,0,0,0-0.1v-0.1c0-2.4-2-4.4-4.4-4.4
	c-1.1,0-2.3,0.4-3.3,1.2s-1.7,2.2-1.9,3.9l-0.1,0.3c-0.2-0.5-0.4-1-0.4-1.5v-2.3c0-0.1,0-0.2,0-0.3V9.5c0-4.1-3.3-7.4-7.4-7.4
	c-2.3,0-4.3,1.1-5.7,2.8C6,3.7,4.9,2.7,3.5,2.2C3.4,2.1,3.2,2.1,3,2.1z M25.6,19.6c0.9,0,1.7,0.7,1.7,1.7c0,0,0,0,0,0.1v0.1
	c0,1.5-1.5,2.9-3.7,2.9c-0.3,0-0.6,0-0.9-0.1l0.3-1.8l0,0c0.2-1.2,0.6-1.9,1-2.2C24.5,19.7,25,19.6,25.6,19.6z"/>
</svg>
