<?xml version="1.0" encoding="utf-8"?>
<!-- Generator: Adobe Illustrator 27.1.1, SVG Export Plug-In . SVG Version: 6.00 Build 0)  -->
<svg version="1.1" id="Layer_5" xmlns="http://www.w3.org/2000/svg" xmlns:xlink="http://www.w3.org/1999/xlink" x="0px" y="0px"
	 viewBox="0 0 24 24" style="enable-background:new 0 0 24 24;" xml:space="preserve">
<style type="text/css">
	.st0{fill:url(#SVGID_1_);}
</style>
<linearGradient id="SVGID_1_" gradientUnits="userSpaceOnUse" x1="2.104" y1="12.0396" x2="21.896" y2="12.0396">
	<stop  offset="0" style="stop-color:#84CAE5"/>
	<stop  offset="1" style="stop-color:#91D6EB"/>
</linearGradient>
<path class="st0" d="M12.85,12.04l8.87-8.87c0.23-0.23,0.23-0.61,0-0.85s-0.61-0.23-0.85,0L12,11.19L3.13,2.32
	c-0.23-0.23-0.61-0.23-0.85,0s-0.23,0.61,0,0.85l8.87,8.87l-8.87,8.87c-0.23,0.23-0.23,0.61,0,0.85c0.12,0.12,0.27,0.18,0.42,0.18
	s0.31-0.06,0.42-0.18L12,12.89l8.87,8.87c0.12,0.12,0.27,0.18,0.42,0.18s0.31-0.06,0.42-0.18c0.23-0.23,0.23-0.61,0-0.85
	L12.85,12.04z"/>
</svg>
