<svg width="327" height="154" viewBox="0 0 327 154" fill="none" xmlns="http://www.w3.org/2000/svg">
<path d="M221.1 78.8C220.9 79.1 220.7 79.4 220.6 79.7C219.4 81.8 218.2 84.1 216.9 86.3C223.3 87.6 227.8 89.2 227.8 89.2C227.8 89.2 220.4 92.3 212.1 99.4C204.7 105.8 196.1 114.1 186.8 112.7C200.6 119.3 214.6 107.5 226.4 98.7C238.2 89.8 248.5 86.4 248.5 86.4C248.5 86.4 235.8 80.8 221.1 78.8Z" fill="#CDE2B8"/>
<path d="M105.5 78.8C105.7 79.1 105.9 79.4 106 79.7C107.2 81.8 108.4 84.1 109.7 86.3C103.3 87.6 98.8001 89.2 98.8001 89.2C98.8001 89.2 106.2 92.3 114.5 99.4C121.9 105.8 130.5 114.1 139.8 112.7C126 119.3 112 107.5 100.2 98.7C88.4001 89.8 78.1001 86.4 78.1001 86.4C78.1001 86.4 90.8001 80.8 105.5 78.8Z" fill="#B4CA9C"/>
<path d="M88.6001 51.8999C88.6001 51.8999 98.0001 60.4999 106.6 75.7999C115.1 90.9999 124.6 110.4 142.7 109.8C132 106.9 126.6 93.8999 121.7 83.3999C116.2 71.6999 109.6 64.7999 109.6 64.7999C109.6 64.7999 151.4 67.5999 157.9 91.5999C154.4 51.6999 88.6001 51.8999 88.6001 51.8999Z" fill="#B4CA9C"/>
<path d="M185.5 76C184 76.8 182.5 77.7 181.1 78.7C181.4 84.2 180.4 89.6 177.6 94.4C182.5 88.9 184.8 82.6 185.5 76Z" fill="#CDE2B8"/>
<path d="M141.7 62.9C143.8 64.2 145.7 65.6 147.5 67.2C152.3 51.3 163.3 37.5 163.3 37.5V18C163.3 18 145.7 40 141.7 62.9Z" fill="#B4CA9C"/>
<path d="M184.9 62.9C180.9 40 163.3 18 163.3 18V37.5C163.3 37.5 174.3 51.3 179.1 67.2C180.9 65.6 182.8 64.2 184.9 62.9Z" fill="#CDE2B8"/>
<path d="M141.1 76C141.8 82.6 144.1 88.9 148.9 94.4C146.1 89.5 145.2 84.2 145.4 78.7C144.1 77.7 142.6 76.8 141.1 76Z" fill="#B4CA9C"/>
<path d="M168.8 91.7001C175.3 67.6001 217.1 64.9001 217.1 64.9001C217.1 64.9001 210.6 71.7001 205 83.5001C200.1 94.0001 194.7 107 184 109.9C202 110.4 211.6 91.0001 220.1 75.9001C228.6 60.6001 238.1 52.0001 238.1 52.0001C238.1 52.0001 172.2 51.7001 168.8 91.7001Z" fill="#CDE2B8"/>
<path d="M101.7 5.59995C102.363 5.59995 102.9 5.06269 102.9 4.39995C102.9 3.73721 102.363 3.19995 101.7 3.19995C101.037 3.19995 100.5 3.73721 100.5 4.39995C100.5 5.06269 101.037 5.59995 101.7 5.59995Z" fill="#CDE2B8"/>
<path d="M97.0999 67.5001C97.7626 67.5001 98.2999 66.9628 98.2999 66.3001C98.2999 65.6374 97.7626 65.1001 97.0999 65.1001C96.4372 65.1001 95.8999 65.6374 95.8999 66.3001C95.8999 66.9628 96.4372 67.5001 97.0999 67.5001Z" fill="#CDE2B8"/>
<path d="M69 35.0001C69.6628 35.0001 70.2001 34.4628 70.2001 33.8001C70.2001 33.1374 69.6628 32.6001 69 32.6001C68.3373 32.6001 67.8 33.1374 67.8 33.8001C67.8 34.4628 68.3373 35.0001 69 35.0001Z" fill="#CDE2B8"/>
<path d="M192.8 20.2999C193.463 20.2999 194 19.7626 194 19.0999C194 18.4372 193.463 17.8999 192.8 17.8999C192.137 17.8999 191.6 18.4372 191.6 19.0999C191.6 19.7626 192.137 20.2999 192.8 20.2999Z" fill="#CDE2B8"/>
<path d="M299.8 69.6C300.187 69.6 300.5 69.2866 300.5 68.9C300.5 68.5134 300.187 68.2 299.8 68.2C299.414 68.2 299.1 68.5134 299.1 68.9C299.1 69.2866 299.414 69.6 299.8 69.6Z" fill="#CDE2B8"/>
<path d="M280.7 33.5999C281.087 33.5999 281.4 33.2866 281.4 32.9C281.4 32.5134 281.087 32.2 280.7 32.2C280.313 32.2 280 32.5134 280 32.9C280 33.2866 280.313 33.5999 280.7 33.5999Z" fill="#CDE2B8"/>
<path d="M227.1 74.7C227.486 74.7 227.8 74.3866 227.8 74C227.8 73.6134 227.486 73.3 227.1 73.3C226.713 73.3 226.4 73.6134 226.4 74C226.4 74.3866 226.713 74.7 227.1 74.7Z" fill="#CDE2B8"/>
<path d="M153.2 1.4C153.587 1.4 153.9 1.0866 153.9 0.7C153.9 0.313401 153.587 0 153.2 0C152.813 0 152.5 0.313401 152.5 0.7C152.5 1.0866 152.813 1.4 153.2 1.4Z" fill="#CDE2B8"/>
<path d="M242.8 37.9C243.187 37.9 243.5 37.5866 243.5 37.2C243.5 36.8134 243.187 36.5 242.8 36.5C242.413 36.5 242.1 36.8134 242.1 37.2C242.1 37.5866 242.413 37.9 242.8 37.9Z" fill="#CDE2B8"/>
<path d="M232.8 111.9C233.187 111.9 233.5 111.587 233.5 111.2C233.5 110.813 233.187 110.5 232.8 110.5C232.413 110.5 232.1 110.813 232.1 111.2C232.1 111.587 232.413 111.9 232.8 111.9Z" fill="#CDE2B8"/>
<path d="M106.8 40.4C107.187 40.4 107.5 40.0866 107.5 39.7C107.5 39.3134 107.187 39 106.8 39C106.413 39 106.1 39.3134 106.1 39.7C106.1 40.0866 106.413 40.4 106.8 40.4Z" fill="#CDE2B8"/>
<path d="M44.3001 37.2999C44.6867 37.2999 45.0001 36.9865 45.0001 36.5999C45.0001 36.2133 44.6867 35.8999 44.3001 35.8999C43.9135 35.8999 43.6001 36.2133 43.6001 36.5999C43.6001 36.9865 43.9135 37.2999 44.3001 37.2999Z" fill="#CDE2B8"/>
<path d="M91.5999 109.1C91.9865 109.1 92.2999 108.787 92.2999 108.4C92.2999 108.013 91.9865 107.7 91.5999 107.7C91.2133 107.7 90.8999 108.013 90.8999 108.4C90.8999 108.787 91.2133 109.1 91.5999 109.1Z" fill="#CDE2B8"/>
<path d="M141.8 144.3C142.187 144.3 142.5 143.987 142.5 143.6C142.5 143.213 142.187 142.9 141.8 142.9C141.413 142.9 141.1 143.213 141.1 143.6C141.1 143.987 141.413 144.3 141.8 144.3Z" fill="#CDE2B8"/>
<path d="M94.8999 144.7C95.2865 144.7 95.6 144.387 95.6 144C95.6 143.613 95.2865 143.3 94.8999 143.3C94.5133 143.3 94.2 143.613 94.2 144C94.2 144.387 94.5133 144.7 94.8999 144.7Z" fill="#CDE2B8"/>
<path d="M275.4 100.6C275.787 100.6 276.1 100.287 276.1 99.9C276.1 99.5134 275.787 99.2 275.4 99.2C275.013 99.2 274.7 99.5134 274.7 99.9C274.7 100.287 275.013 100.6 275.4 100.6Z" fill="#CDE2B8"/>
<path d="M270.4 139.5C270.787 139.5 271.1 139.187 271.1 138.8C271.1 138.413 270.787 138.1 270.4 138.1C270.013 138.1 269.7 138.413 269.7 138.8C269.7 139.187 270.013 139.5 270.4 139.5Z" fill="#CDE2B8"/>
<path d="M149.8 11.7C150.463 11.7 151 11.1628 151 10.5C151 9.83731 150.463 9.30005 149.8 9.30005C149.137 9.30005 148.6 9.83731 148.6 10.5C148.6 11.1628 149.137 11.7 149.8 11.7Z" fill="#CDE2B8"/>
<path d="M157.2 154C157.863 154 158.4 153.463 158.4 152.8C158.4 152.137 157.863 151.6 157.2 151.6C156.537 151.6 156 152.137 156 152.8C156 153.463 156.537 154 157.2 154Z" fill="#CDE2B8"/>
<path d="M325.9 85.9C326.287 85.9 326.6 85.5866 326.6 85.2C326.6 84.8134 326.287 84.5 325.9 84.5C325.513 84.5 325.2 84.8134 325.2 85.2C325.2 85.5866 325.513 85.9 325.9 85.9Z" fill="#CDE2B8"/>
<path d="M57.3999 75.9C57.7865 75.9 58.0999 75.5866 58.0999 75.2C58.0999 74.8134 57.7865 74.5 57.3999 74.5C57.0133 74.5 56.7 74.8134 56.7 75.2C56.7 75.5866 57.0133 75.9 57.3999 75.9Z" fill="#CDE2B8"/>
<path d="M316.4 102.9C317.063 102.9 317.6 102.363 317.6 101.7C317.6 101.037 317.063 100.5 316.4 100.5C315.737 100.5 315.2 101.037 315.2 101.7C315.2 102.363 315.737 102.9 316.4 102.9Z" fill="#CDE2B8"/>
<path d="M0.7 59.7001C1.0866 59.7001 1.4 59.3866 1.4 59C1.4 58.6135 1.0866 58.3 0.7 58.3C0.313401 58.3 0 58.6135 0 59C0 59.3866 0.313401 59.7001 0.7 59.7001Z" fill="#CDE2B8"/>
<path d="M23.4 62.2C24.0627 62.2 24.6 61.6628 24.6 61C24.6 60.3373 24.0627 59.8 23.4 59.8C22.7372 59.8 22.2 60.3373 22.2 61C22.2 61.6628 22.7372 62.2 23.4 62.2Z" fill="#CDE2B8"/>
<path d="M238.6 4.7999C239.263 4.7999 239.8 4.26264 239.8 3.5999C239.8 2.93716 239.263 2.3999 238.6 2.3999C237.937 2.3999 237.4 2.93716 237.4 3.5999C237.4 4.26264 237.937 4.7999 238.6 4.7999Z" fill="#CDE2B8"/>
<path d="M252.2 68.5001C252.863 68.5001 253.4 67.9628 253.4 67.3001C253.4 66.6374 252.863 66.1001 252.2 66.1001C251.537 66.1001 251 66.6374 251 67.3001C251 67.9628 251.537 68.5001 252.2 68.5001Z" fill="#CDE2B8"/>
<path d="M254.4 135.2C255.063 135.2 255.6 134.663 255.6 134C255.6 133.337 255.063 132.8 254.4 132.8C253.737 132.8 253.2 133.337 253.2 134C253.2 134.663 253.737 135.2 254.4 135.2Z" fill="#CDE2B8"/>
<path d="M71.2 111C71.8627 111 72.4 110.463 72.4 109.8C72.4 109.137 71.8627 108.6 71.2 108.6C70.5373 108.6 70 109.137 70 109.8C70 110.463 70.5373 111 71.2 111Z" fill="#CDE2B8"/>
<path d="M203.6 142.3C204.263 142.3 204.8 141.763 204.8 141.1C204.8 140.437 204.263 139.9 203.6 139.9C202.937 139.9 202.4 140.437 202.4 141.1C202.4 141.763 202.937 142.3 203.6 142.3Z" fill="#CDE2B8"/>
<path d="M27.7 100.2C28.3627 100.2 28.9 99.6628 28.9 99C28.9 98.3373 28.3627 97.8 27.7 97.8C27.0373 97.8 26.5 98.3373 26.5 99C26.5 99.6628 27.0373 100.2 27.7 100.2Z" fill="#CDE2B8"/>
<path d="M225.8 17.8999C223.6 17.8999 221.8 19.6999 221.8 21.8999C221.8 19.6999 220 17.8999 217.8 17.8999C220 17.8999 221.8 16.0999 221.8 13.8999C221.9 16.0999 223.6 17.8999 225.8 17.8999Z" fill="url(#paint0_linear_974_545)"/>
<path d="M254.7 108.2C252.5 108.2 250.7 110 250.7 112.2C250.7 110 248.9 108.2 246.7 108.2C248.9 108.2 250.7 106.4 250.7 104.2C250.7 106.5 252.5 108.2 254.7 108.2Z" fill="url(#paint1_linear_974_545)"/>
<path d="M97.8999 25.3999C95.6999 25.3999 93.8999 27.1999 93.8999 29.3999C93.8999 27.1999 92.0999 25.3999 89.8999 25.3999C92.0999 25.3999 93.8999 23.5999 93.8999 21.3999C93.8999 23.6999 95.6999 25.3999 97.8999 25.3999Z" fill="url(#paint2_linear_974_545)"/>
<path d="M48.8999 64.3001C46.6999 64.3001 44.8999 66.1001 44.8999 68.3001C44.8999 66.1001 43.0999 64.3001 40.8999 64.3001C43.0999 64.3001 44.8999 62.5 44.8999 60.3C44.9999 62.5 46.6999 64.3001 48.8999 64.3001Z" fill="url(#paint3_linear_974_545)"/>
<path d="M285.6 52.3C282.3 52.3 279.6 55 279.6 58.3C279.6 55 276.9 52.3 273.6 52.3C276.9 52.3 279.6 49.6 279.6 46.3C279.6 49.6 282.3 52.3 285.6 52.3Z" fill="url(#paint4_linear_974_545)"/>
<path d="M120 125C116.7 125 114 127.7 114 131C114 127.7 111.3 125 108 125C111.3 125 114 122.3 114 119C114 122.4 116.6 125 120 125Z" fill="url(#paint5_linear_974_545)"/>
<path d="M172.8 23.1C172.7 23.2 172.7 23.4 172.8 23.5C172.9 23.6 173.1 23.6 173.2 23.5L186.6 10.1L186.2 9.69995L172.8 23.1Z" fill="url(#paint6_linear_974_545)"/>
<path d="M292.3 97.6C292.2 97.7 292.2 97.9 292.3 98C292.4 98.1 292.6 98.1 292.7 98L306.1 84.6L305.7 84.2L292.3 97.6Z" fill="url(#paint7_linear_974_545)"/>
<path d="M121.7 144.1C121.6 144.2 121.6 144.4 121.7 144.5C121.8 144.6 122 144.6 122.1 144.5L135.5 131.1L135.1 130.7L121.7 144.1Z" fill="url(#paint8_linear_974_545)"/>
<path d="M50.2 132.8C50.1 132.9 50.1 133.1 50.2 133.2C50.3 133.3 50.5 133.3 50.6 133.2L64 119.8L63.6 119.4L50.2 132.8Z" fill="url(#paint9_linear_974_545)"/>
<path d="M248.6 26.2C248.5 26.3 248.5 26.5 248.6 26.6C248.7 26.7 248.9 26.7 249 26.6L262.4 13.2L262 12.8L248.6 26.2Z" fill="url(#paint10_linear_974_545)"/>
<path d="M15.2 90.1C15.1 90.2 15.1 90.4 15.2 90.5C15.3 90.6 15.5 90.6 15.6 90.5L29 77.1L28.6 76.7L15.2 90.1Z" fill="url(#paint11_linear_974_545)"/>
<path d="M201.9 124.8C201.5 125.2 201.3 125.6 201.5 125.7C201.6 125.8 202 125.6 202.4 125.3L243.4 84.2999L243 83.8999L201.9 124.8Z" fill="url(#paint12_linear_974_545)"/>
<path d="M84.9999 51.9C84.5999 52.3 84.3999 52.7 84.5999 52.8C84.6999 52.9 85.0999 52.7 85.4999 52.4L126.5 11.4L126.1 11L84.9999 51.9Z" fill="url(#paint13_linear_974_545)"/>
<path d="M147.2 107.6L148.2 137.8L170.5 150.1V118.7L147.2 107.6Z" fill="url(#paint14_linear_974_545)"/>
<path d="M170.5 118.8L193.2 108.3L193 138.2L170.5 150.1V118.8Z" fill="url(#paint15_linear_974_545)"/>
<path d="M147.2 107.6L170.4 118.8L193.2 108.3L170.4 98.4001L147.2 107.6Z" fill="url(#paint16_linear_974_545)"/>
<g opacity="0.64">
<path d="M174.2 119.1C174 119.1 173.8 119.3 173.8 119.3C173.7 119.5 173.5 119.8 173.7 120C173.9 120.1 174.2 120.1 174.3 119.9C174.5 119.8 174.6 119.5 174.5 119.3C174.6 119.3 174.5 119.1 174.2 119.1Z" fill="url(#paint17_linear_974_545)"/>
<path d="M176.3 120.7C176.1 120.7 176 120.8 176 120.9C175.9 121 175.8 121.3 175.9 121.4C176 121.5 176.2 121.5 176.4 121.4C176.5 121.3 176.6 121.1 176.5 121C176.5 120.8 176.4 120.7 176.3 120.7Z" fill="url(#paint18_linear_974_545)"/>
<path d="M179 115.8C178.8 115.8 178.7 115.9 178.7 116C178.6 116.1 178.5 116.4 178.6 116.5C178.7 116.6 178.9 116.6 179.1 116.5C179.2 116.4 179.3 116.2 179.2 116.1C179.2 116 179.2 115.8 179 115.8Z" fill="url(#paint19_linear_974_545)"/>
<path d="M172.4 122.3C172.4 122.6 172.3 122.8 172.2 122.8C172.1 122.8 172 122.6 172 122.3C172 122 172.1 121.8 172.2 121.8C172.3 121.9 172.4 122.1 172.4 122.3Z" fill="url(#paint20_linear_974_545)"/>
<path d="M185 119.1C185 118.9 184.8 118.7 184.8 118.7C184.6 118.6 184.3 118.4 184.1 118.6C184 118.7 184 119 184.1 119.2C184.2 119.4 184.5 119.5 184.7 119.4C184.7 119.4 185 119.3 185 119.1Z" fill="url(#paint21_linear_974_545)"/>
<path d="M191.1 120.5C191.1 120.3 190.9 120.1 190.9 120.1C190.7 120 190.4 119.8 190.2 120C190.1 120.1 190.1 120.4 190.2 120.6C190.3 120.8 190.6 120.9 190.8 120.8C190.8 120.7 191 120.7 191.1 120.5Z" fill="url(#paint22_linear_974_545)"/>
<path d="M189.3 113.1C189.3 112.9 189.1 112.7 189.1 112.7C188.9 112.6 188.6 112.4 188.4 112.6C188.3 112.7 188.3 113 188.4 113.2C188.5 113.4 188.8 113.5 189 113.4C189 113.4 189.2 113.3 189.3 113.1Z" fill="url(#paint23_linear_974_545)"/>
<path d="M183.2 121C183.2 120.8 183.1 120.7 183 120.7C182.9 120.6 182.6 120.5 182.5 120.6C182.4 120.7 182.4 120.9 182.5 121C182.6 121.1 182.8 121.2 183 121.1C183 121.2 183.2 121.1 183.2 121Z" fill="url(#paint24_linear_974_545)"/>
<path d="M181.6 117.3C181.3 117.3 181.1 117.2 181.1 117C181.1 116.9 181.3 116.8 181.6 116.8C181.9 116.8 182.1 116.9 182.1 117.1C182.1 117.2 181.9 117.3 181.6 117.3Z" fill="url(#paint25_linear_974_545)"/>
<path d="M184.1 127.3C183.9 127.3 183.8 127.4 183.8 127.5C183.7 127.6 183.6 127.9 183.7 128C183.8 128.1 184 128.1 184.2 128C184.3 127.9 184.4 127.7 184.3 127.6C184.3 127.5 184.3 127.3 184.1 127.3Z" fill="url(#paint26_linear_974_545)"/>
<path d="M188.5 123.5C188.3 123.5 188.2 123.6 188.2 123.7C188.1 123.8 188 124.1 188.1 124.2C188.2 124.3 188.4 124.3 188.6 124.2C188.7 124.1 188.8 123.9 188.7 123.8C188.7 123.7 188.7 123.5 188.5 123.5Z" fill="url(#paint27_linear_974_545)"/>
<path d="M188.3 132.5C188.3 132.3 188.2 132.2 188.1 132.2C188 132.1 187.7 132 187.6 132.1C187.5 132.2 187.5 132.4 187.6 132.5C187.7 132.6 187.9 132.7 188.1 132.6C188.1 132.7 188.3 132.6 188.3 132.5Z" fill="url(#paint28_linear_974_545)"/>
<path d="M186.1 137C186.1 136.8 186 136.7 185.9 136.7C185.8 136.6 185.5 136.5 185.4 136.6C185.3 136.7 185.3 136.9 185.4 137C185.5 137.1 185.7 137.2 185.9 137.1C185.9 137.2 186.1 137.2 186.1 137Z" fill="url(#paint29_linear_974_545)"/>
<path d="M186.7 128.8C186.4 128.8 186.2 128.7 186.2 128.5C186.2 128.3 186.4 128.3 186.7 128.3C187 128.3 187.2 128.4 187.2 128.6C187.2 128.7 187 128.8 186.7 128.8Z" fill="url(#paint30_linear_974_545)"/>
<path d="M191.3 127.4C191 127.4 190.8 127.3 190.8 127.1C190.8 127 191 126.9 191.3 126.9C191.6 126.9 191.8 127 191.8 127.2C191.8 127.3 191.5 127.4 191.3 127.4Z" fill="url(#paint31_linear_974_545)"/>
<path d="M178.1 141C178.2 140.9 178.2 140.7 178.2 140.7C178.2 140.5 178.1 140.3 177.9 140.3C177.7 140.3 177.6 140.5 177.6 140.6C177.6 140.8 177.6 140.9 177.8 141C177.8 141 177.9 141.1 178.1 141Z" fill="url(#paint32_linear_974_545)"/>
<path d="M171.3 139.8C171.4 139.9 171.6 139.9 171.6 139.9C171.8 139.9 172 139.8 172.1 139.6C172.1 139.5 171.9 139.3 171.8 139.3C171.6 139.3 171.4 139.3 171.4 139.5C171.3 139.5 171.2 139.7 171.3 139.8Z" fill="url(#paint33_linear_974_545)"/>
<path d="M175.1 141.5C175.3 141.3 175.6 141.3 175.6 141.4C175.7 141.5 175.6 141.7 175.4 141.9C175.2 142.1 174.9 142.1 174.9 142C174.8 141.9 174.9 141.7 175.1 141.5Z" fill="url(#paint34_linear_974_545)"/>
<path d="M182.3 140.3C182.4 140.2 182.4 140 182.4 140C182.4 139.8 182.3 139.6 182.1 139.6C181.9 139.6 181.8 139.8 181.8 139.9C181.8 140.1 181.8 140.2 182 140.3C182 140.3 182.1 140.4 182.3 140.3Z" fill="url(#paint35_linear_974_545)"/>
<path d="M173.9 135C174 135.1 174.2 135.1 174.2 135.1C174.4 135.1 174.6 135 174.7 134.8C174.7 134.7 174.5 134.5 174.4 134.5C174.2 134.5 174 134.5 174 134.7C173.9 134.8 173.8 134.9 173.9 135Z" fill="url(#paint36_linear_974_545)"/>
<path d="M187.1 138.1C187.3 137.9 187.6 137.9 187.6 138C187.7 138.1 187.6 138.3 187.4 138.5C187.2 138.7 186.9 138.7 186.9 138.6C186.8 138.5 186.9 138.3 187.1 138.1Z" fill="url(#paint37_linear_974_545)"/>
<path d="M190.2 116.7C189.9 116.7 189.7 116.6 189.7 116.4C189.7 116.3 189.9 116.2 190.2 116.2C190.5 116.2 190.7 116.3 190.7 116.5C190.7 116.6 190.5 116.7 190.2 116.7Z" fill="url(#paint38_linear_974_545)"/>
<path d="M178.1 125C178.1 124.8 177.9 124.6 177.9 124.6C177.7 124.5 177.4 124.3 177.2 124.5C177.1 124.6 177.1 124.9 177.2 125.1C177.3 125.3 177.6 125.4 177.8 125.3C177.9 125.3 178.1 125.2 178.1 125Z" fill="url(#paint39_linear_974_545)"/>
<path opacity="0.56" d="M166.8 112C166.7 112.1 166.7 112.3 166.7 112.3C166.7 112.5 166.8 112.7 167 112.7C167.2 112.7 167.3 112.6 167.3 112.4C167.3 112.3 167.3 112.1 167.1 112C167.1 112 166.9 111.9 166.8 112Z" fill="url(#paint40_linear_974_545)"/>
<path opacity="0.56" d="M170.1 100.3C170 100.4 170 100.6 170 100.6C170 100.8 170.1 101 170.3 101C170.5 101 170.6 100.9 170.6 100.7C170.6 100.6 170.6 100.4 170.4 100.3C170.4 100.4 170.2 100.3 170.1 100.3Z" fill="url(#paint41_linear_974_545)"/>
<path opacity="0.56" d="M163.1 113.1C163 113.2 163 113.3 163 113.3C163 113.4 163.1 113.6 163.2 113.6C163.3 113.6 163.4 113.5 163.4 113.4C163.4 113.3 163.4 113.2 163.3 113.1C163.4 113.1 163.2 113.1 163.1 113.1Z" fill="url(#paint42_linear_974_545)"/>
<path opacity="0.56" d="M167.2 114.6C167.3 114.8 167.4 114.9 167.3 115C167.2 115.1 167.1 115 166.9 114.8C166.8 114.6 166.7 114.5 166.8 114.4C167 114.4 167.1 114.5 167.2 114.6Z" fill="url(#paint43_linear_974_545)"/>
<path opacity="0.56" d="M178.3 107.4C178.4 107.6 178.5 107.7 178.4 107.8C178.3 107.9 178.2 107.8 178 107.6C177.8 107.4 177.8 107.3 177.9 107.2C178 107.2 178.2 107.3 178.3 107.4Z" fill="url(#paint44_linear_974_545)"/>
<path opacity="0.56" d="M171.8 113.8C171.7 113.7 171.5 113.7 171.5 113.7C171.3 113.7 171.1 113.8 171 113.9C171 114 171.1 114.2 171.3 114.2C171.5 114.2 171.6 114.2 171.7 114.1C171.7 114.1 171.8 114 171.8 113.8Z" fill="url(#paint45_linear_974_545)"/>
<path opacity="0.56" d="M174.9 111.5C174.8 111.4 174.6 111.4 174.6 111.4C174.4 111.4 174.2 111.5 174.1 111.6C174.1 111.7 174.2 111.9 174.4 111.9C174.6 111.9 174.7 111.9 174.8 111.8C174.9 111.8 175 111.6 174.9 111.5Z" fill="url(#paint46_linear_974_545)"/>
<path opacity="0.56" d="M180.9 106.9C180.8 106.8 180.6 106.8 180.6 106.8C180.4 106.8 180.2 106.9 180.1 107C180.1 107.1 180.2 107.3 180.4 107.3C180.6 107.3 180.7 107.3 180.8 107.2C180.9 107.2 181 107 180.9 106.9Z" fill="url(#paint47_linear_974_545)"/>
<path opacity="0.56" d="M158.6 105.4C158.5 105.5 158.5 105.7 158.5 105.7C158.5 105.9 158.6 106.1 158.8 106.1C159 106.1 159.1 106 159.1 105.8C159.1 105.7 159.1 105.5 158.9 105.4C158.9 105.4 158.8 105.3 158.6 105.4Z" fill="url(#paint48_linear_974_545)"/>
<path opacity="0.56" d="M157.7 106.7C157.6 106.8 157.6 106.9 157.6 106.9C157.6 107 157.7 107.2 157.8 107.2C157.9 107.2 158 107.1 158 107C158 106.9 158 106.8 157.9 106.7C157.9 106.7 157.8 106.6 157.7 106.7Z" fill="url(#paint49_linear_974_545)"/>
<path opacity="0.56" d="M154.5 109.4C154.6 109.6 154.7 109.7 154.6 109.8C154.5 109.9 154.4 109.8 154.2 109.6C154.1 109.4 154 109.3 154.1 109.2C154.2 109.2 154.4 109.2 154.5 109.4Z" fill="url(#paint50_linear_974_545)"/>
<path opacity="0.56" d="M162.5 107.8C162.4 107.7 162.2 107.7 162.2 107.7C162 107.7 161.8 107.8 161.7 107.9C161.7 108 161.8 108.2 162 108.2C162.2 108.2 162.3 108.2 162.4 108.1C162.5 108.1 162.6 107.9 162.5 107.8Z" fill="url(#paint51_linear_974_545)"/>
<path opacity="0.56" d="M183.5 106.7C183.4 106.8 183.4 106.9 183.4 106.9C183.4 107 183.5 107.2 183.6 107.2C183.7 107.2 183.8 107.1 183.8 107C183.8 106.9 183.8 106.8 183.7 106.7C183.8 106.7 183.6 106.6 183.5 106.7Z" fill="url(#paint52_linear_974_545)"/>
<path opacity="0.56" d="M173.5 115.7C173.4 115.8 173.4 115.9 173.4 115.9C173.4 116 173.5 116.2 173.6 116.2C173.7 116.2 173.8 116.1 173.8 116C173.8 115.9 173.8 115.8 173.7 115.7C173.7 115.7 173.6 115.7 173.5 115.7Z" fill="url(#paint53_linear_974_545)"/>
<path opacity="0.56" d="M188.4 107.8C188.3 107.7 188.1 107.7 188.1 107.7C187.9 107.7 187.7 107.8 187.6 107.9C187.6 108 187.7 108.2 187.9 108.2C188.1 108.2 188.2 108.2 188.3 108.1C188.3 108.1 188.4 107.9 188.4 107.8Z" fill="url(#paint54_linear_974_545)"/>
<path d="M185.3 131.6C185.3 131.4 185.1 131.2 185.1 131.2C184.9 131.1 184.6 130.9 184.4 131.1C184.3 131.2 184.3 131.5 184.4 131.7C184.5 131.9 184.8 132 185 131.9C185 131.9 185.3 131.8 185.3 131.6Z" fill="url(#paint55_linear_974_545)"/>
<path d="M190.8 137.1C190.8 136.9 190.6 136.7 190.6 136.7C190.4 136.6 190.1 136.4 189.9 136.6C189.8 136.7 189.8 137 189.9 137.2C190 137.4 190.3 137.5 190.5 137.4C190.5 137.4 190.7 137.3 190.8 137.1Z" fill="url(#paint56_linear_974_545)"/>
<path d="M173.2 129.5C173.2 129.3 173 129.1 173 129.1C172.8 129 172.5 128.8 172.3 129C172.2 129.1 172.2 129.4 172.3 129.6C172.4 129.8 172.7 129.9 172.9 129.8C173 129.8 173.2 129.7 173.2 129.5Z" fill="url(#paint57_linear_974_545)"/>
<path d="M176.4 126.8C176.4 126.6 176.3 126.5 176.2 126.5C176.1 126.4 175.8 126.3 175.7 126.4C175.6 126.5 175.6 126.7 175.7 126.8C175.8 126.9 176 127 176.2 126.9C176.1 127 176.3 127 176.4 126.8Z" fill="url(#paint58_linear_974_545)"/>
<path d="M177.4 133.7C177.1 133.7 176.9 133.6 176.9 133.4C176.9 133.3 177.1 133.2 177.4 133.2C177.7 133.2 177.9 133.3 177.9 133.5C177.9 133.6 177.7 133.7 177.4 133.7Z" fill="url(#paint59_linear_974_545)"/>
<path d="M173.1 146.2C172.8 146.2 172.6 146.1 172.6 145.9C172.6 145.8 172.8 145.7 173.1 145.7C173.4 145.7 173.6 145.8 173.6 146C173.6 146.1 173.3 146.2 173.1 146.2Z" fill="url(#paint60_linear_974_545)"/>
</g>
<g opacity="0.88">
<path d="M166.2 118.8C166.4 118.8 166.6 119 166.6 119C166.7 119.2 166.9 119.5 166.7 119.7C166.5 119.8 166.2 119.8 166.1 119.6C165.9 119.5 165.8 119.2 165.9 119C165.9 119.1 166 118.9 166.2 118.8Z" fill="url(#paint61_linear_974_545)"/>
<path d="M164.2 120.4C164.4 120.4 164.5 120.5 164.5 120.6C164.6 120.7 164.7 121 164.6 121.1C164.5 121.2 164.3 121.2 164.1 121.1C164 121 163.9 120.8 164 120.7C164 120.6 164 120.5 164.2 120.4Z" fill="url(#paint62_linear_974_545)"/>
<path d="M161.4 115.6C161.6 115.6 161.7 115.7 161.7 115.8C161.8 115.9 161.9 116.2 161.8 116.3C161.7 116.4 161.5 116.4 161.3 116.3C161.2 116.2 161.1 116 161.2 115.9C161.2 115.8 161.3 115.6 161.4 115.6Z" fill="url(#paint63_linear_974_545)"/>
<path d="M168 122.1C168 122.4 168.1 122.6 168.2 122.6C168.3 122.6 168.4 122.4 168.4 122.1C168.4 121.8 168.3 121.6 168.2 121.6C168.1 121.6 168 121.8 168 122.1Z" fill="url(#paint64_linear_974_545)"/>
<path d="M155.4 118.9C155.4 118.7 155.6 118.5 155.6 118.5C155.8 118.4 156.1 118.2 156.3 118.4C156.4 118.5 156.4 118.8 156.3 119C156.2 119.2 155.9 119.3 155.7 119.2C155.7 119.2 155.5 119.1 155.4 118.9Z" fill="url(#paint65_linear_974_545)"/>
<path d="M149.4 120.2C149.4 120 149.6 119.8 149.6 119.8C149.8 119.7 150.1 119.5 150.3 119.7C150.4 119.8 150.4 120.1 150.3 120.3C150.2 120.5 149.9 120.6 149.7 120.5C149.7 120.5 149.4 120.4 149.4 120.2Z" fill="url(#paint66_linear_974_545)"/>
<path d="M151.2 112.9C151.2 112.7 151.4 112.5 151.4 112.5C151.6 112.4 151.9 112.2 152.1 112.4C152.2 112.5 152.2 112.8 152.1 113C152 113.2 151.7 113.3 151.5 113.2C151.5 113.2 151.2 113.1 151.2 112.9Z" fill="url(#paint67_linear_974_545)"/>
<path d="M158.6 121.2C158.6 121 158.7 120.9 158.8 120.9C158.9 120.8 159.2 120.7 159.3 120.8C159.4 120.9 159.4 121.1 159.3 121.2C159.2 121.3 159 121.4 158.8 121.3C158.8 121.4 158.7 121.4 158.6 121.2Z" fill="url(#paint68_linear_974_545)"/>
<path d="M158.8 117.1C159.1 117.1 159.3 117 159.3 116.8C159.3 116.7 159.1 116.6 158.8 116.6C158.5 116.6 158.3 116.7 158.3 116.9C158.3 117 158.6 117.1 158.8 117.1Z" fill="url(#paint69_linear_974_545)"/>
<path d="M148.6 109.9C148.8 109.9 148.9 110 148.9 110.1C149 110.2 149.1 110.5 149 110.6C148.9 110.7 148.7 110.7 148.5 110.6C148.4 110.5 148.3 110.3 148.4 110.2C148.4 110.1 148.4 109.9 148.6 109.9Z" fill="url(#paint70_linear_974_545)"/>
<path d="M151.9 123.3C152.1 123.3 152.2 123.4 152.2 123.5C152.3 123.6 152.4 123.9 152.3 124C152.2 124.1 152 124.1 151.8 124C151.7 123.9 151.6 123.7 151.7 123.6C151.7 123.5 151.8 123.3 151.9 123.3Z" fill="url(#paint71_linear_974_545)"/>
<path d="M152.1 132.2C152.1 132 152.2 131.9 152.3 131.9C152.4 131.8 152.7 131.7 152.8 131.8C152.9 131.9 152.9 132.1 152.8 132.2C152.7 132.3 152.5 132.4 152.3 132.3C152.3 132.5 152.1 132.4 152.1 132.2Z" fill="url(#paint72_linear_974_545)"/>
<path d="M154.3 136.8C154.3 136.6 154.4 136.5 154.5 136.5C154.6 136.4 154.9 136.3 155 136.4C155.1 136.5 155.1 136.7 155 136.8C154.9 136.9 154.7 137 154.5 136.9C154.5 137 154.4 136.9 154.3 136.8Z" fill="url(#paint73_linear_974_545)"/>
<path d="M168.4 142C168.4 141.8 168.5 141.7 168.6 141.7C168.7 141.6 169 141.5 169.1 141.6C169.2 141.7 169.2 141.9 169.1 142C169 142.1 168.8 142.2 168.6 142.1C168.6 142.2 168.4 142.2 168.4 142Z" fill="url(#paint74_linear_974_545)"/>
<path d="M153.7 128.6C154 128.6 154.2 128.5 154.2 128.3C154.2 128.2 154 128.1 153.7 128.1C153.4 128.1 153.2 128.2 153.2 128.4C153.2 128.5 153.4 128.6 153.7 128.6Z" fill="url(#paint75_linear_974_545)"/>
<path d="M149.2 127.2C149.5 127.2 149.7 127.1 149.7 126.9C149.7 126.8 149.5 126.7 149.2 126.7C148.9 126.7 148.7 126.8 148.7 127C148.7 127.1 148.9 127.2 149.2 127.2Z" fill="url(#paint76_linear_974_545)"/>
<path d="M160.2 133.6C160.1 133.5 160.1 133.3 160.1 133.3C160.1 133.1 160.2 132.9 160.4 132.9C160.6 132.9 160.7 133.1 160.7 133.2C160.7 133.4 160.7 133.5 160.5 133.6C160.5 133.6 160.3 133.7 160.2 133.6Z" fill="url(#paint77_linear_974_545)"/>
<path d="M166.9 132.4C166.8 132.5 166.6 132.5 166.6 132.5C166.4 132.5 166.2 132.4 166.1 132.2C166.1 132.1 166.3 131.9 166.4 131.9C166.6 131.9 166.8 131.9 166.8 132.1C166.9 132.1 167 132.3 166.9 132.4Z" fill="url(#paint78_linear_974_545)"/>
<path d="M163.1 134.1C162.9 133.9 162.6 133.9 162.6 134C162.5 134.1 162.6 134.3 162.8 134.5C163 134.7 163.3 134.7 163.3 134.6C163.5 134.5 163.4 134.3 163.1 134.1Z" fill="url(#paint79_linear_974_545)"/>
<path d="M158.2 140.1C158.1 140 158.1 139.8 158.1 139.8C158.1 139.6 158.2 139.4 158.4 139.4C158.6 139.4 158.7 139.6 158.7 139.7C158.7 139.9 158.7 140 158.5 140.1C158.5 140.1 158.3 140.1 158.2 140.1Z" fill="url(#paint80_linear_974_545)"/>
<path d="M166.5 134.8C166.4 134.9 166.2 134.9 166.2 134.9C166 134.9 165.8 134.8 165.7 134.6C165.7 134.5 165.9 134.3 166 134.3C166.2 134.3 166.4 134.3 166.4 134.5C166.5 134.5 166.6 134.7 166.5 134.8Z" fill="url(#paint81_linear_974_545)"/>
<path d="M153.3 137.9C153.1 137.7 152.8 137.7 152.8 137.8C152.7 137.9 152.8 138.1 153 138.3C153.2 138.5 153.5 138.5 153.5 138.4C153.6 138.3 153.5 138 153.3 137.9Z" fill="url(#paint82_linear_974_545)"/>
<path d="M150.3 116.4C150.6 116.4 150.8 116.3 150.8 116.1C150.8 116 150.6 115.9 150.3 115.9C150 115.9 149.8 116 149.8 116.2C149.7 116.3 150 116.4 150.3 116.4Z" fill="url(#paint83_linear_974_545)"/>
<path d="M162.3 124.8C162.3 124.6 162.5 124.4 162.5 124.4C162.7 124.3 163 124.1 163.2 124.3C163.3 124.4 163.3 124.7 163.2 124.9C163.1 125.1 162.8 125.2 162.6 125.1C162.6 125.1 162.3 125 162.3 124.8Z" fill="url(#paint84_linear_974_545)"/>
<path d="M155.1 131.4C155.1 131.2 155.3 131 155.3 131C155.5 130.9 155.8 130.7 156 130.9C156.1 131 156.1 131.3 156 131.5C155.9 131.7 155.6 131.8 155.4 131.7C155.4 131.7 155.1 131.6 155.1 131.4Z" fill="url(#paint85_linear_974_545)"/>
<path d="M161.2 143.3C161.2 143.1 161.4 142.9 161.4 142.9C161.6 142.8 161.9 142.6 162.1 142.8C162.2 142.9 162.2 143.2 162.1 143.4C162 143.6 161.7 143.7 161.5 143.6C161.5 143.5 161.2 143.5 161.2 143.3Z" fill="url(#paint86_linear_974_545)"/>
<path d="M149.7 136.9C149.7 136.7 149.9 136.5 149.9 136.5C150.1 136.4 150.4 136.2 150.6 136.4C150.7 136.5 150.7 136.8 150.6 137C150.5 137.2 150.2 137.3 150 137.2C149.9 137.2 149.7 137.1 149.7 136.9Z" fill="url(#paint87_linear_974_545)"/>
<path d="M167.2 129.3C167.2 129.1 167.4 128.9 167.4 128.9C167.6 128.8 167.9 128.6 168.1 128.8C168.2 128.9 168.2 129.2 168.1 129.4C168 129.6 167.7 129.7 167.5 129.6C167.5 129.5 167.2 129.5 167.2 129.3Z" fill="url(#paint88_linear_974_545)"/>
<path d="M159.1 126.1C159.1 125.9 159.2 125.8 159.3 125.8C159.4 125.7 159.7 125.6 159.8 125.7C159.9 125.8 159.9 126 159.8 126.1C159.7 126.2 159.5 126.3 159.3 126.2C159.3 126.3 159.1 126.3 159.1 126.1Z" fill="url(#paint89_linear_974_545)"/>
<path d="M166.4 144.4C166.7 144.4 166.9 144.3 166.9 144.1C166.9 144 166.7 143.9 166.4 143.9C166.1 143.9 165.9 144 165.9 144.2C165.9 144.3 166.1 144.4 166.4 144.4Z" fill="url(#paint90_linear_974_545)"/>
<path d="M165.1 138.7C165.4 138.7 165.6 138.6 165.6 138.4C165.6 138.3 165.4 138.2 165.1 138.2C164.8 138.2 164.6 138.3 164.6 138.5C164.6 138.7 164.9 138.8 165.1 138.7Z" fill="url(#paint91_linear_974_545)"/>
</g>
<path d="M169.2 108.1C169.7 108.1 171.2 108.6 171.2 108.9C171.3 109.1 171.1 109.3 170.9 109.4C166.5 110.5 162.3 111.7 157.9 112.8L154.1 111L165.7 108.8C167.7 108.3 169.2 108.1 169.2 108.1Z" fill="url(#paint92_linear_974_545)"/>
<path d="M169.9 108.4C169.4 108.4 168.8 108.6 168.7 108.9C168.6 109.1 169.9 109.4 170.3 109.5C170.4 109.5 170.4 109.5 170.5 109.6C174.8 110.7 177.7 112.3 182 113.4L185.8 111.6L173.7 108.8C172 108.3 169.9 108.4 169.9 108.4Z" fill="url(#paint93_linear_974_545)"/>
<path d="M166.6 93C166.4 93 166.3 93.1 166.3 93.3C166.3 93.6 166.3 94.5 166.5 96.3C167.4 102.1 170.6 109 170.6 109L171 108.3C170.6 106.6 170.2 104.7 169.9 102.8C169.4 99.2 169.2 95.8 169.2 92.8L166.6 93Z" fill="url(#paint94_linear_974_545)"/>
<path d="M166.3 93.9C166.3 93.9 167.1 92.8 168.2 93C169.3 93.1 170 93.6 170.5 96.4C171 99.2 170.7 108.4 170.5 109C170.5 109 170.6 108.9 170.8 108.7C170.9 104.9 171.8 98.1 170.7 94.7C170.7 94.6 170.6 94.3 170.3 93.8C169.6 92.7 168.1 91.7 166.8 92C166.7 92 166.6 92.1 166.4 92.2C166.1 93 166.3 93.9 166.3 93.9Z" fill="url(#paint95_linear_974_545)"/>
<path d="M166.3 93.8999C166.3 93.8999 167.1 92.7999 168.2 92.9999C169.3 93.0999 170 93.5999 170.5 96.3999C171 99.1999 170.7 108.4 170.5 109C170.5 109 170.6 108.9 170.8 108.7C170.9 104.9 171.8 98.0999 170.7 94.6999C170.7 94.5999 170.4 93.8999 170.2 93.4999C169.5 92.3999 168.1 91.7999 166.9 92.0999C166.8 92.0999 166.7 92.1999 166.5 92.2999C166.1 92.9999 166.3 93.8999 166.3 93.8999Z" fill="url(#paint96_linear_974_545)"/>
<path d="M170.8 91.1001C169.8 90.8001 168.5 90.8001 167.2 91.5001C166.9 91.7001 166.6 92.0001 166.5 92.2001C166.7 92.1001 166.8 92.1001 166.9 92.0001C168.1 91.7001 169.7 92.7001 170.4 93.8001C170.7 94.2001 170.8 94.6001 170.8 94.7001C171.4 96.3001 171.4 98.8001 171.4 101.3C171.3 104 171 106.7 171 108.7C171.8 107.8 173.7 104.6 173.8 96.2001C173.8 95.9001 173.8 95.5001 173.8 95.2001C173.8 92.3001 171.7 91.4001 170.8 91.1001Z" fill="url(#paint97_linear_974_545)"/>
<path d="M173.7 96.1001C173.1 96.6001 172.5 98.2001 171.8 99.9001C171.7 100.1 171.5 100.6 171.3 101.3C171.2 104 170.9 106.7 170.9 108.7C171.7 107.7 173.6 104.6 173.7 96.1001Z" fill="url(#paint98_linear_974_545)"/>
<path d="M160.4 96.6C160.4 96.9 160.4 97.5 160.5 98.2C161.2 104.3 170.4 108.6 170.5 108.4C170.5 108.4 170.8 108.3 169.5 107.1C167.1 104.8 165.9 103.6 165.1 102.7C164.2 101.6 162.6 99.7 162.2 96.3L160.4 96.6Z" fill="url(#paint99_linear_974_545)"/>
<path d="M160.5 98.5001C160.5 98.5001 160.5 97.5001 161.5 97.4001C162.1 97.4001 162.7 97.4001 164.3 99.3001C166 101.2 170.4 108 170.6 108.5C170.6 108.5 170.6 108.4 170.6 108.2C168.8 105.4 165.8 100.2 163.6 98.0001C163.5 97.9001 163.3 97.7001 163 97.5001C162.1 96.9001 160.9 96.6001 160.4 97.2001C160.4 97.2001 160.3 97.3001 160.3 97.4001C160.5 98.2001 160.5 98.5001 160.5 98.5001Z" fill="url(#paint100_linear_974_545)"/>
<path d="M160.5 98.7002C160.5 98.7002 160.4 97.8002 161.4 97.6002C162 97.5002 162.7 97.8002 164.3 99.7002C166 101.6 170.4 108.1 170.6 108.6C170.6 108.6 170.6 108.5 170.6 108.3C168.8 105.5 165.8 100.3 163.6 98.1002C163.5 98.0002 163.3 97.8002 163 97.6002C162.1 97.0002 160.9 96.7002 160.4 97.3002C160.4 97.3002 160.3 97.4002 160.3 97.5002C160.3 98.2002 160.5 98.7002 160.5 98.7002Z" fill="url(#paint101_linear_974_545)"/>
<path d="M166.4 98.1001C166.2 97.8001 166 97.6001 165.9 97.3001C164.5 95.2001 162.4 95.4001 161.8 95.4001C161.2 95.5001 160.6 95.8001 160.3 96.7001C160.2 96.9001 160.2 97.3001 160.3 97.5001C160.3 97.4001 160.4 97.3001 160.4 97.3001C160.8 96.7001 162.1 97.0001 163 97.6001C163.3 97.8001 163.6 98.1001 163.6 98.1001C165.8 100.2 168.8 105.5 170.6 108.3C170.6 108.2 170.6 108.1 170.6 107.9C170.4 107.6 169.9 106.8 168.9 104.3C167.5 101 166.7 99.0001 166.4 98.1001Z" fill="url(#paint102_linear_974_545)"/>
<path d="M168.8 104.2C169.8 106.7 170.3 107.5 170.5 107.8C170.4 106.6 170 103.6 166.4 98.1001C166.7 99.0001 167.5 101 168.8 104.2Z" fill="url(#paint103_linear_974_545)"/>
<path opacity="0.62" d="M168.8 104.2C169.8 106.7 170.3 107.5 170.5 107.8C170.4 106.6 170 103.6 166.4 98.1001C166.7 99.0001 167.5 101 168.8 104.2Z" fill="url(#paint104_linear_974_545)"/>
<path d="M181.1 96.6C181.1 96.9 181.1 97.5 181 98.2C180.3 104.3 171.1 108.6 171 108.4C171 108.4 170.7 108.3 172 107.1C174.4 104.8 175.6 103.6 176.4 102.7C177.3 101.6 178.9 99.7 179.3 96.3L181.1 96.6Z" fill="url(#paint105_linear_974_545)"/>
<path d="M178.5 97.5001C178.2 97.7001 177.9 98.0001 177.9 98.0001C175.7 100.1 172.7 105.4 170.9 108.2C171 107.3 171.1 103.9 175.6 97.1001C177 95.0001 178.9 95.2001 179.5 95.3001C180.1 95.4001 180.9 95.8001 181.2 96.7001C181.3 96.9001 181.3 97.3001 181.2 97.5001C181.2 97.4001 181.1 97.3001 181.1 97.3001C180.7 96.6001 179.4 96.9001 178.5 97.5001Z" fill="url(#paint106_linear_974_545)"/>
<path d="M181 98.5001C181 98.5001 181 97.5001 180 97.4001C179.4 97.4001 178.8 97.4001 177.2 99.3001C175.5 101.2 171.1 108 170.9 108.5C170.9 108.5 170.9 108.4 170.9 108.2C172.7 105.4 175.7 100.2 177.9 98.0001C178 97.9001 178.2 97.7001 178.5 97.5001C179.4 96.9001 180.6 96.6001 181.1 97.2001C181.1 97.2001 181.2 97.3001 181.2 97.4001C181.1 98.2001 181 98.5001 181 98.5001Z" fill="url(#paint107_linear_974_545)"/>
<path d="M181 98.7002C181 98.7002 181.1 97.8002 180.1 97.6002C179.5 97.5002 178.8 97.8002 177.2 99.7002C175.5 101.6 171.1 108.1 170.9 108.6C170.9 108.6 170.9 108.5 170.9 108.3C172.7 105.5 175.7 100.3 177.9 98.1002C178 98.0002 178.2 97.8002 178.5 97.6002C179.4 97.0002 180.6 96.7002 181.1 97.3002C181.1 97.3002 181.2 97.4002 181.2 97.5002C181.2 98.2002 181 98.7002 181 98.7002Z" fill="url(#paint108_linear_974_545)"/>
<path d="M156.7 104.1C156.5 104.1 155.7 104.9 155.6 105.6C155.5 106.3 155.4 106.7 156.3 107.3C157.6 108.2 159.2 108.5 161.4 108.6C164 108.8 166.2 109 168.4 109C170.2 109 170.6 109.1 170.8 109.1C170.8 109.2 164.6 110.7 158.8 109.7C157.5 109.5 155.3 109.1 154.1 107.9C153.5 107.3 153.4 106.6 153.4 106.1C154.1 104 155.7 104.1 156.7 104.1Z" fill="url(#paint109_linear_974_545)"/>
<path d="M170.9 108.7C170.7 107.8 169.8 106.4 168.7 105.5C165.1 102.5 161.8 101 160.7 101.1C159.2 101.3 158.8 102 157.1 102.4C156.4 102.6 155.5 102.9 155.1 103.1C155.1 103.1 155.6 103.1 156 103.2C157.7 103.6 162.6 104.8 165.5 106.2C168.9 107.7 171 109.1 171 109.1C170.9 109 170.9 108.9 170.9 108.7Z" fill="url(#paint110_linear_974_545)"/>
<path d="M159.3 104.8C157.1 104.2 156.3 104 155.6 104.2C154.7 104.3 153.9 105 153.4 106.1C153.4 105.9 153.4 105.7 153.5 105.5C153.6 104.7 153.8 103.5 155.2 103.1C156.4 102.7 157.8 103 159.9 103.5C162.9 104.2 165.1 105.2 166.8 106.2C169 107.4 171 108.8 170.8 109.1C170.7 109.1 170.7 109.1 170.6 109.1C169.7 108.9 165.6 106.6 159.3 104.8Z" fill="url(#paint111_linear_974_545)"/>
<path d="M184.7 104.1C184.9 104.1 185.7 104.9 185.8 105.6C185.9 106.3 186 106.7 185.1 107.3C183.8 108.2 182.2 108.5 180 108.6C177.4 108.8 175.2 109 173 109C171.2 109 170.8 109.1 170.6 109.1C170.6 109.2 176.8 110.7 182.6 109.7C183.9 109.5 186.1 109.1 187.3 107.9C187.9 107.3 188 106.6 188 106.1C187.3 104 185.6 104.1 184.7 104.1Z" fill="url(#paint112_linear_974_545)"/>
<path d="M170.5 108.7C170.7 107.8 171.6 106.4 172.7 105.5C176.3 102.5 179.6 101 180.7 101.1C182.2 101.3 182.6 102 184.3 102.4C185 102.6 185.9 102.9 186.3 103.1C186.3 103.1 185.8 103.1 185.4 103.2C183.7 103.6 178.8 104.8 175.9 106.2C172.5 107.7 170.4 109.1 170.4 109.1C170.5 109 170.5 108.9 170.5 108.7Z" fill="url(#paint113_linear_974_545)"/>
<path d="M182.1 104.8C184.3 104.2 185.1 104 185.8 104.2C186.7 104.3 187.5 105 188 106.1C188 105.9 188 105.7 187.9 105.5C187.8 104.7 187.6 103.5 186.2 103.1C185 102.7 183.6 103 181.5 103.5C178.5 104.2 176.3 105.2 174.6 106.2C172.4 107.4 170.4 108.8 170.6 109.1C170.7 109.1 170.7 109.1 170.8 109.1C171.7 108.9 175.8 106.6 182.1 104.8Z" fill="url(#paint114_linear_974_545)"/>
<path d="M154.7 141.3L158.3 143.4L158 112.8L154.2 110.9L154.7 141.3Z" fill="url(#paint115_linear_974_545)"/>
<path d="M185.3 142.3L181.8 144.2L182.1 113.4L185.8 111.6L185.3 142.3Z" fill="url(#paint116_linear_974_545)"/>
<defs>
<linearGradient id="paint0_linear_974_545" x1="217.896" y1="17.9009" x2="225.836" y2="17.9009" gradientUnits="userSpaceOnUse">
<stop stop-color="#82C9E3"/>
<stop offset="1" stop-color="#8FD4E9"/>
</linearGradient>
<linearGradient id="paint1_linear_974_545" x1="246.753" y1="108.237" x2="254.693" y2="108.237" gradientUnits="userSpaceOnUse">
<stop stop-color="#82C9E3"/>
<stop offset="1" stop-color="#8FD4E9"/>
</linearGradient>
<linearGradient id="paint2_linear_974_545" x1="89.9203" y1="25.4289" x2="97.8603" y2="25.4289" gradientUnits="userSpaceOnUse">
<stop stop-color="#82C9E3"/>
<stop offset="1" stop-color="#8FD4E9"/>
</linearGradient>
<linearGradient id="paint3_linear_974_545" x1="40.9884" y1="64.3237" x2="48.9285" y2="64.3237" gradientUnits="userSpaceOnUse">
<stop stop-color="#82C9E3"/>
<stop offset="1" stop-color="#8FD4E9"/>
</linearGradient>
<linearGradient id="paint4_linear_974_545" x1="273.59" y1="52.2658" x2="285.571" y2="52.2658" gradientUnits="userSpaceOnUse">
<stop stop-color="#82C9E3"/>
<stop offset="1" stop-color="#8FD4E9"/>
</linearGradient>
<linearGradient id="paint5_linear_974_545" x1="107.975" y1="125.036" x2="119.956" y2="125.036" gradientUnits="userSpaceOnUse">
<stop stop-color="#82C9E3"/>
<stop offset="1" stop-color="#8FD4E9"/>
</linearGradient>
<linearGradient id="paint6_linear_974_545" x1="172.8" y1="23.5105" x2="186.418" y2="9.89279" gradientUnits="userSpaceOnUse">
<stop stop-color="#FDACFD"/>
<stop offset="0.0752201" stop-color="#E2A2EB" stop-opacity="0.9248"/>
<stop offset="0.2652" stop-color="#A48BC2" stop-opacity="0.7348"/>
<stop offset="0.4473" stop-color="#70789F" stop-opacity="0.5527"/>
<stop offset="0.6167" stop-color="#486984" stop-opacity="0.3833"/>
<stop offset="0.7703" stop-color="#2B5F71" stop-opacity="0.2297"/>
<stop offset="0.9031" stop-color="#195865" stop-opacity="0.0968646"/>
<stop offset="1" stop-color="#135661" stop-opacity="0"/>
</linearGradient>
<linearGradient id="paint7_linear_974_545" x1="292.34" y1="98.0788" x2="305.958" y2="84.4611" gradientUnits="userSpaceOnUse">
<stop stop-color="#FDACFD"/>
<stop offset="0.0752201" stop-color="#E2A2EB" stop-opacity="0.9248"/>
<stop offset="0.2652" stop-color="#A48BC2" stop-opacity="0.7348"/>
<stop offset="0.4473" stop-color="#70789F" stop-opacity="0.5527"/>
<stop offset="0.6167" stop-color="#486984" stop-opacity="0.3833"/>
<stop offset="0.7703" stop-color="#2B5F71" stop-opacity="0.2297"/>
<stop offset="0.9031" stop-color="#195865" stop-opacity="0.0968646"/>
<stop offset="1" stop-color="#135661" stop-opacity="0"/>
</linearGradient>
<linearGradient id="paint8_linear_974_545" x1="121.707" y1="144.501" x2="135.325" y2="130.883" gradientUnits="userSpaceOnUse">
<stop stop-color="#FDACFD"/>
<stop offset="0.0752201" stop-color="#E2A2EB" stop-opacity="0.9248"/>
<stop offset="0.2652" stop-color="#A48BC2" stop-opacity="0.7348"/>
<stop offset="0.4473" stop-color="#70789F" stop-opacity="0.5527"/>
<stop offset="0.6167" stop-color="#486984" stop-opacity="0.3833"/>
<stop offset="0.7703" stop-color="#2B5F71" stop-opacity="0.2297"/>
<stop offset="0.9031" stop-color="#195865" stop-opacity="0.0968646"/>
<stop offset="1" stop-color="#135661" stop-opacity="0"/>
</linearGradient>
<linearGradient id="paint9_linear_974_545" x1="50.1922" y1="133.209" x2="63.81" y2="119.591" gradientUnits="userSpaceOnUse">
<stop stop-color="#FDACFD"/>
<stop offset="0.0752201" stop-color="#E2A2EB" stop-opacity="0.9248"/>
<stop offset="0.2652" stop-color="#A48BC2" stop-opacity="0.7348"/>
<stop offset="0.4473" stop-color="#70789F" stop-opacity="0.5527"/>
<stop offset="0.6167" stop-color="#486984" stop-opacity="0.3833"/>
<stop offset="0.7703" stop-color="#2B5F71" stop-opacity="0.2297"/>
<stop offset="0.9031" stop-color="#195865" stop-opacity="0.0968646"/>
<stop offset="1" stop-color="#135661" stop-opacity="0"/>
</linearGradient>
<linearGradient id="paint10_linear_974_545" x1="248.574" y1="26.5932" x2="262.192" y2="12.9754" gradientUnits="userSpaceOnUse">
<stop stop-color="#FDACFD"/>
<stop offset="0.0752201" stop-color="#E2A2EB" stop-opacity="0.9248"/>
<stop offset="0.2652" stop-color="#A48BC2" stop-opacity="0.7348"/>
<stop offset="0.4473" stop-color="#70789F" stop-opacity="0.5527"/>
<stop offset="0.6167" stop-color="#486984" stop-opacity="0.3833"/>
<stop offset="0.7703" stop-color="#2B5F71" stop-opacity="0.2297"/>
<stop offset="0.9031" stop-color="#195865" stop-opacity="0.0968646"/>
<stop offset="1" stop-color="#135661" stop-opacity="0"/>
</linearGradient>
<linearGradient id="paint11_linear_974_545" x1="15.2087" y1="90.5803" x2="28.8265" y2="76.9626" gradientUnits="userSpaceOnUse">
<stop stop-color="#FDACFD"/>
<stop offset="0.0752201" stop-color="#E2A2EB" stop-opacity="0.9248"/>
<stop offset="0.2652" stop-color="#A48BC2" stop-opacity="0.7348"/>
<stop offset="0.4473" stop-color="#70789F" stop-opacity="0.5527"/>
<stop offset="0.6167" stop-color="#486984" stop-opacity="0.3833"/>
<stop offset="0.7703" stop-color="#2B5F71" stop-opacity="0.2297"/>
<stop offset="0.9031" stop-color="#195865" stop-opacity="0.0968646"/>
<stop offset="1" stop-color="#135661" stop-opacity="0"/>
</linearGradient>
<linearGradient id="paint12_linear_974_545" x1="201.45" y1="125.698" x2="243.135" y2="84.0127" gradientUnits="userSpaceOnUse">
<stop stop-color="#FDACFD"/>
<stop offset="0.0752201" stop-color="#E2A2EB" stop-opacity="0.9248"/>
<stop offset="0.2652" stop-color="#A48BC2" stop-opacity="0.7348"/>
<stop offset="0.4473" stop-color="#70789F" stop-opacity="0.5527"/>
<stop offset="0.6167" stop-color="#486984" stop-opacity="0.3833"/>
<stop offset="0.7703" stop-color="#2B5F71" stop-opacity="0.2297"/>
<stop offset="0.9031" stop-color="#195865" stop-opacity="0.0968646"/>
<stop offset="1" stop-color="#135661" stop-opacity="0"/>
</linearGradient>
<linearGradient id="paint13_linear_974_545" x1="84.6008" y1="52.7754" x2="126.286" y2="11.0902" gradientUnits="userSpaceOnUse">
<stop stop-color="#FDACFD"/>
<stop offset="0.0752201" stop-color="#E2A2EB" stop-opacity="0.9248"/>
<stop offset="0.2652" stop-color="#A48BC2" stop-opacity="0.7348"/>
<stop offset="0.4473" stop-color="#70789F" stop-opacity="0.5527"/>
<stop offset="0.6167" stop-color="#486984" stop-opacity="0.3833"/>
<stop offset="0.7703" stop-color="#2B5F71" stop-opacity="0.2297"/>
<stop offset="0.9031" stop-color="#195865" stop-opacity="0.0968646"/>
<stop offset="1" stop-color="#135661" stop-opacity="0"/>
</linearGradient>
<linearGradient id="paint14_linear_974_545" x1="145.339" y1="139.957" x2="168.916" y2="120.615" gradientUnits="userSpaceOnUse">
<stop offset="0.0178771" stop-color="#F1D3B1"/>
<stop offset="0.3915" stop-color="#D5AA90"/>
<stop offset="0.7903" stop-color="#BB8472"/>
<stop offset="1" stop-color="#B17566"/>
</linearGradient>
<linearGradient id="paint15_linear_974_545" x1="166.505" y1="117.46" x2="195.014" y2="139.231" gradientUnits="userSpaceOnUse">
<stop offset="0.1236" stop-color="#FBDCA3"/>
<stop offset="0.4054" stop-color="#FAE4AB"/>
<stop offset="0.8527" stop-color="#F8F9C2"/>
<stop offset="0.8793" stop-color="#F8FBC4"/>
</linearGradient>
<linearGradient id="paint16_linear_974_545" x1="151.69" y1="103.376" x2="185.455" y2="112.755" gradientUnits="userSpaceOnUse">
<stop offset="0.0178771" stop-color="#F9FBBA"/>
<stop offset="0.4629" stop-color="#FAFAC2"/>
<stop offset="0.8793" stop-color="#FBF8CF"/>
</linearGradient>
<linearGradient id="paint17_linear_974_545" x1="174.424" y1="119.108" x2="173.924" y2="119.897" gradientUnits="userSpaceOnUse">
<stop offset="0.0178771" stop-color="#B98176"/>
<stop offset="0.6356" stop-color="#B57B6E"/>
<stop offset="1" stop-color="#B17566"/>
</linearGradient>
<linearGradient id="paint18_linear_974_545" x1="176.39" y1="120.7" x2="176.022" y2="121.281" gradientUnits="userSpaceOnUse">
<stop offset="0.0178771" stop-color="#B98176"/>
<stop offset="0.6356" stop-color="#B57B6E"/>
<stop offset="1" stop-color="#B17566"/>
</linearGradient>
<linearGradient id="paint19_linear_974_545" x1="179.13" y1="115.853" x2="178.762" y2="116.435" gradientUnits="userSpaceOnUse">
<stop offset="0.0178771" stop-color="#B98176"/>
<stop offset="0.6356" stop-color="#B57B6E"/>
<stop offset="1" stop-color="#B17566"/>
</linearGradient>
<linearGradient id="paint20_linear_974_545" x1="172.412" y1="121.964" x2="172.026" y2="122.574" gradientUnits="userSpaceOnUse">
<stop offset="0.0178771" stop-color="#B98176"/>
<stop offset="0.6356" stop-color="#B57B6E"/>
<stop offset="1" stop-color="#B17566"/>
</linearGradient>
<linearGradient id="paint21_linear_974_545" x1="184.92" y1="119.333" x2="184.133" y2="118.79" gradientUnits="userSpaceOnUse">
<stop offset="0.0178771" stop-color="#B98176"/>
<stop offset="0.6356" stop-color="#B57B6E"/>
<stop offset="1" stop-color="#B17566"/>
</linearGradient>
<linearGradient id="paint22_linear_974_545" x1="190.977" y1="120.648" x2="190.19" y2="120.105" gradientUnits="userSpaceOnUse">
<stop offset="0.0178771" stop-color="#B98176"/>
<stop offset="0.6356" stop-color="#B57B6E"/>
<stop offset="1" stop-color="#B17566"/>
</linearGradient>
<linearGradient id="paint23_linear_974_545" x1="189.182" y1="113.321" x2="188.396" y2="112.778" gradientUnits="userSpaceOnUse">
<stop offset="0.0178771" stop-color="#B98176"/>
<stop offset="0.6356" stop-color="#B57B6E"/>
<stop offset="1" stop-color="#B17566"/>
</linearGradient>
<linearGradient id="paint24_linear_974_545" x1="183.16" y1="121.118" x2="182.58" y2="120.717" gradientUnits="userSpaceOnUse">
<stop offset="0.0178771" stop-color="#B98176"/>
<stop offset="0.6356" stop-color="#B57B6E"/>
<stop offset="1" stop-color="#B17566"/>
</linearGradient>
<linearGradient id="paint25_linear_974_545" x1="181.984" y1="117.323" x2="181.363" y2="116.894" gradientUnits="userSpaceOnUse">
<stop offset="0.0178771" stop-color="#B98176"/>
<stop offset="0.6356" stop-color="#B57B6E"/>
<stop offset="1" stop-color="#B17566"/>
</linearGradient>
<linearGradient id="paint26_linear_974_545" x1="184.251" y1="127.343" x2="183.882" y2="127.924" gradientUnits="userSpaceOnUse">
<stop offset="0.0178771" stop-color="#B98176"/>
<stop offset="0.6356" stop-color="#B57B6E"/>
<stop offset="1" stop-color="#B17566"/>
</linearGradient>
<linearGradient id="paint27_linear_974_545" x1="188.648" y1="123.525" x2="188.28" y2="124.106" gradientUnits="userSpaceOnUse">
<stop offset="0.0178771" stop-color="#B98176"/>
<stop offset="0.6356" stop-color="#B57B6E"/>
<stop offset="1" stop-color="#B17566"/>
</linearGradient>
<linearGradient id="paint28_linear_974_545" x1="188.28" y1="132.607" x2="187.7" y2="132.207" gradientUnits="userSpaceOnUse">
<stop offset="0.0178771" stop-color="#B98176"/>
<stop offset="0.6356" stop-color="#B57B6E"/>
<stop offset="1" stop-color="#B17566"/>
</linearGradient>
<linearGradient id="paint29_linear_974_545" x1="186.052" y1="137.144" x2="185.472" y2="136.744" gradientUnits="userSpaceOnUse">
<stop offset="0.0178771" stop-color="#B98176"/>
<stop offset="0.6356" stop-color="#B57B6E"/>
<stop offset="1" stop-color="#B17566"/>
</linearGradient>
<linearGradient id="paint30_linear_974_545" x1="187.104" y1="128.812" x2="186.483" y2="128.383" gradientUnits="userSpaceOnUse">
<stop offset="0.0178771" stop-color="#B98176"/>
<stop offset="0.6356" stop-color="#B57B6E"/>
<stop offset="1" stop-color="#B17566"/>
</linearGradient>
<linearGradient id="paint31_linear_974_545" x1="191.659" y1="127.442" x2="191.037" y2="127.014" gradientUnits="userSpaceOnUse">
<stop offset="0.0178771" stop-color="#B98176"/>
<stop offset="0.6356" stop-color="#B57B6E"/>
<stop offset="1" stop-color="#B17566"/>
</linearGradient>
<linearGradient id="paint32_linear_974_545" x1="177.92" y1="141.054" x2="177.809" y2="140.385" gradientUnits="userSpaceOnUse">
<stop offset="0.0178771" stop-color="#B98176"/>
<stop offset="0.6356" stop-color="#B57B6E"/>
<stop offset="1" stop-color="#B17566"/>
</linearGradient>
<linearGradient id="paint33_linear_974_545" x1="171.215" y1="139.676" x2="171.926" y2="139.586" gradientUnits="userSpaceOnUse">
<stop offset="0.0178771" stop-color="#B98176"/>
<stop offset="0.6356" stop-color="#B57B6E"/>
<stop offset="1" stop-color="#B17566"/>
</linearGradient>
<linearGradient id="paint34_linear_974_545" x1="174.778" y1="141.766" x2="175.529" y2="141.671" gradientUnits="userSpaceOnUse">
<stop offset="0.0178771" stop-color="#B98176"/>
<stop offset="0.6356" stop-color="#B57B6E"/>
<stop offset="1" stop-color="#B17566"/>
</linearGradient>
<linearGradient id="paint35_linear_974_545" x1="182.142" y1="140.335" x2="182.03" y2="139.666" gradientUnits="userSpaceOnUse">
<stop offset="0.0178771" stop-color="#B98176"/>
<stop offset="0.6356" stop-color="#B57B6E"/>
<stop offset="1" stop-color="#B17566"/>
</linearGradient>
<linearGradient id="paint36_linear_974_545" x1="173.854" y1="134.917" x2="174.565" y2="134.828" gradientUnits="userSpaceOnUse">
<stop offset="0.0178771" stop-color="#B98176"/>
<stop offset="0.6356" stop-color="#B57B6E"/>
<stop offset="1" stop-color="#B17566"/>
</linearGradient>
<linearGradient id="paint37_linear_974_545" x1="186.815" y1="138.335" x2="187.566" y2="138.24" gradientUnits="userSpaceOnUse">
<stop offset="0.0178771" stop-color="#B98176"/>
<stop offset="0.6356" stop-color="#B57B6E"/>
<stop offset="1" stop-color="#B17566"/>
</linearGradient>
<linearGradient id="paint38_linear_974_545" x1="190.574" y1="116.68" x2="189.952" y2="116.251" gradientUnits="userSpaceOnUse">
<stop offset="0.0178771" stop-color="#B98176"/>
<stop offset="0.6356" stop-color="#B57B6E"/>
<stop offset="1" stop-color="#B17566"/>
</linearGradient>
<linearGradient id="paint39_linear_974_545" x1="178.06" y1="125.198" x2="177.273" y2="124.655" gradientUnits="userSpaceOnUse">
<stop offset="0.0178771" stop-color="#B98176"/>
<stop offset="0.6356" stop-color="#B57B6E"/>
<stop offset="1" stop-color="#B17566"/>
</linearGradient>
<linearGradient id="paint40_linear_974_545" x1="166.904" y1="111.954" x2="166.96" y2="112.618" gradientUnits="userSpaceOnUse">
<stop offset="0.0178771" stop-color="#B98176"/>
<stop offset="0.6356" stop-color="#B57B6E"/>
<stop offset="1" stop-color="#B17566"/>
</linearGradient>
<linearGradient id="paint41_linear_974_545" x1="170.246" y1="100.293" x2="170.303" y2="100.957" gradientUnits="userSpaceOnUse">
<stop offset="0.0178771" stop-color="#B98176"/>
<stop offset="0.6356" stop-color="#B57B6E"/>
<stop offset="1" stop-color="#B17566"/>
</linearGradient>
<linearGradient id="paint42_linear_974_545" x1="163.246" y1="113.088" x2="163.288" y2="113.577" gradientUnits="userSpaceOnUse">
<stop offset="0.0178771" stop-color="#B98176"/>
<stop offset="0.6356" stop-color="#B57B6E"/>
<stop offset="1" stop-color="#B17566"/>
</linearGradient>
<linearGradient id="paint43_linear_974_545" x1="167.067" y1="114.433" x2="167.111" y2="114.953" gradientUnits="userSpaceOnUse">
<stop offset="0.0178771" stop-color="#B98176"/>
<stop offset="0.6356" stop-color="#B57B6E"/>
<stop offset="1" stop-color="#B17566"/>
</linearGradient>
<linearGradient id="paint44_linear_974_545" x1="178.149" y1="107.212" x2="178.193" y2="107.732" gradientUnits="userSpaceOnUse">
<stop offset="0.0178771" stop-color="#B98176"/>
<stop offset="0.6356" stop-color="#B57B6E"/>
<stop offset="1" stop-color="#B17566"/>
</linearGradient>
<linearGradient id="paint45_linear_974_545" x1="171.819" y1="113.957" x2="171.114" y2="113.989" gradientUnits="userSpaceOnUse">
<stop offset="0.0178771" stop-color="#B98176"/>
<stop offset="0.6356" stop-color="#B57B6E"/>
<stop offset="1" stop-color="#B17566"/>
</linearGradient>
<linearGradient id="paint46_linear_974_545" x1="174.97" y1="111.615" x2="174.266" y2="111.647" gradientUnits="userSpaceOnUse">
<stop offset="0.0178771" stop-color="#B98176"/>
<stop offset="0.6356" stop-color="#B57B6E"/>
<stop offset="1" stop-color="#B17566"/>
</linearGradient>
<linearGradient id="paint47_linear_974_545" x1="180.966" y1="107.027" x2="180.261" y2="107.059" gradientUnits="userSpaceOnUse">
<stop offset="0.0178771" stop-color="#B98176"/>
<stop offset="0.6356" stop-color="#B57B6E"/>
<stop offset="1" stop-color="#B17566"/>
</linearGradient>
<linearGradient id="paint48_linear_974_545" x1="158.768" y1="105.314" x2="158.825" y2="105.978" gradientUnits="userSpaceOnUse">
<stop offset="0.0178771" stop-color="#B98176"/>
<stop offset="0.6356" stop-color="#B57B6E"/>
<stop offset="1" stop-color="#B17566"/>
</linearGradient>
<linearGradient id="paint49_linear_974_545" x1="157.826" y1="106.624" x2="157.868" y2="107.113" gradientUnits="userSpaceOnUse">
<stop offset="0.0178771" stop-color="#B98176"/>
<stop offset="0.6356" stop-color="#B57B6E"/>
<stop offset="1" stop-color="#B17566"/>
</linearGradient>
<linearGradient id="paint50_linear_974_545" x1="154.358" y1="109.183" x2="154.403" y2="109.703" gradientUnits="userSpaceOnUse">
<stop offset="0.0178771" stop-color="#B98176"/>
<stop offset="0.6356" stop-color="#B57B6E"/>
<stop offset="1" stop-color="#B17566"/>
</linearGradient>
<linearGradient id="paint51_linear_974_545" x1="162.584" y1="107.939" x2="161.879" y2="107.971" gradientUnits="userSpaceOnUse">
<stop offset="0.0178771" stop-color="#B98176"/>
<stop offset="0.6356" stop-color="#B57B6E"/>
<stop offset="1" stop-color="#B17566"/>
</linearGradient>
<linearGradient id="paint52_linear_974_545" x1="183.64" y1="106.624" x2="183.681" y2="107.113" gradientUnits="userSpaceOnUse">
<stop offset="0.0178771" stop-color="#B98176"/>
<stop offset="0.6356" stop-color="#B57B6E"/>
<stop offset="1" stop-color="#B17566"/>
</linearGradient>
<linearGradient id="paint53_linear_974_545" x1="173.569" y1="115.671" x2="173.611" y2="116.16" gradientUnits="userSpaceOnUse">
<stop offset="0.0178771" stop-color="#B98176"/>
<stop offset="0.6356" stop-color="#B57B6E"/>
<stop offset="1" stop-color="#B17566"/>
</linearGradient>
<linearGradient id="paint54_linear_974_545" x1="188.398" y1="107.939" x2="187.693" y2="107.971" gradientUnits="userSpaceOnUse">
<stop offset="0.0178771" stop-color="#B98176"/>
<stop offset="0.6356" stop-color="#B57B6E"/>
<stop offset="1" stop-color="#B17566"/>
</linearGradient>
<linearGradient id="paint55_linear_974_545" x1="185.253" y1="131.827" x2="184.467" y2="131.284" gradientUnits="userSpaceOnUse">
<stop offset="0.0178771" stop-color="#B98176"/>
<stop offset="0.6356" stop-color="#B57B6E"/>
<stop offset="1" stop-color="#B17566"/>
</linearGradient>
<linearGradient id="paint56_linear_974_545" x1="190.706" y1="137.305" x2="189.92" y2="136.762" gradientUnits="userSpaceOnUse">
<stop offset="0.0178771" stop-color="#B98176"/>
<stop offset="0.6356" stop-color="#B57B6E"/>
<stop offset="1" stop-color="#B17566"/>
</linearGradient>
<linearGradient id="paint57_linear_974_545" x1="173.164" y1="129.68" x2="172.377" y2="129.137" gradientUnits="userSpaceOnUse">
<stop offset="0.0178771" stop-color="#B98176"/>
<stop offset="0.6356" stop-color="#B57B6E"/>
<stop offset="1" stop-color="#B17566"/>
</linearGradient>
<linearGradient id="paint58_linear_974_545" x1="176.3" y1="126.983" x2="175.72" y2="126.583" gradientUnits="userSpaceOnUse">
<stop offset="0.0178771" stop-color="#B98176"/>
<stop offset="0.6356" stop-color="#B57B6E"/>
<stop offset="1" stop-color="#B17566"/>
</linearGradient>
<linearGradient id="paint59_linear_974_545" x1="177.792" y1="133.674" x2="177.17" y2="133.245" gradientUnits="userSpaceOnUse">
<stop offset="0.0178771" stop-color="#B98176"/>
<stop offset="0.6356" stop-color="#B57B6E"/>
<stop offset="1" stop-color="#B17566"/>
</linearGradient>
<linearGradient id="paint60_linear_974_545" x1="173.453" y1="146.179" x2="172.831" y2="145.75" gradientUnits="userSpaceOnUse">
<stop offset="0.0178771" stop-color="#B98176"/>
<stop offset="0.6356" stop-color="#B57B6E"/>
<stop offset="1" stop-color="#B17566"/>
</linearGradient>
<linearGradient id="paint61_linear_974_545" x1="166.018" y1="118.886" x2="166.518" y2="119.675" gradientUnits="userSpaceOnUse">
<stop offset="0.0178771" stop-color="#B98176"/>
<stop offset="0.6356" stop-color="#B57B6E"/>
<stop offset="1" stop-color="#B17566"/>
</linearGradient>
<linearGradient id="paint62_linear_974_545" x1="164.052" y1="120.479" x2="164.42" y2="121.06" gradientUnits="userSpaceOnUse">
<stop offset="0.0178771" stop-color="#B98176"/>
<stop offset="0.6356" stop-color="#B57B6E"/>
<stop offset="1" stop-color="#B17566"/>
</linearGradient>
<linearGradient id="paint63_linear_974_545" x1="161.312" y1="115.632" x2="161.68" y2="116.214" gradientUnits="userSpaceOnUse">
<stop offset="0.0178771" stop-color="#B98176"/>
<stop offset="0.6356" stop-color="#B57B6E"/>
<stop offset="1" stop-color="#B17566"/>
</linearGradient>
<linearGradient id="paint64_linear_974_545" x1="168.03" y1="121.743" x2="168.415" y2="122.352" gradientUnits="userSpaceOnUse">
<stop offset="0.0178771" stop-color="#B98176"/>
<stop offset="0.6356" stop-color="#B57B6E"/>
<stop offset="1" stop-color="#B17566"/>
</linearGradient>
<linearGradient id="paint65_linear_974_545" x1="155.522" y1="119.111" x2="156.308" y2="118.568" gradientUnits="userSpaceOnUse">
<stop offset="0.0178771" stop-color="#B98176"/>
<stop offset="0.6356" stop-color="#B57B6E"/>
<stop offset="1" stop-color="#B17566"/>
</linearGradient>
<linearGradient id="paint66_linear_974_545" x1="149.465" y1="120.427" x2="150.252" y2="119.884" gradientUnits="userSpaceOnUse">
<stop offset="0.0178771" stop-color="#B98176"/>
<stop offset="0.6356" stop-color="#B57B6E"/>
<stop offset="1" stop-color="#B17566"/>
</linearGradient>
<linearGradient id="paint67_linear_974_545" x1="151.259" y1="113.1" x2="152.046" y2="112.557" gradientUnits="userSpaceOnUse">
<stop offset="0.0178771" stop-color="#B98176"/>
<stop offset="0.6356" stop-color="#B57B6E"/>
<stop offset="1" stop-color="#B17566"/>
</linearGradient>
<linearGradient id="paint68_linear_974_545" x1="158.689" y1="121.353" x2="159.269" y2="120.953" gradientUnits="userSpaceOnUse">
<stop offset="0.0178771" stop-color="#B98176"/>
<stop offset="0.6356" stop-color="#B57B6E"/>
<stop offset="1" stop-color="#B17566"/>
</linearGradient>
<linearGradient id="paint69_linear_974_545" x1="158.458" y1="117.101" x2="159.079" y2="116.673" gradientUnits="userSpaceOnUse">
<stop offset="0.0178771" stop-color="#B98176"/>
<stop offset="0.6356" stop-color="#B57B6E"/>
<stop offset="1" stop-color="#B17566"/>
</linearGradient>
<linearGradient id="paint70_linear_974_545" x1="148.452" y1="109.94" x2="148.82" y2="110.522" gradientUnits="userSpaceOnUse">
<stop offset="0.0178771" stop-color="#B98176"/>
<stop offset="0.6356" stop-color="#B57B6E"/>
<stop offset="1" stop-color="#B17566"/>
</linearGradient>
<linearGradient id="paint71_linear_974_545" x1="151.794" y1="123.303" x2="152.162" y2="123.885" gradientUnits="userSpaceOnUse">
<stop offset="0.0178771" stop-color="#B98176"/>
<stop offset="0.6356" stop-color="#B57B6E"/>
<stop offset="1" stop-color="#B17566"/>
</linearGradient>
<linearGradient id="paint72_linear_974_545" x1="152.161" y1="132.386" x2="152.741" y2="131.986" gradientUnits="userSpaceOnUse">
<stop offset="0.0178771" stop-color="#B98176"/>
<stop offset="0.6356" stop-color="#B57B6E"/>
<stop offset="1" stop-color="#B17566"/>
</linearGradient>
<linearGradient id="paint73_linear_974_545" x1="154.389" y1="136.923" x2="154.969" y2="136.523" gradientUnits="userSpaceOnUse">
<stop offset="0.0178771" stop-color="#B98176"/>
<stop offset="0.6356" stop-color="#B57B6E"/>
<stop offset="1" stop-color="#B17566"/>
</linearGradient>
<linearGradient id="paint74_linear_974_545" x1="168.462" y1="142.152" x2="169.042" y2="141.752" gradientUnits="userSpaceOnUse">
<stop offset="0.0178771" stop-color="#B98176"/>
<stop offset="0.6356" stop-color="#B57B6E"/>
<stop offset="1" stop-color="#B17566"/>
</linearGradient>
<linearGradient id="paint75_linear_974_545" x1="153.337" y1="128.591" x2="153.959" y2="128.162" gradientUnits="userSpaceOnUse">
<stop offset="0.0178771" stop-color="#B98176"/>
<stop offset="0.6356" stop-color="#B57B6E"/>
<stop offset="1" stop-color="#B17566"/>
</linearGradient>
<linearGradient id="paint76_linear_974_545" x1="148.783" y1="127.221" x2="149.405" y2="126.792" gradientUnits="userSpaceOnUse">
<stop offset="0.0178771" stop-color="#B98176"/>
<stop offset="0.6356" stop-color="#B57B6E"/>
<stop offset="1" stop-color="#B17566"/>
</linearGradient>
<linearGradient id="paint77_linear_974_545" x1="160.294" y1="133.64" x2="160.405" y2="132.971" gradientUnits="userSpaceOnUse">
<stop offset="0.0178771" stop-color="#B98176"/>
<stop offset="0.6356" stop-color="#B57B6E"/>
<stop offset="1" stop-color="#B17566"/>
</linearGradient>
<linearGradient id="paint78_linear_974_545" x1="166.999" y1="132.262" x2="166.288" y2="132.172" gradientUnits="userSpaceOnUse">
<stop offset="0.0178771" stop-color="#B98176"/>
<stop offset="0.6356" stop-color="#B57B6E"/>
<stop offset="1" stop-color="#B17566"/>
</linearGradient>
<linearGradient id="paint79_linear_974_545" x1="163.436" y1="134.351" x2="162.685" y2="134.256" gradientUnits="userSpaceOnUse">
<stop offset="0.0178771" stop-color="#B98176"/>
<stop offset="0.6356" stop-color="#B57B6E"/>
<stop offset="1" stop-color="#B17566"/>
</linearGradient>
<linearGradient id="paint80_linear_974_545" x1="158.3" y1="140.114" x2="158.412" y2="139.445" gradientUnits="userSpaceOnUse">
<stop offset="0.0178771" stop-color="#B98176"/>
<stop offset="0.6356" stop-color="#B57B6E"/>
<stop offset="1" stop-color="#B17566"/>
</linearGradient>
<linearGradient id="paint81_linear_974_545" x1="166.588" y1="134.696" x2="165.877" y2="134.606" gradientUnits="userSpaceOnUse">
<stop offset="0.0178771" stop-color="#B98176"/>
<stop offset="0.6356" stop-color="#B57B6E"/>
<stop offset="1" stop-color="#B17566"/>
</linearGradient>
<linearGradient id="paint82_linear_974_545" x1="153.627" y1="138.114" x2="152.876" y2="138.019" gradientUnits="userSpaceOnUse">
<stop offset="0.0178771" stop-color="#B98176"/>
<stop offset="0.6356" stop-color="#B57B6E"/>
<stop offset="1" stop-color="#B17566"/>
</linearGradient>
<linearGradient id="paint83_linear_974_545" x1="149.868" y1="116.459" x2="150.49" y2="116.03" gradientUnits="userSpaceOnUse">
<stop offset="0.0178771" stop-color="#B98176"/>
<stop offset="0.6356" stop-color="#B57B6E"/>
<stop offset="1" stop-color="#B17566"/>
</linearGradient>
<linearGradient id="paint84_linear_974_545" x1="162.382" y1="124.977" x2="163.168" y2="124.434" gradientUnits="userSpaceOnUse">
<stop offset="0.0178771" stop-color="#B98176"/>
<stop offset="0.6356" stop-color="#B57B6E"/>
<stop offset="1" stop-color="#B17566"/>
</linearGradient>
<linearGradient id="paint85_linear_974_545" x1="155.188" y1="131.606" x2="155.975" y2="131.063" gradientUnits="userSpaceOnUse">
<stop offset="0.0178771" stop-color="#B98176"/>
<stop offset="0.6356" stop-color="#B57B6E"/>
<stop offset="1" stop-color="#B17566"/>
</linearGradient>
<linearGradient id="paint86_linear_974_545" x1="161.257" y1="143.448" x2="162.043" y2="142.905" gradientUnits="userSpaceOnUse">
<stop offset="0.0178771" stop-color="#B98176"/>
<stop offset="0.6356" stop-color="#B57B6E"/>
<stop offset="1" stop-color="#B17566"/>
</linearGradient>
<linearGradient id="paint87_linear_974_545" x1="149.735" y1="137.084" x2="150.522" y2="136.541" gradientUnits="userSpaceOnUse">
<stop offset="0.0178771" stop-color="#B98176"/>
<stop offset="0.6356" stop-color="#B57B6E"/>
<stop offset="1" stop-color="#B17566"/>
</linearGradient>
<linearGradient id="paint88_linear_974_545" x1="167.278" y1="129.459" x2="168.064" y2="128.916" gradientUnits="userSpaceOnUse">
<stop offset="0.0178771" stop-color="#B98176"/>
<stop offset="0.6356" stop-color="#B57B6E"/>
<stop offset="1" stop-color="#B17566"/>
</linearGradient>
<linearGradient id="paint89_linear_974_545" x1="159.152" y1="126.244" x2="159.732" y2="125.844" gradientUnits="userSpaceOnUse">
<stop offset="0.0178771" stop-color="#B98176"/>
<stop offset="0.6356" stop-color="#B57B6E"/>
<stop offset="1" stop-color="#B17566"/>
</linearGradient>
<linearGradient id="paint90_linear_974_545" x1="166.022" y1="144.409" x2="166.643" y2="143.98" gradientUnits="userSpaceOnUse">
<stop offset="0.0178771" stop-color="#B98176"/>
<stop offset="0.6356" stop-color="#B57B6E"/>
<stop offset="1" stop-color="#B17566"/>
</linearGradient>
<linearGradient id="paint91_linear_974_545" x1="164.761" y1="138.765" x2="165.382" y2="138.336" gradientUnits="userSpaceOnUse">
<stop offset="0.0178771" stop-color="#B98176"/>
<stop offset="0.6356" stop-color="#B57B6E"/>
<stop offset="1" stop-color="#B17566"/>
</linearGradient>
<linearGradient id="paint92_linear_974_545" x1="159.722" y1="115.154" x2="167.676" y2="103.731" gradientUnits="userSpaceOnUse">
<stop offset="0.1928" stop-color="#FD202B"/>
<stop offset="0.3544" stop-color="#EE1C26"/>
<stop offset="0.6637" stop-color="#C81019"/>
<stop offset="1" stop-color="#970209"/>
</linearGradient>
<linearGradient id="paint93_linear_974_545" x1="180.461" y1="115.741" x2="172.182" y2="103.772" gradientUnits="userSpaceOnUse">
<stop offset="0.1928" stop-color="#FD202B"/>
<stop offset="0.3544" stop-color="#EE1C26"/>
<stop offset="0.6637" stop-color="#C81019"/>
<stop offset="1" stop-color="#970209"/>
</linearGradient>
<linearGradient id="paint94_linear_974_545" x1="167.531" y1="92.5705" x2="170.109" y2="108.044" gradientUnits="userSpaceOnUse">
<stop offset="0.1815" stop-color="#770206"/>
<stop offset="0.6597" stop-color="#8C060E"/>
<stop offset="0.9582" stop-color="#A60309"/>
</linearGradient>
<linearGradient id="paint95_linear_974_545" x1="176.256" y1="104.973" x2="164.022" y2="96.9575" gradientUnits="userSpaceOnUse">
<stop offset="0.1526" stop-color="#EE9426"/>
<stop offset="0.9289" stop-color="#F6F047"/>
</linearGradient>
<linearGradient id="paint96_linear_974_545" x1="173.163" y1="91.4822" x2="166.846" y2="104.227" gradientUnits="userSpaceOnUse">
<stop stop-color="#770206"/>
<stop offset="0.5198" stop-color="#930308"/>
<stop offset="0.9582" stop-color="#A60309"/>
</linearGradient>
<linearGradient id="paint97_linear_974_545" x1="167.001" y1="89.6816" x2="172.582" y2="101.907" gradientUnits="userSpaceOnUse">
<stop offset="0.0983235" stop-color="#880308"/>
<stop offset="0.4044" stop-color="#EE1F26"/>
<stop offset="0.7797" stop-color="#B00A0C"/>
</linearGradient>
<linearGradient id="paint98_linear_974_545" x1="172.072" y1="107.744" x2="172.695" y2="95.2032" gradientUnits="userSpaceOnUse">
<stop offset="0.1815" stop-color="#770206"/>
<stop offset="0.6597" stop-color="#8C060E"/>
<stop offset="0.9582" stop-color="#A60309"/>
</linearGradient>
<linearGradient id="paint99_linear_974_545" x1="160.157" y1="97.6442" x2="171.928" y2="108.676" gradientUnits="userSpaceOnUse">
<stop offset="0.1815" stop-color="#770206"/>
<stop offset="0.4585" stop-color="#8C060E"/>
<stop offset="0.9582" stop-color="#A60309"/>
</linearGradient>
<linearGradient id="paint100_linear_974_545" x1="171.797" y1="103.592" x2="161.485" y2="104.792" gradientUnits="userSpaceOnUse">
<stop offset="0.1526" stop-color="#EE9426"/>
<stop offset="0.9289" stop-color="#F6F047"/>
</linearGradient>
<linearGradient id="paint101_linear_974_545" x1="163.648" y1="94.8628" x2="163.48" y2="106.311" gradientUnits="userSpaceOnUse">
<stop stop-color="#770206"/>
<stop offset="0.5198" stop-color="#930308"/>
<stop offset="0.9582" stop-color="#A60309"/>
</linearGradient>
<linearGradient id="paint102_linear_974_545" x1="160.149" y1="94.4615" x2="169.726" y2="104.173" gradientUnits="userSpaceOnUse">
<stop offset="0.0983235" stop-color="#880308"/>
<stop offset="0.1567" stop-color="#9A080D"/>
<stop offset="0.2733" stop-color="#C9151B"/>
<stop offset="0.3553" stop-color="#EE1F26"/>
<stop offset="0.7797" stop-color="#B00A0C"/>
</linearGradient>
<linearGradient id="paint103_linear_974_545" x1="160.24" y1="94.5749" x2="169.738" y2="104.206" gradientUnits="userSpaceOnUse">
<stop offset="0.0983235" stop-color="#880308"/>
<stop offset="0.1567" stop-color="#9A080D"/>
<stop offset="0.2733" stop-color="#C9151B"/>
<stop offset="0.3553" stop-color="#EE1F26"/>
<stop offset="0.7797" stop-color="#B00A0C"/>
</linearGradient>
<linearGradient id="paint104_linear_974_545" x1="170.293" y1="104.659" x2="164.951" y2="99.5697" gradientUnits="userSpaceOnUse">
<stop offset="0.1815" stop-color="#770206"/>
<stop offset="0.5918" stop-color="#8E0207"/>
<stop offset="0.9582" stop-color="#A60309"/>
</linearGradient>
<linearGradient id="paint105_linear_974_545" x1="167.131" y1="107.552" x2="181.654" y2="98.6618" gradientUnits="userSpaceOnUse">
<stop offset="0.1815" stop-color="#770206"/>
<stop offset="0.4585" stop-color="#8C060E"/>
<stop offset="0.9582" stop-color="#A60309"/>
</linearGradient>
<linearGradient id="paint106_linear_974_545" x1="176.678" y1="100.471" x2="181.426" y2="88.2877" gradientUnits="userSpaceOnUse">
<stop stop-color="#880308"/>
<stop offset="0.0577707" stop-color="#8D0409"/>
<stop offset="0.1261" stop-color="#9B080E"/>
<stop offset="0.1998" stop-color="#B30F15"/>
<stop offset="0.2767" stop-color="#D4181E"/>
<stop offset="0.3272" stop-color="#EE1F26"/>
<stop offset="0.6965" stop-color="#B00A0C"/>
</linearGradient>
<linearGradient id="paint107_linear_974_545" x1="169.717" y1="103.592" x2="180.029" y2="104.792" gradientUnits="userSpaceOnUse">
<stop offset="0.1526" stop-color="#EE9426"/>
<stop offset="0.9289" stop-color="#F6F047"/>
</linearGradient>
<linearGradient id="paint108_linear_974_545" x1="181.777" y1="94.8811" x2="175.556" y2="103.619" gradientUnits="userSpaceOnUse">
<stop offset="0.1049" stop-color="#EE1F26"/>
<stop offset="0.266" stop-color="#E91D24"/>
<stop offset="0.4487" stop-color="#DC191E"/>
<stop offset="0.6413" stop-color="#C51115"/>
<stop offset="0.7797" stop-color="#B00A0C"/>
</linearGradient>
<linearGradient id="paint109_linear_974_545" x1="152.688" y1="103.793" x2="170.662" y2="112.67" gradientUnits="userSpaceOnUse">
<stop offset="0.1815" stop-color="#770206"/>
<stop offset="0.4585" stop-color="#8C060E"/>
<stop offset="0.9582" stop-color="#A60309"/>
</linearGradient>
<linearGradient id="paint110_linear_974_545" x1="160.848" y1="99.7961" x2="164.339" y2="109.848" gradientUnits="userSpaceOnUse">
<stop offset="0.0503873" stop-color="#880308"/>
<stop offset="0.1344" stop-color="#B40F15"/>
<stop offset="0.2263" stop-color="#DE1B21"/>
<stop offset="0.2734" stop-color="#EE1F26"/>
<stop offset="0.5839" stop-color="#B00A0C"/>
</linearGradient>
<linearGradient id="paint111_linear_974_545" x1="152.344" y1="102.786" x2="172.928" y2="111.482" gradientUnits="userSpaceOnUse">
<stop stop-color="#770206"/>
<stop offset="0.5198" stop-color="#930308"/>
<stop offset="0.9582" stop-color="#A60309"/>
</linearGradient>
<linearGradient id="paint112_linear_974_545" x1="173.804" y1="109.587" x2="189.9" y2="105.245" gradientUnits="userSpaceOnUse">
<stop offset="0.1815" stop-color="#770206"/>
<stop offset="0.6597" stop-color="#8C060E"/>
<stop offset="0.9582" stop-color="#A60309"/>
</linearGradient>
<linearGradient id="paint113_linear_974_545" x1="180.534" y1="99.7961" x2="177.043" y2="109.849" gradientUnits="userSpaceOnUse">
<stop offset="0.0503873" stop-color="#880308"/>
<stop offset="0.1344" stop-color="#B40F15"/>
<stop offset="0.2263" stop-color="#DE1B21"/>
<stop offset="0.2734" stop-color="#EE1F26"/>
<stop offset="0.5839" stop-color="#B00A0C"/>
</linearGradient>
<linearGradient id="paint114_linear_974_545" x1="189.099" y1="101.431" x2="172.113" y2="112.175" gradientUnits="userSpaceOnUse">
<stop offset="0.1544" stop-color="#ED1D27"/>
<stop offset="0.2648" stop-color="#E01A23"/>
<stop offset="0.4709" stop-color="#BC121A"/>
<stop offset="0.7484" stop-color="#84050A"/>
<stop offset="0.7797" stop-color="#7D0308"/>
</linearGradient>
<linearGradient id="paint115_linear_974_545" x1="155.206" y1="142.594" x2="157.346" y2="111.108" gradientUnits="userSpaceOnUse">
<stop offset="0.017877" stop-color="#8F0202"/>
<stop offset="0.4682" stop-color="#960204"/>
<stop offset="0.7493" stop-color="#B40105"/>
<stop offset="0.9289" stop-color="#C20105"/>
</linearGradient>
<linearGradient id="paint116_linear_974_545" x1="183.806" y1="112.225" x2="183.805" y2="144.201" gradientUnits="userSpaceOnUse">
<stop offset="0.017877" stop-color="#FB2627"/>
<stop offset="0.1829" stop-color="#F42324"/>
<stop offset="0.4305" stop-color="#DF1C1D"/>
<stop offset="0.7287" stop-color="#BE0F11"/>
<stop offset="0.8346" stop-color="#B00A0C"/>
<stop offset="0.9749" stop-color="#B1090B"/>
</linearGradient>
</defs>
</svg>
