<svg width="393" height="185" viewBox="0 0 393 185" fill="none" xmlns="http://www.w3.org/2000/svg">
<g clip-path="url(#clip0_930_603)">
<path d="M122.392 6.67658C123.167 6.67658 123.795 6.04905 123.795 5.27495C123.795 4.50085 123.167 3.87332 122.392 3.87332C121.617 3.87332 120.988 4.50085 120.988 5.27495C120.988 6.04905 121.617 6.67658 122.392 6.67658Z" fill="#CFE4BA"/>
<path d="M116.913 81.0835C117.688 81.0835 118.317 80.456 118.317 79.6819C118.317 78.9078 117.688 78.2802 116.913 78.2802C116.138 78.2802 115.509 78.9078 115.509 79.6819C115.509 80.456 116.138 81.0835 116.913 81.0835Z" fill="#CFE4BA"/>
<path d="M83.0133 41.9886C83.7885 41.9886 84.417 41.3611 84.417 40.587C84.417 39.8129 83.7885 39.1853 83.0133 39.1853C82.2381 39.1853 81.6096 39.8129 81.6096 40.587C81.6096 41.3611 82.2381 41.9886 83.0133 41.9886Z" fill="#CFE4BA"/>
<path d="M231.924 24.3552C232.699 24.3552 233.328 23.7277 233.328 22.9536C233.328 22.1795 232.699 21.5519 231.924 21.5519C231.149 21.5519 230.52 22.1795 230.52 22.9536C230.52 23.7277 231.149 24.3552 231.924 24.3552Z" fill="#CFE4BA"/>
<path d="M360.64 83.5853C361.107 83.5853 361.485 83.2075 361.485 82.7413C361.485 82.2752 361.107 81.8974 360.64 81.8974C360.173 81.8974 359.795 82.2752 359.795 82.7413C359.795 83.2075 360.173 83.5853 360.64 83.5853Z" fill="#CFE4BA"/>
<path d="M337.758 40.3157C338.225 40.3157 338.604 39.9378 338.604 39.4717C338.604 39.0056 338.225 38.6277 337.758 38.6277C337.292 38.6277 336.913 39.0056 336.913 39.4717C336.913 39.9378 337.292 40.3157 337.758 40.3157Z" fill="#CFE4BA"/>
<path d="M273.265 89.7796C273.731 89.7796 274.11 89.4018 274.11 88.9356C274.11 88.4695 273.731 88.0916 273.265 88.0916C272.798 88.0916 272.419 88.4695 272.419 88.9356C272.419 89.4018 272.798 89.7796 273.265 89.7796Z" fill="#CFE4BA"/>
<path d="M184.365 1.68798C184.832 1.68798 185.21 1.31012 185.21 0.843992C185.21 0.377868 184.832 0 184.365 0C183.898 0 183.52 0.377868 183.52 0.843992C183.52 1.31012 183.898 1.68798 184.365 1.68798Z" fill="#CFE4BA"/>
<path d="M292.177 45.5153C292.643 45.5153 293.022 45.1374 293.022 44.6713C293.022 44.2052 292.643 43.8273 292.177 43.8273C291.71 43.8273 291.331 44.2052 291.331 44.6713C291.331 45.1374 291.71 45.5153 292.177 45.5153Z" fill="#CFE4BA"/>
<path d="M280.102 134.436C280.569 134.436 280.947 134.058 280.947 133.592C280.947 133.126 280.569 132.748 280.102 132.748C279.635 132.748 279.257 133.126 279.257 133.592C279.257 134.058 279.635 134.436 280.102 134.436Z" fill="#CFE4BA"/>
<path d="M128.55 48.5295C129.017 48.5295 129.395 48.1517 129.395 47.6855C129.395 47.2194 129.017 46.8416 128.55 46.8416C128.083 46.8416 127.705 47.2194 127.705 47.6855C127.705 48.1517 128.083 48.5295 128.55 48.5295Z" fill="#CFE4BA"/>
<path d="M53.3398 44.7768C53.8066 44.7768 54.185 44.3989 54.185 43.9328C54.185 43.4667 53.8066 43.0888 53.3398 43.0888C52.873 43.0888 52.4946 43.4667 52.4946 43.9328C52.4946 44.3989 52.873 44.7768 53.3398 44.7768Z" fill="#CFE4BA"/>
<path d="M110.302 131.09C110.769 131.09 111.147 130.712 111.147 130.246C111.147 129.78 110.769 129.402 110.302 129.402C109.835 129.402 109.457 129.78 109.457 130.246C109.457 130.712 109.835 131.09 110.302 131.09Z" fill="#CFE4BA"/>
<path d="M170.675 173.29C171.142 173.29 171.521 172.912 171.521 172.446C171.521 171.98 171.142 171.602 170.675 171.602C170.209 171.602 169.83 171.98 169.83 172.446C169.83 172.912 170.209 173.29 170.675 173.29Z" fill="#CFE4BA"/>
<path d="M114.226 173.862C114.693 173.862 115.072 173.484 115.072 173.018C115.072 172.552 114.693 172.174 114.226 172.174C113.759 172.174 113.381 172.552 113.381 173.018C113.381 173.484 113.759 173.862 114.226 173.862Z" fill="#CFE4BA"/>
<path d="M331.314 120.796C331.78 120.796 332.159 120.418 332.159 119.952C332.159 119.486 331.78 119.108 331.314 119.108C330.847 119.108 330.468 119.486 330.468 119.952C330.468 120.418 330.847 120.796 331.314 120.796Z" fill="#CFE4BA"/>
<path d="M325.306 167.532C325.773 167.532 326.152 167.155 326.152 166.688C326.152 166.222 325.773 165.844 325.306 165.844C324.84 165.844 324.461 166.222 324.461 166.688C324.461 167.155 324.84 167.532 325.306 167.532Z" fill="#CFE4BA"/>
<path d="M180.244 14.0163C181.02 14.0163 181.648 13.3888 181.648 12.6147C181.648 11.8406 181.02 11.213 180.244 11.213C179.469 11.213 178.841 11.8406 178.841 12.6147C178.841 13.3888 179.469 14.0163 180.244 14.0163Z" fill="#CFE4BA"/>
<path d="M189.119 185.015C189.895 185.015 190.523 184.388 190.523 183.613C190.523 182.839 189.895 182.212 189.119 182.212C188.344 182.212 187.716 182.839 187.716 183.613C187.716 184.388 188.344 185.015 189.119 185.015Z" fill="#CFE4BA"/>
<path d="M392.155 103.193C392.622 103.193 393 102.815 393 102.349C393 101.883 392.622 101.505 392.155 101.505C391.688 101.505 391.31 101.883 391.31 102.349C391.31 102.815 391.688 103.193 392.155 103.193Z" fill="#CFE4BA"/>
<path d="M69.1576 91.136C69.6244 91.136 70.0028 90.7582 70.0028 90.2921C70.0028 89.8259 69.6244 89.4481 69.1576 89.4481C68.6908 89.4481 68.3124 89.8259 68.3124 90.2921C68.3124 90.7582 68.6908 91.136 69.1576 91.136Z" fill="#CFE4BA"/>
<path d="M380.623 123.6C381.399 123.6 382.027 122.972 382.027 122.198C382.027 121.424 381.399 120.796 380.623 120.796C379.848 120.796 379.22 121.424 379.22 122.198C379.22 122.972 379.848 123.6 380.623 123.6Z" fill="#CFE4BA"/>
<path d="M0.845226 71.7092C1.31203 71.7092 1.69045 71.3313 1.69045 70.8652C1.69045 70.399 1.31203 70.0212 0.845226 70.0212C0.378421 70.0212 0 70.399 0 70.8652C0 71.3313 0.378421 71.7092 0.845226 71.7092Z" fill="#CFE4BA"/>
<path d="M28.1943 74.6782C28.9696 74.6782 29.598 74.0507 29.598 73.2766C29.598 72.5025 28.9696 71.8749 28.1943 71.8749C27.4191 71.8749 26.7906 72.5025 26.7906 73.2766C26.7906 74.0507 27.4191 74.6782 28.1943 74.6782Z" fill="#CFE4BA"/>
<path d="M287.135 5.68187C287.911 5.68187 288.539 5.05434 288.539 4.28025C288.539 3.50615 287.911 2.87862 287.135 2.87862C286.36 2.87862 285.732 3.50615 285.732 4.28025C285.732 5.05434 286.36 5.68187 287.135 5.68187Z" fill="#CFE4BA"/>
<path d="M303.436 82.1988C304.211 82.1988 304.84 81.5712 304.84 80.7971C304.84 80.023 304.211 79.3955 303.436 79.3955C302.661 79.3955 302.033 80.023 302.033 80.7971C302.033 81.5712 302.661 82.1988 303.436 82.1988Z" fill="#CFE4BA"/>
<path d="M306.047 162.423C306.823 162.423 307.451 161.796 307.451 161.022C307.451 160.247 306.823 159.62 306.047 159.62C305.272 159.62 304.644 160.247 304.644 161.022C304.644 161.796 305.272 162.423 306.047 162.423Z" fill="#CFE4BA"/>
<path d="M85.715 133.321C86.4902 133.321 87.1187 132.693 87.1187 131.919C87.1187 131.145 86.4902 130.517 85.715 130.517C84.9398 130.517 84.3113 131.145 84.3113 131.919C84.3113 132.693 84.9398 133.321 85.715 133.321Z" fill="#CFE4BA"/>
<path d="M244.995 170.878C245.77 170.878 246.399 170.251 246.399 169.477C246.399 168.702 245.77 168.075 244.995 168.075C244.22 168.075 243.591 168.702 243.591 169.477C243.591 170.251 244.22 170.878 244.995 170.878Z" fill="#CFE4BA"/>
<path d="M33.4015 120.374C34.1768 120.374 34.8052 119.747 34.8052 118.973C34.8052 118.199 34.1768 117.571 33.4015 117.571C32.6263 117.571 31.9978 118.199 31.9978 118.973C31.9978 119.747 32.6263 120.374 33.4015 120.374Z" fill="#CFE4BA"/>
<path d="M271.725 21.5067C269.084 21.5067 266.956 23.6469 266.956 26.2693C266.956 23.6318 264.812 21.5067 262.186 21.5067C264.827 21.5067 266.956 19.3666 266.956 16.7442C266.956 19.3817 269.099 21.5067 271.725 21.5067Z" fill="url(#paint0_linear_930_603)"/>
<path d="M306.44 130.02C303.798 130.02 301.67 132.16 301.67 134.782C301.67 132.145 299.527 130.02 296.901 130.02C299.542 130.02 301.67 127.88 301.67 125.257C301.67 127.895 303.814 130.02 306.44 130.02Z" fill="url(#paint1_linear_930_603)"/>
<path d="M117.773 30.5495C115.132 30.5495 113.004 32.6896 113.004 35.312C113.004 32.6745 110.86 30.5495 108.234 30.5495C110.876 30.5495 113.004 28.4094 113.004 25.787C113.004 28.4244 115.147 30.5495 117.773 30.5495Z" fill="url(#paint2_linear_930_603)"/>
<path d="M58.9093 77.2705C56.2679 77.2705 54.1398 79.4106 54.1398 82.033C54.1398 79.3955 51.9965 77.2705 49.3703 77.2705C52.0116 77.2705 54.1398 75.1303 54.1398 72.5079C54.1398 75.1454 56.283 77.2705 58.9093 77.2705Z" fill="url(#paint3_linear_930_603)"/>
<path d="M343.584 62.787C339.6 62.787 336.385 66.0122 336.385 69.976C336.385 65.9971 333.155 62.787 329.185 62.787C333.17 62.787 336.385 59.5617 336.385 55.598C336.385 59.5768 339.615 62.787 343.584 62.787Z" fill="url(#paint4_linear_930_603)"/>
<path d="M144.353 150.2C140.368 150.2 137.153 153.426 137.153 157.389C137.153 153.411 133.923 150.2 129.954 150.2C133.938 150.2 137.153 146.975 137.153 143.011C137.153 146.99 140.383 150.2 144.353 150.2Z" fill="url(#paint5_linear_930_603)"/>
<path style="mix-blend-mode:screen" d="M207.926 27.7312C207.79 27.8668 207.79 28.1079 207.926 28.2436C208.061 28.3792 208.303 28.3792 208.439 28.2436L224.558 12.1474L224.045 11.635L207.926 27.7312Z" fill="url(#paint6_linear_930_603)"/>
<path style="mix-blend-mode:screen" d="M351.72 117.3C351.584 117.435 351.584 117.677 351.72 117.812C351.856 117.948 352.097 117.948 352.233 117.812L368.353 101.716L367.839 101.204L351.72 117.3Z" fill="url(#paint7_linear_930_603)"/>
<path style="mix-blend-mode:screen" d="M146.451 173.064C146.315 173.199 146.315 173.44 146.451 173.576C146.586 173.712 146.828 173.712 146.964 173.576L163.083 157.48L162.57 156.967L146.451 173.064Z" fill="url(#paint8_linear_930_603)"/>
<path style="mix-blend-mode:screen" d="M60.4186 159.499C60.2827 159.635 60.2827 159.876 60.4186 160.012C60.5544 160.147 60.7959 160.147 60.9317 160.012L77.0514 143.916L76.5382 143.403L60.4186 159.499Z" fill="url(#paint9_linear_930_603)"/>
<path style="mix-blend-mode:screen" d="M299.074 31.4387C298.938 31.5743 298.938 31.8155 299.074 31.9511C299.21 32.0868 299.452 32.0868 299.587 31.9511L315.707 15.855L315.194 15.3426L299.074 31.4387Z" fill="url(#paint10_linear_930_603)"/>
<path style="mix-blend-mode:screen" d="M18.3384 108.302C18.2026 108.438 18.2026 108.679 18.3384 108.815C18.4742 108.95 18.7157 108.95 18.8516 108.815L34.9712 92.7185L34.4581 92.2061L18.3384 108.302Z" fill="url(#paint11_linear_930_603)"/>
<path style="mix-blend-mode:screen" d="M242.912 149.944C242.474 150.381 242.233 150.848 242.384 150.999C242.535 151.15 243.003 150.909 243.44 150.472L292.795 101.189L292.282 100.676L242.927 149.959L242.912 149.944Z" fill="url(#paint12_linear_930_603)"/>
<path style="mix-blend-mode:screen" d="M102.348 62.3499C101.91 62.787 101.669 63.2542 101.82 63.4049C101.97 63.5556 102.438 63.3145 102.876 62.8774L152.231 13.5943L151.718 13.0819L102.363 62.365L102.348 62.3499Z" fill="url(#paint13_linear_930_603)"/>
</g>
<g clip-path="url(#clip1_930_603)">
<path d="M266.19 92.66C265.98 93.04 265.77 93.42 265.55 93.81C264.11 96.4 262.63 99.09 261.06 101.78C268.81 103.31 274.31 105.31 274.31 105.31C274.31 105.31 265.35 109.01 255.32 117.71C246.35 125.49 235.92 135.47 224.65 133.78C241.35 141.75 258.3 127.5 272.55 116.77C286.87 105.98 299.28 101.83 299.28 101.83C299.28 101.83 283.97 95.02 266.18 92.65L266.19 92.66Z" fill="#CFE4BA"/>
<path d="M126.1 92.66C126.31 93.04 126.52 93.42 126.74 93.81C128.18 96.4 129.66 99.09 131.23 101.78C123.48 103.31 117.98 105.31 117.98 105.31C117.98 105.31 126.94 109.01 136.97 117.71C145.94 125.49 156.37 135.47 167.64 133.78C150.94 141.75 133.99 127.5 119.74 116.77C105.41 105.99 93 101.84 93 101.84C93 101.84 108.31 95.03 126.1 92.66Z" fill="#B6CC9E"/>
<path d="M105.62 60.04C105.62 60.04 117.05 70.44 127.39 88.94C137.68 107.34 149.21 130.83 171.06 130.18C158.07 126.64 151.55 110.87 145.57 98.18C138.87 83.98 130.95 75.71 130.95 75.71C130.95 75.71 181.62 79.06 189.44 108.22C185.39 59.8 105.62 60.04 105.62 60.04Z" fill="#B6CC9E"/>
<path d="M223.02 89.22C221.18 90.23 219.41 91.34 217.74 92.54C218.04 99.16 216.91 105.68 213.53 111.56C219.36 104.87 222.2 97.2 223.02 89.22Z" fill="#CFE4BA"/>
<path d="M169.99 73.33C172.48 74.91 174.85 76.65 177.06 78.56C182.79 59.35 196.15 42.65 196.15 42.65V19C196.15 19 174.87 45.6 170 73.33H169.99Z" fill="#B6CC9E"/>
<path d="M222.3 73.33C217.42 45.6 196.14 19 196.14 19V42.65C196.14 42.65 209.49 59.35 215.23 78.56C217.43 76.65 219.8 74.91 222.3 73.33Z" fill="#CFE4BA"/>
<path d="M169.27 89.22C170.09 97.2 172.93 104.86 178.76 111.56C175.38 105.68 174.24 99.16 174.55 92.54C172.88 91.33 171.11 90.23 169.27 89.22Z" fill="#B6CC9E"/>
<path d="M202.84 108.22C210.66 79.06 261.33 75.71 261.33 75.71C261.33 75.71 253.41 83.98 246.71 98.18C240.72 110.87 234.21 126.63 221.22 130.18C243.07 130.83 254.6 107.34 264.89 88.94C275.23 70.45 286.66 60.04 286.66 60.04C286.66 60.04 206.89 59.8 202.83 108.22H202.84Z" fill="#CFE4BA"/>
</g>
<path d="M239.042 162.483L205.242 180L205.226 149.785L239.022 135.04L239.042 162.483Z" fill="url(#paint14_linear_930_603)"/>
<path d="M171.445 160.11L205.242 180L205.262 149.781L171.466 133.616L171.445 160.11Z" fill="url(#paint15_linear_930_603)"/>
<path opacity="0.73" d="M239.022 149.697V147.272L205.157 162.451L171.457 145.598V148.49L205.278 166.256L239.022 149.697Z" fill="url(#paint16_linear_930_603)"/>
<path d="M169 128.935L204.299 148.788L240.94 131.312L204.702 111.792L169 128.935Z" fill="url(#paint17_linear_930_603)"/>
<path d="M241 147.139L204.315 164.342L204.295 148.579L240.94 131.312L241 147.139Z" fill="url(#paint18_linear_930_603)"/>
<path d="M169.016 145.598L204.315 164.342L204.343 148.551L169 128.935L169.016 145.598Z" fill="url(#paint19_linear_930_603)"/>
<path d="M204.335 148.514L204.311 164.342L205.149 163.947L205.121 148.14L204.335 148.514Z" fill="url(#paint20_linear_930_603)"/>
<path d="M240.94 131.312L204.343 148.551L169 128.935L169.423 128.733L204.343 147.517L240.44 131.046L240.94 131.312Z" fill="url(#paint21_linear_930_603)"/>
<path d="M187.697 127.133C187.274 127.213 185.715 127.382 184.825 128.589C184.289 129.317 183.89 130.809 184.414 131.167C184.913 131.505 185.965 131.541 186.085 133.033C186.122 133.508 186.114 134.187 186.468 134.799C187.197 136.058 191.492 136.633 197.543 135.036C199.726 134.461 199.332 134.352 200.589 134.119C203.868 133.512 205.214 134.477 210.374 135.273C214.165 135.857 216.385 135.788 218.609 134.831C220.039 134.216 220.696 133.568 220.953 132.764C221.562 130.865 219.805 128.54 219.253 127.812C214.85 121.984 205 123.851 187.693 127.133H187.697Z" fill="url(#paint22_linear_930_603)"/>
<path d="M225.026 138.29C225.026 138.29 212.461 130.853 209.121 129.067C207.308 128.098 204.247 128.255 204.247 128.255L204.186 128.528L202.921 130.724L218.834 141.025L225.026 138.29Z" fill="url(#paint23_linear_930_603)"/>
<path d="M201.938 128.548C202.047 128.536 202.152 128.524 202.256 128.52L204.686 128.46C205.31 128.464 205.834 128.91 205.951 129.498C206.043 129.956 205.878 130.451 205.532 130.781C199.88 133.789 195.19 137.345 189.538 140.353L183.801 137.156L200.456 128.898C200.738 128.758 201.427 128.609 201.938 128.548Z" fill="url(#paint24_linear_930_603)"/>
<path d="M183.789 137.24L184.043 137.369L184.023 137.381L183.789 137.24Z" fill="url(#paint25_linear_930_603)"/>
<path d="M184.853 167.978L192.33 172.446C191.524 169.566 190.759 166.276 190.171 162.62C189.184 156.494 189.083 151.788 189.063 150.461C189.018 147.521 189.135 144.114 189.562 140.349C187.641 139.28 185.715 138.214 183.793 137.144C183.588 140.756 183.483 144.589 183.527 148.623C183.604 155.67 184.12 162.153 184.857 167.978H184.853Z" fill="url(#paint26_linear_930_603)"/>
<path d="M224.092 169.639L216.232 173.436C217.098 170.556 217.549 167.402 218.182 163.746C219.241 157.621 219.35 152.915 219.37 151.587C219.415 148.647 219.298 144.794 218.838 141.025C220.901 139.955 222.964 139.336 225.026 138.27C225.441 141.862 225.49 147.139 225.441 151.173C225.357 158.22 224.885 163.815 224.096 169.639H224.092Z" fill="url(#paint27_linear_930_603)"/>
<path d="M218.842 141.037C219.124 140.888 219.551 140.671 220.075 140.43C220.937 140.028 221.586 139.778 221.908 139.65C222.625 139.364 223.665 138.93 225.026 138.294C224.507 137.992 223.991 137.687 223.471 137.385L218.226 140.639L218.846 141.041L218.842 141.037Z" fill="url(#paint28_linear_930_603)"/>
<path opacity="0.57" d="M187.834 126.107C187.411 126.187 185.715 127.386 184.825 128.593C184.289 129.321 183.89 130.813 184.414 131.171C184.913 131.509 185.965 131.545 186.085 133.037C186.122 133.512 186.247 134.851 186.597 135.462C187.326 136.721 191.476 137.345 197.543 135.04C199.67 134.232 199.332 134.356 200.589 134.123C203.868 133.516 205.214 134.481 210.374 135.277C214.165 135.861 216.385 135.792 218.609 134.835C220.039 134.22 220.696 133.572 220.953 132.768C221.562 130.869 219.805 128.544 219.253 127.816C214.85 121.988 205.137 122.829 187.83 126.111L187.834 126.107Z" fill="url(#paint29_linear_930_603)"/>
<path d="M205.326 123.822C204.936 123.042 203.312 119.181 200.867 117.121C196.919 113.795 191.641 110.421 190.859 111.084C190.078 111.752 190.158 115.299 188.539 117.725C187.814 118.807 187.197 119.736 187.544 120.319C187.89 120.898 203.066 126.533 204.017 126.147C204.968 125.761 205.322 123.822 205.322 123.822H205.326Z" fill="url(#paint30_linear_930_603)"/>
<path d="M203.61 124.816C203.61 124.816 206.829 118.871 210.157 116.257C211.933 114.861 215.229 112.854 216.997 112.946C218.766 113.039 220.494 119.728 220.494 119.728C220.494 119.728 205.334 126.163 204.404 126.36C203.614 126.525 203.61 124.816 203.61 124.816Z" fill="url(#paint31_linear_930_603)"/>
<path d="M203.63 128.677C203.916 129.204 206.257 131.577 208.372 132.852C211.788 134.915 219.668 135.977 220.502 135.438C221.332 134.895 221.397 134.26 221.34 132.369C221.304 131.195 222.021 129.968 221.755 129.582C221.489 129.192 206.128 126.545 205.165 126.899C204.202 127.253 203.63 128.673 203.63 128.673V128.677Z" fill="url(#paint32_linear_930_603)"/>
<path d="M205.89 128.705C205.89 128.705 200.879 132.446 196.83 133.644C194.671 134.284 190.847 135.024 189.171 134.537C187.496 134.051 187.975 128.581 187.975 128.581C187.975 128.581 204.662 127.277 205.62 127.346C206.434 127.406 205.89 128.701 205.89 128.701V128.705Z" fill="url(#paint33_linear_930_603)"/>
<path d="M193.107 111.716C193.107 111.716 192.016 117.162 192.241 118.03C192.467 118.895 194.417 120.444 194.743 120.287C195.291 120.021 194.94 112.77 194.94 112.77C194.65 112.568 194.324 112.379 193.974 112.174C193.675 112.001 193.385 111.848 193.107 111.716Z" fill="url(#paint34_linear_930_603)"/>
<path d="M198.611 122.576C198.586 122.567 198.562 122.555 198.542 122.547C198.558 122.567 198.566 122.588 198.562 122.6C198.466 122.805 195.335 121.401 190.255 120.21C188.575 119.816 187.806 119.74 187.814 119.659C187.814 119.651 187.83 119.639 187.854 119.631C187.669 119.663 187.54 119.724 187.483 119.816C186.944 120.665 188.051 123.963 187.238 126.702C186.875 127.925 186.565 128.971 187.06 129.417C187.552 129.86 203.256 128.882 204.033 128.247C204.811 127.611 204.754 125.512 204.754 125.512C204.158 124.892 203.296 124.518 198.615 122.576H198.611Z" fill="url(#paint35_linear_930_603)"/>
<path d="M190.251 120.21C195.331 121.397 198.461 122.805 198.558 122.6C198.562 122.588 198.558 122.571 198.538 122.547C194.566 120.902 189.333 119.358 187.85 119.631C187.826 119.639 187.814 119.651 187.81 119.659C187.802 119.736 188.571 119.816 190.251 120.21Z" fill="url(#paint36_linear_930_603)"/>
<path d="M198.542 122.547C194.57 120.902 189.337 119.358 187.854 119.631C187.83 119.639 187.818 119.651 187.814 119.659C187.806 119.736 188.575 119.816 190.255 120.21C190.424 120.251 190.59 120.291 190.755 120.331C190.654 120.307 190.557 120.283 190.457 120.259C190.457 120.259 190.984 120.874 191.206 122.181C191.331 122.917 190.835 129.542 190.835 129.542L192.688 129.486C192.688 129.486 192.741 122.712 193.587 121.083C196.673 121.98 198.49 122.752 198.566 122.596C198.57 122.584 198.566 122.567 198.546 122.543L198.542 122.547Z" fill="url(#paint37_linear_930_603)"/>
<path d="M199.811 124.257C199.811 124.257 201.072 123.388 201.668 123.187C202.261 122.986 205.995 123.702 205.995 123.702C205.995 123.702 203.687 125.013 203.086 124.953C202.486 124.888 199.811 124.261 199.811 124.261V124.257Z" fill="url(#paint38_linear_930_603)"/>
<path opacity="0.8" d="M205.955 123.69L205.713 123.649C205.496 123.718 204.988 123.919 204.625 124.1C204.315 124.253 204.021 124.389 203.755 124.538C203.723 124.554 203.675 124.57 203.614 124.575C203.566 124.575 203.517 124.575 203.465 124.558L200.105 124.068L199.847 124.241L203.634 124.76L205.959 123.694L205.955 123.69Z" fill="url(#paint39_linear_930_603)"/>
<path d="M199.992 124.221C199.831 124.176 199.743 124.277 199.775 124.45C199.96 125.435 200.891 128.766 201.322 128.947C202.071 129.26 204.633 129.526 204.875 129.288C205.117 129.051 203.638 124.776 203.638 124.776L199.992 124.225V124.221Z" fill="url(#paint40_linear_930_603)"/>
<path d="M204.879 129.284C204.879 129.284 207.304 128.243 207.381 127.917C207.457 127.591 206.321 123.678 205.951 123.682C205.576 123.69 203.61 124.76 203.61 124.76L204.879 129.284Z" fill="url(#paint41_linear_930_603)"/>
<path d="M205.036 124.832C204.891 126.308 205.701 128.392 206.225 128.669C206.801 128.975 213.714 131.352 216.409 130.986C219.104 130.616 221.94 129.486 222.214 129.091C222.46 128.733 221.924 121.059 221.094 119.495C210.958 121.558 205.451 124.603 205.036 124.836V124.832Z" fill="url(#paint42_linear_930_603)"/>
<path d="M221.094 119.495C221.006 119.326 220.909 119.225 220.816 119.217C219.829 119.12 213.927 120.874 211.204 121.864C209.017 122.66 206.398 123.826 205.451 124.257C205.222 124.361 205.064 124.579 205.04 124.828C205.04 124.828 205.04 124.828 205.04 124.832C205.451 124.599 210.962 121.558 221.098 119.491L221.094 119.495Z" fill="url(#paint43_linear_930_603)"/>
<path opacity="0.92" d="M212.264 121.831C213.299 121.811 216.268 121.912 217.211 123.657C217.07 122.757 217.009 121.924 216.985 121.337C216.965 120.882 216.526 120.564 216.087 120.685C214.685 121.067 213.412 121.453 212.268 121.835L212.264 121.831Z" fill="url(#paint44_linear_930_603)"/>
<path opacity="0.87" d="M218.967 120.464C218.991 120.154 219.213 119.897 219.515 119.828C220.027 119.712 220.555 119.599 221.09 119.491C221.002 119.322 220.905 119.221 220.812 119.213C219.825 119.116 213.923 120.87 211.2 121.86C209.013 122.656 206.394 123.822 205.447 124.253C205.218 124.357 205.06 124.575 205.036 124.824C205.036 124.824 205.036 124.824 205.036 124.828C205.306 124.675 207.76 123.32 212.26 121.823C213.404 121.445 214.677 121.055 216.079 120.673C216.518 120.552 216.957 120.87 216.977 121.325C217.001 121.916 217.066 122.744 217.203 123.645C217.275 124.124 217.372 124.619 217.497 125.113C218.085 127.438 219.29 130.334 219.29 130.334C219.29 130.334 220.595 129.94 220.825 129.811C220.825 129.811 219.487 126.135 219.157 124.615C218.822 123.082 218.899 121.317 218.963 120.46L218.967 120.464Z" fill="url(#paint45_linear_930_603)"/>
<defs>
<linearGradient id="paint0_linear_930_603" x1="262.171" y1="21.5067" x2="271.725" y2="21.5067" gradientUnits="userSpaceOnUse">
<stop stop-color="#84CAE5"/>
<stop offset="1" stop-color="#91D6EB"/>
</linearGradient>
<linearGradient id="paint1_linear_930_603" x1="296.886" y1="130.02" x2="306.44" y2="130.02" gradientUnits="userSpaceOnUse">
<stop stop-color="#84CAE5"/>
<stop offset="1" stop-color="#91D6EB"/>
</linearGradient>
<linearGradient id="paint2_linear_930_603" x1="108.219" y1="30.5495" x2="117.773" y2="30.5495" gradientUnits="userSpaceOnUse">
<stop stop-color="#84CAE5"/>
<stop offset="1" stop-color="#91D6EB"/>
</linearGradient>
<linearGradient id="paint3_linear_930_603" x1="49.3552" y1="77.2705" x2="58.9093" y2="77.2705" gradientUnits="userSpaceOnUse">
<stop stop-color="#84CAE5"/>
<stop offset="1" stop-color="#91D6EB"/>
</linearGradient>
<linearGradient id="paint4_linear_930_603" x1="329.17" y1="62.787" x2="343.584" y2="62.787" gradientUnits="userSpaceOnUse">
<stop stop-color="#84CAE5"/>
<stop offset="1" stop-color="#91D6EB"/>
</linearGradient>
<linearGradient id="paint5_linear_930_603" x1="129.938" y1="150.2" x2="144.353" y2="150.2" gradientUnits="userSpaceOnUse">
<stop stop-color="#84CAE5"/>
<stop offset="1" stop-color="#91D6EB"/>
</linearGradient>
<linearGradient id="paint6_linear_930_603" x1="207.925" y1="28.2504" x2="224.284" y2="11.868" gradientUnits="userSpaceOnUse">
<stop stop-color="#FFAEFF"/>
<stop offset="0.12" stop-color="#CF8DCF"/>
<stop offset="0.3" stop-color="#916391"/>
<stop offset="0.48" stop-color="#5D3F5D"/>
<stop offset="0.64" stop-color="#342434"/>
<stop offset="0.78" stop-color="#171017"/>
<stop offset="0.91" stop-color="#060406"/>
<stop offset="1"/>
</linearGradient>
<linearGradient id="paint7_linear_930_603" x1="351.728" y1="117.833" x2="368.086" y2="101.451" gradientUnits="userSpaceOnUse">
<stop stop-color="#FFAEFF"/>
<stop offset="0.12" stop-color="#CF8DCF"/>
<stop offset="0.3" stop-color="#916391"/>
<stop offset="0.48" stop-color="#5D3F5D"/>
<stop offset="0.64" stop-color="#342434"/>
<stop offset="0.78" stop-color="#171017"/>
<stop offset="0.91" stop-color="#060406"/>
<stop offset="1"/>
</linearGradient>
<linearGradient id="paint8_linear_930_603" x1="146.451" y1="173.591" x2="162.809" y2="157.208" gradientUnits="userSpaceOnUse">
<stop stop-color="#FFAEFF"/>
<stop offset="0.12" stop-color="#CF8DCF"/>
<stop offset="0.3" stop-color="#916391"/>
<stop offset="0.48" stop-color="#5D3F5D"/>
<stop offset="0.64" stop-color="#342434"/>
<stop offset="0.78" stop-color="#171017"/>
<stop offset="0.91" stop-color="#060406"/>
<stop offset="1"/>
</linearGradient>
<linearGradient id="paint9_linear_930_603" x1="60.4192" y1="160.024" x2="76.7777" y2="143.642" gradientUnits="userSpaceOnUse">
<stop stop-color="#FFAEFF"/>
<stop offset="0.12" stop-color="#CF8DCF"/>
<stop offset="0.3" stop-color="#916391"/>
<stop offset="0.48" stop-color="#5D3F5D"/>
<stop offset="0.64" stop-color="#342434"/>
<stop offset="0.78" stop-color="#171017"/>
<stop offset="0.91" stop-color="#060406"/>
<stop offset="1"/>
</linearGradient>
<linearGradient id="paint10_linear_930_603" x1="299.08" y1="31.9484" x2="315.438" y2="15.566" gradientUnits="userSpaceOnUse">
<stop stop-color="#FFAEFF"/>
<stop offset="0.12" stop-color="#CF8DCF"/>
<stop offset="0.3" stop-color="#916391"/>
<stop offset="0.48" stop-color="#5D3F5D"/>
<stop offset="0.64" stop-color="#342434"/>
<stop offset="0.78" stop-color="#171017"/>
<stop offset="0.91" stop-color="#060406"/>
<stop offset="1"/>
</linearGradient>
<linearGradient id="paint11_linear_930_603" x1="18.3372" y1="108.817" x2="34.6957" y2="92.435" gradientUnits="userSpaceOnUse">
<stop stop-color="#FFAEFF"/>
<stop offset="0.12" stop-color="#CF8DCF"/>
<stop offset="0.3" stop-color="#916391"/>
<stop offset="0.48" stop-color="#5D3F5D"/>
<stop offset="0.64" stop-color="#342434"/>
<stop offset="0.78" stop-color="#171017"/>
<stop offset="0.91" stop-color="#060406"/>
<stop offset="1"/>
</linearGradient>
<linearGradient id="paint12_linear_930_603" x1="245.261" y1="148.138" x2="295.318" y2="98.0082" gradientUnits="userSpaceOnUse">
<stop stop-color="#FFAEFF"/>
<stop offset="0.12" stop-color="#CF8DCF"/>
<stop offset="0.3" stop-color="#916391"/>
<stop offset="0.48" stop-color="#5D3F5D"/>
<stop offset="0.64" stop-color="#342434"/>
<stop offset="0.78" stop-color="#171017"/>
<stop offset="0.91" stop-color="#060406"/>
<stop offset="1"/>
</linearGradient>
<linearGradient id="paint13_linear_930_603" x1="104.719" y1="60.5003" x2="154.776" y2="10.3701" gradientUnits="userSpaceOnUse">
<stop stop-color="#FFAEFF"/>
<stop offset="0.12" stop-color="#CF8DCF"/>
<stop offset="0.3" stop-color="#916391"/>
<stop offset="0.48" stop-color="#5D3F5D"/>
<stop offset="0.64" stop-color="#342434"/>
<stop offset="0.78" stop-color="#171017"/>
<stop offset="0.91" stop-color="#060406"/>
<stop offset="1"/>
</linearGradient>
<linearGradient id="paint14_linear_930_603" x1="228.809" y1="144.351" x2="210.825" y2="176.187" gradientUnits="userSpaceOnUse">
<stop offset="0.02" stop-color="#86596D"/>
<stop offset="0.88" stop-color="#5F3853"/>
</linearGradient>
<linearGradient id="paint15_linear_930_603" x1="185.284" y1="149.21" x2="198.875" y2="174.689" gradientUnits="userSpaceOnUse">
<stop offset="0.02" stop-color="#472546"/>
<stop offset="0.88" stop-color="#351A3D"/>
</linearGradient>
<linearGradient id="paint16_linear_930_603" x1="225.421" y1="129.646" x2="190.479" y2="160.914" gradientUnits="userSpaceOnUse">
<stop offset="0.02" stop-color="#5F3853"/>
<stop offset="0.84" stop-color="#361B3D"/>
<stop offset="0.88" stop-color="#351A3D"/>
</linearGradient>
<linearGradient id="paint17_linear_930_603" x1="228.958" y1="141.186" x2="185.798" y2="121.892" gradientUnits="userSpaceOnUse">
<stop offset="0.02" stop-color="#86596D"/>
<stop offset="1" stop-color="#613954"/>
</linearGradient>
<linearGradient id="paint18_linear_930_603" x1="228.346" y1="128.806" x2="218.573" y2="161.595" gradientUnits="userSpaceOnUse">
<stop offset="0.02" stop-color="#86596D"/>
<stop offset="1" stop-color="#613954"/>
</linearGradient>
<linearGradient id="paint19_linear_930_603" x1="163.678" y1="134.328" x2="205.867" y2="157.65" gradientUnits="userSpaceOnUse">
<stop offset="0.02" stop-color="#5F3853"/>
<stop offset="0.84" stop-color="#361B3D"/>
<stop offset="0.88" stop-color="#351A3D"/>
</linearGradient>
<linearGradient id="paint20_linear_930_603" x1="204.73" y1="148.438" x2="204.73" y2="164.362" gradientUnits="userSpaceOnUse">
<stop stop-color="#FFC5BA" stop-opacity="0.7"/>
<stop offset="0.26" stop-color="#FDD7BD" stop-opacity="0.46"/>
<stop offset="0.5" stop-color="#FDE7BF" stop-opacity="0.26"/>
<stop offset="0.72" stop-color="#FCF2C1" stop-opacity="0.12"/>
<stop offset="0.89" stop-color="#FCF9C2" stop-opacity="0.03"/>
<stop offset="1" stop-color="#FCFCC3" stop-opacity="0"/>
</linearGradient>
<linearGradient id="paint21_linear_930_603" x1="206.188" y1="148.02" x2="204.715" y2="126.316" gradientUnits="userSpaceOnUse">
<stop stop-color="#FFC5BA"/>
<stop offset="0.11" stop-color="#FEC9BA" stop-opacity="0.94"/>
<stop offset="0.34" stop-color="#FED3BC" stop-opacity="0.78"/>
<stop offset="0.64" stop-color="#FDE5BF" stop-opacity="0.53"/>
<stop offset="1" stop-color="#FCFCC3" stop-opacity="0.2"/>
</linearGradient>
<linearGradient id="paint22_linear_930_603" x1="202.446" y1="123.36" x2="202.715" y2="135.269" gradientUnits="userSpaceOnUse">
<stop offset="0.18" stop-color="#54304D"/>
<stop offset="0.68" stop-color="#4B2A48"/>
<stop offset="1" stop-color="#442545"/>
</linearGradient>
<linearGradient id="paint23_linear_930_603" x1="218.363" y1="142.956" x2="209.418" y2="125.701" gradientUnits="userSpaceOnUse">
<stop offset="0.06" stop-color="#FF5C5A"/>
<stop offset="0.1" stop-color="#FF5252"/>
<stop offset="0.15" stop-color="#FF393E"/>
<stop offset="0.19" stop-color="#FF202A"/>
<stop offset="0.35" stop-color="#F01B25"/>
<stop offset="0.66" stop-color="#C91018"/>
<stop offset="1" stop-color="#990209"/>
</linearGradient>
<linearGradient id="paint24_linear_930_603" x1="188.534" y1="141.972" x2="201.385" y2="123.028" gradientUnits="userSpaceOnUse">
<stop offset="0.26" stop-color="#CE151B"/>
<stop offset="0.86" stop-color="#8C030A"/>
</linearGradient>
<linearGradient id="paint25_linear_930_603" x1="181.984" y1="137.813" x2="199.908" y2="111.385" gradientUnits="userSpaceOnUse">
<stop stop-color="#F8EC7C"/>
<stop offset="0.17" stop-color="#F6E877"/>
<stop offset="0.37" stop-color="#F3DF69"/>
<stop offset="0.58" stop-color="#EFCF53"/>
<stop offset="0.79" stop-color="#E8BA33"/>
<stop offset="0.8" stop-color="#E8BA33"/>
</linearGradient>
<linearGradient id="paint26_linear_930_603" x1="186.927" y1="171.441" x2="189.233" y2="137.473" gradientUnits="userSpaceOnUse">
<stop stop-color="#CE151B"/>
<stop offset="0.1" stop-color="#C51218"/>
<stop offset="0.6" stop-color="#9B070E"/>
<stop offset="0.86" stop-color="#8C030A"/>
</linearGradient>
<linearGradient id="paint27_linear_930_603" x1="221.779" y1="172.422" x2="219.482" y2="138.607" gradientUnits="userSpaceOnUse">
<stop offset="0.02" stop-color="#AE050A"/>
<stop offset="0.65" stop-color="#EF3634"/>
<stop offset="0.86" stop-color="#EB3230"/>
<stop offset="1" stop-color="#E62B2A"/>
</linearGradient>
<linearGradient id="paint28_linear_930_603" x1="227.23" y1="137.526" x2="215.965" y2="140.66" gradientUnits="userSpaceOnUse">
<stop stop-color="#FBA49D"/>
<stop offset="0.26" stop-color="#FB9192" stop-opacity="0.84"/>
<stop offset="0.52" stop-color="#FC8288" stop-opacity="0.71"/>
<stop offset="0.74" stop-color="#FC7883" stop-opacity="0.63"/>
<stop offset="0.89" stop-color="#FD7581" stop-opacity="0.6"/>
</linearGradient>
<linearGradient id="paint29_linear_930_603" x1="202.434" y1="122.744" x2="202.723" y2="135.607" gradientUnits="userSpaceOnUse">
<stop offset="0.18" stop-color="#54304D"/>
<stop offset="0.68" stop-color="#4B2A48"/>
<stop offset="1" stop-color="#442545"/>
</linearGradient>
<linearGradient id="paint30_linear_930_603" x1="205.484" y1="121.739" x2="187.621" y2="115.095" gradientUnits="userSpaceOnUse">
<stop offset="0.18" stop-color="#770206"/>
<stop offset="0.5" stop-color="#8D060D"/>
<stop offset="1" stop-color="#E11920"/>
</linearGradient>
<linearGradient id="paint31_linear_930_603" x1="207.47" y1="120.976" x2="221.125" y2="114.93" gradientUnits="userSpaceOnUse">
<stop offset="0.18" stop-color="#770206"/>
<stop offset="0.55" stop-color="#8D060D"/>
<stop offset="0.79" stop-color="#A8030A"/>
<stop offset="0.92" stop-color="#8B0308"/>
<stop offset="1" stop-color="#7D0308"/>
</linearGradient>
<linearGradient id="paint32_linear_930_603" x1="216.148" y1="124.625" x2="232.678" y2="134.679" gradientUnits="userSpaceOnUse">
<stop offset="0.18" stop-color="#770206"/>
<stop offset="0.5" stop-color="#8D060D"/>
<stop offset="0.6" stop-color="#96080F"/>
<stop offset="0.76" stop-color="#B00D14"/>
<stop offset="0.97" stop-color="#D9171E"/>
<stop offset="1" stop-color="#E11920"/>
</linearGradient>
<linearGradient id="paint33_linear_930_603" x1="209.052" y1="129.992" x2="194.1" y2="132.316" gradientUnits="userSpaceOnUse">
<stop offset="0.18" stop-color="#770206"/>
<stop offset="0.55" stop-color="#8D060D"/>
<stop offset="0.79" stop-color="#A8030A"/>
<stop offset="0.92" stop-color="#8B0308"/>
<stop offset="1" stop-color="#7D0308"/>
</linearGradient>
<linearGradient id="paint34_linear_930_603" x1="192.202" y1="112.871" x2="195.453" y2="118.88" gradientUnits="userSpaceOnUse">
<stop stop-color="#FBA49D"/>
<stop offset="0.28" stop-color="#FB9896" stop-opacity="0.9"/>
<stop offset="0.88" stop-color="#FC7B84" stop-opacity="0.66"/>
<stop offset="1" stop-color="#FD7581" stop-opacity="0.6"/>
</linearGradient>
<linearGradient id="paint35_linear_930_603" x1="186.051" y1="124.152" x2="203.618" y2="128.62" gradientUnits="userSpaceOnUse">
<stop stop-color="#8E060D"/>
<stop offset="0.26" stop-color="#CE151B"/>
<stop offset="0.87" stop-color="#8C030A"/>
</linearGradient>
<linearGradient id="paint36_linear_930_603" x1="190.137" y1="119.097" x2="201.715" y2="128.961" gradientUnits="userSpaceOnUse">
<stop offset="0.02" stop-color="#9F061B"/>
<stop offset="0.56" stop-color="#960413"/>
<stop offset="1" stop-color="#8C030A"/>
</linearGradient>
<linearGradient id="paint37_linear_930_603" x1="190.814" y1="118.906" x2="195.103" y2="126.835" gradientUnits="userSpaceOnUse">
<stop stop-color="#FBA49D"/>
<stop offset="0.08" stop-color="#FB9E99" stop-opacity="0.93"/>
<stop offset="0.4" stop-color="#FB8C8F" stop-opacity="0.71"/>
<stop offset="0.66" stop-color="#FC7F87" stop-opacity="0.54"/>
<stop offset="0.87" stop-color="#FC7782" stop-opacity="0.44"/>
<stop offset="1" stop-color="#FD7581" stop-opacity="0.4"/>
</linearGradient>
<linearGradient id="paint38_linear_930_603" x1="200.912" y1="122.967" x2="205.352" y2="125.225" gradientUnits="userSpaceOnUse">
<stop offset="0.02" stop-color="#CE151B"/>
<stop offset="0.31" stop-color="#BA0F16"/>
<stop offset="0.87" stop-color="#8C030A"/>
</linearGradient>
<linearGradient id="paint39_linear_930_603" x1="202.607" y1="123.217" x2="203.479" y2="125.232" gradientUnits="userSpaceOnUse">
<stop stop-color="#FBA49D"/>
<stop offset="0.13" stop-color="#FBA09A" stop-opacity="0.95"/>
<stop offset="0.36" stop-color="#FB9795" stop-opacity="0.83"/>
<stop offset="0.67" stop-color="#FC878C" stop-opacity="0.64"/>
<stop offset="1" stop-color="#FD7581" stop-opacity="0.4"/>
</linearGradient>
<linearGradient id="paint40_linear_930_603" x1="201.19" y1="124.139" x2="203.977" y2="130.264" gradientUnits="userSpaceOnUse">
<stop offset="0.02" stop-color="#CE151B"/>
<stop offset="0.87" stop-color="#8C030A"/>
</linearGradient>
<linearGradient id="paint41_linear_930_603" x1="205.51" y1="129.236" x2="205.503" y2="122.693" gradientUnits="userSpaceOnUse">
<stop offset="0.04" stop-color="#770206"/>
<stop offset="0.35" stop-color="#7E0206"/>
<stop offset="0.81" stop-color="#910309"/>
<stop offset="1" stop-color="#9C040B"/>
</linearGradient>
<linearGradient id="paint42_linear_930_603" x1="223.035" y1="124.323" x2="204.217" y2="128.452" gradientUnits="userSpaceOnUse">
<stop offset="0.02" stop-color="#A0090F"/>
<stop offset="0.11" stop-color="#BD1017"/>
<stop offset="0.18" stop-color="#CC141B"/>
<stop offset="0.52" stop-color="#A80C12"/>
<stop offset="0.87" stop-color="#7F0308"/>
</linearGradient>
<linearGradient id="paint43_linear_930_603" x1="222.096" y1="119.963" x2="202.884" y2="124.181" gradientUnits="userSpaceOnUse">
<stop offset="0.02" stop-color="#A0090F"/>
<stop offset="0.1" stop-color="#B30E14"/>
<stop offset="0.18" stop-color="#C21218"/>
<stop offset="0.64" stop-color="#9F080E"/>
<stop offset="0.87" stop-color="#8C030A"/>
</linearGradient>
<linearGradient id="paint44_linear_930_603" x1="217.152" y1="120.792" x2="213.801" y2="123.499" gradientUnits="userSpaceOnUse">
<stop stop-color="#FBA49D" stop-opacity="0.8"/>
<stop offset="0.17" stop-color="#FB9F9A" stop-opacity="0.76"/>
<stop offset="0.45" stop-color="#FB9493" stop-opacity="0.67"/>
<stop offset="0.8" stop-color="#FC8188" stop-opacity="0.51"/>
<stop offset="1" stop-color="#FD7581" stop-opacity="0.4"/>
</linearGradient>
<linearGradient id="paint45_linear_930_603" x1="212.454" y1="120.13" x2="221.58" y2="150.635" gradientUnits="userSpaceOnUse">
<stop stop-color="#FBA49D"/>
<stop offset="0.11" stop-color="#FB9B98" stop-opacity="0.86"/>
<stop offset="0.31" stop-color="#FB8E8F" stop-opacity="0.63"/>
<stop offset="0.5" stop-color="#FC8389" stop-opacity="0.44"/>
<stop offset="0.66" stop-color="#FC7B84" stop-opacity="0.31"/>
<stop offset="0.8" stop-color="#FC7682" stop-opacity="0.23"/>
<stop offset="0.89" stop-color="#FD7581" stop-opacity="0.2"/>
</linearGradient>
<clipPath id="clip0_930_603">
<rect width="393" height="185" fill="white"/>
</clipPath>
<clipPath id="clip1_930_603">
<rect width="206.29" height="117.11" fill="white" transform="translate(93 19)"/>
</clipPath>
</defs>
</svg>
