<svg width="104" height="106" viewBox="0 0 104 106" fill="none" xmlns="http://www.w3.org/2000/svg">
<g clip-path="url(#clip0_42_2231)">
<path fill-rule="evenodd" clip-rule="evenodd" d="M34.34 64.86C34.34 46.96 44.82 31.46 59.96 24.18C53.56 16.81 46.74 9.23 40.63 0C29.43 16.53 15.28 28.79 6.13 43.87C2.48 49.88 0 56.29 0 64.86C0 87.26 18.16 105.42 40.56 105.42C45.65 105.42 50.51 104.46 55 102.74C42.58 94.69 34.34 80.72 34.34 64.86Z" fill="url(#paint0_linear_42_2231)"/>
<path d="M38.9 64.8601C38.9 87.26 57.06 105.42 79.46 105.42C88.57 105.42 96.95 102.38 103.72 97.31C102.76 97.39 101.79 97.4601 100.81 97.4601C82.81 97.4601 68.21 82.87 68.21 64.8601C68.21 46.85 82.8 32.26 100.81 32.26C101.79 32.26 102.76 32.32 103.72 32.41C96.95 27.34 88.57 24.3 79.46 24.3C57.06 24.3 38.9 42.4601 38.9 64.8601Z" fill="#CFE4BA"/>
<path d="M35.64 75.6099C30.12 69.0499 23.49 63.9699 14.09 64.1199C9.27 64.1999 4.55 65.9599 0.87 68.8899C0.66 69.0599 0.45 69.2299 0.25 69.4099C2.66 90.3599 20.85 106.24 42.27 105.39C46.77 105.21 51.05 104.29 55.04 102.78C45.49 96.6099 38.41 86.9499 35.63 75.6099H35.64Z" fill="url(#paint1_linear_42_2231)"/>
<path d="M35.91 76.63C28.41 82.09 19.64 83.95 10.22 78.11C6.69 75.92 3.12 72.97 0.269997 69.45C2.7 90.39 20.88 106.24 42.29 105.4C46.79 105.22 51.07 104.3 55.06 102.79C45.8 96.81 38.86 87.54 35.91 76.64V76.63Z" fill="url(#paint2_linear_42_2231)"/>
</g>
<defs>
<linearGradient id="paint0_linear_42_2231" x1="30.47" y1="66.66" x2="42.7" y2="4.24" gradientUnits="userSpaceOnUse">
<stop stop-color="#84CAE5"/>
<stop offset="1" stop-color="#91D6EB"/>
</linearGradient>
<linearGradient id="paint1_linear_42_2231" x1="27.65" y1="113.16" x2="27.65" y2="66.4599" gradientUnits="userSpaceOnUse">
<stop stop-color="#89CFE7"/>
<stop offset="0.15" stop-color="#7ACAE4"/>
<stop offset="0.47" stop-color="#62C2E0"/>
<stop offset="0.76" stop-color="#54BDDD"/>
<stop offset="1" stop-color="#4FBCDD"/>
</linearGradient>
<linearGradient id="paint2_linear_42_2231" x1="26.03" y1="110.81" x2="28.51" y2="73.1999" gradientUnits="userSpaceOnUse">
<stop offset="0.31" stop-color="#1498CB"/>
<stop offset="1" stop-color="#49C5E2"/>
</linearGradient>
<clipPath id="clip0_42_2231">
<rect width="103.72" height="105.42" fill="white"/>
</clipPath>
</defs>
</svg>
