<?xml version="1.0" encoding="utf-8"?>
<!-- Generator: Adobe Illustrator 27.9.0, SVG Export Plug-In . SVG Version: 6.00 Build 0)  -->
<svg version="1.1" id="Gemeaux" xmlns="http://www.w3.org/2000/svg" xmlns:xlink="http://www.w3.org/1999/xlink" x="0px" y="0px"
	 viewBox="0 0 32 32" style="enable-background:new 0 0 32 32;" xml:space="preserve">
<style type="text/css">
	.st0{fill:#FFFFFF;}
</style>
<path class="st0" d="M4,4C3.2,4,2.7,4.6,2.7,5.4c0,0.6,0.4,1.1,1,1.3c1.7,0.4,3.4,0.7,5,1v17.1c-1.7,0.3-3.4,0.6-5.1,1
	c-0.7,0.2-1.1,0.9-1,1.6c0.2,0.7,0.9,1.1,1.6,1l0,0c7.4-2.1,15-2,22.8,0c0.7,0.2,1.5-0.2,1.7-0.9c0.2-0.7-0.2-1.5-0.9-1.7
	c0,0,0,0-0.1,0c-1.7-0.4-3.4-0.7-5-1V7.7c1.7-0.3,3.4-0.6,5.1-1c0.7-0.2,1.1-0.9,1-1.6c-0.2-0.6-0.7-1-1.3-1c-0.1,0-0.2,0-0.4,0.1
	c-7.4,2.1-15,2-22.8,0C4.2,4,4.1,4,4,4z M11.4,8c2.9,0.3,5.8,0.3,8.7,0v16.5c-2.9-0.3-5.8-0.3-8.7,0C11.4,24.5,11.4,8,11.4,8z"/>
</svg>
