<?xml version="1.0" encoding="utf-8"?>
<!-- Generator: Adobe Illustrator 27.9.0, SVG Export Plug-In . SVG Version: 6.00 Build 0)  -->
<svg version="1.1" id="Lion" xmlns="http://www.w3.org/2000/svg" xmlns:xlink="http://www.w3.org/1999/xlink" x="0px" y="0px"
	 viewBox="0 0 32 32" style="enable-background:new 0 0 32 32;" xml:space="preserve">
<style type="text/css">
	.st0{fill:#FFFFFF;}
</style>
<path class="st0" d="M17.2,1.4c-4.6,0-8.4,3.8-8.4,8.4c0,2.3,0.9,4.2,1.7,5.9c-0.4-0.1-0.9-0.2-1.4-0.2c-3.1,0-5.7,2.6-5.7,5.7
	S6,27,9.1,27s5.7-2.6,5.7-5.7c0-0.1,0-0.1,0-0.2s0-0.1,0-0.2c0-2.4-1-4.4-1.8-6.2s-1.6-3.4-1.6-4.9c0-3.2,2.5-5.7,5.7-5.7
	s5.7,2.5,5.7,5.7c0,1.3-1.3,3.5-2.8,6.1s-3.2,5.6-3.2,9.1c0,0.1,0,0.1,0,0.2s0,0.1,0,0.2c0,3.1,2.6,5.7,5.7,5.7s5.7-2.6,5.7-5.7
	c0-0.7-0.6-1.4-1.3-1.4c-0.7,0-1.4,0.6-1.4,1.3l0,0c0,1.7-1.3,3-3,3s-3-1.3-3-3c0-0.1,0-0.1,0-0.2s0-0.1,0-0.2
	c0-2.6,1.3-5.2,2.8-7.7s3.2-4.8,3.2-7.4C25.6,5.2,21.8,1.4,17.2,1.4z M9.1,18.2c1.7,0,3,1.3,3,3s-1.3,3-3,3s-3-1.3-3-3
	S7.4,18.2,9.1,18.2z"/>
</svg>
