<?xml version="1.0" encoding="utf-8"?>
<!-- Generator: Adobe Illustrator 27.1.1, SVG Export Plug-In . SVG Version: 6.00 Build 0)  -->
<svg version="1.1" id="Layer_1" xmlns="http://www.w3.org/2000/svg" xmlns:xlink="http://www.w3.org/1999/xlink" x="0px" y="0px"
	 viewBox="0 0 280 64" style="enable-background:new 0 0 280 64;" xml:space="preserve">
<style type="text/css">
	.st0{fill:#CFE4BA;}
</style>
<g>
	<path class="st0" d="M29.59,59.45c-0.28-0.47-0.42-1.15-0.42-2.04l-0.07-10.4c-0.05-0.89-0.07-2.37-0.07-4.43
		c-0.09-4.36-0.14-9.28-0.14-14.76v-3.59c-0.42,2.25-1.15,5.41-2.18,9.49c-1.03,4.22-1.76,7.69-2.18,10.4v0.42l-0.21,1.34
		c-0.09,1.03-0.33,2.09-0.7,3.16c-0.47,1.13-1.2,1.69-2.18,1.69c-1.69,0-2.53-2.2-2.53-6.61c0-2.44-0.25-5.05-0.74-7.84
		c-0.49-2.79-1.28-6.22-2.36-10.3l-2.11-7.87l-0.14,8.44c0,2.53,0.12,7.36,0.35,14.48l0.14,4.78l0.14,9.63
		c0,0.98-0.35,1.87-1.06,2.67c-1.17,0-1.98-0.36-2.42-1.09c-0.45-0.73-0.67-1.79-0.67-3.2l0.14-5.76c0.14-2.53,0.21-4.43,0.21-5.69
		L10.26,28.8l-0.14-13.64c0-2.01,0.05-5.04,0.14-9.07l1.9-1.13c0.37,0.05,0.75,0.32,1.12,0.81c0.37,0.49,0.8,1.28,1.27,2.35
		c1.17,2.91,2.69,8.72,4.57,17.44c0.28,1.22,0.47,2.23,0.56,3.02c0.56,2.72,0.96,4.78,1.2,6.19l1.05,5.41l0.49-2.32l1.34-5.76
		c0.75-3.37,1.37-6.33,1.86-8.86c0.49-2.53,0.97-5.27,1.44-8.22c0.52-3.52,0.84-6.44,0.98-8.79V5.81c0.09-0.61,0.37-1.09,0.84-1.44
		c0.47-0.35,1.03-0.53,1.69-0.53c0.42,0,0.8,0.19,1.13,0.56c0.33,0.38,0.49,0.77,0.49,1.2c0,5.62,0.21,14.04,0.63,25.24
		c0.23,5.48,0.4,10.85,0.49,16.1c0.09,2.39,0.14,5.41,0.14,9.07c0,1.08-0.28,2.04-0.84,2.88c-0.56,0.84-1.2,1.26-1.9,1.26
		C30.25,60.16,29.88,59.92,29.59,59.45z"/>
	<path class="st0" d="M47.24,58.5c-1.03-0.77-1.88-1.82-2.53-3.13c-1.36-2.86-2.2-5.98-2.53-9.35c-0.42-3.19-0.63-6.26-0.63-9.21
		c0-0.56,0.02-1.03,0.07-1.41v-1.26c0-0.23-0.02-0.35-0.07-0.35v-1.27l0.07-4.92c0.05-1.5,0.23-3.89,0.56-7.17
		c0.23-2.25,0.77-4.43,1.62-6.54c0.33-0.94,0.75-1.65,1.27-2.14c0.52-0.49,1.1-0.74,1.76-0.74c1.87,0,3.56,0.34,5.06,1.02
		c1.5,0.68,2.76,1.63,3.8,2.85c0.94,1.17,1.73,2.61,2.39,4.32c0.66,1.71,1.12,3.53,1.41,5.45c0.28,1.97,0.42,4.05,0.42,6.26v0.56
		c0,1.45,0.02,2.77,0.07,3.94l0.07,4.01c0,13.5-3.14,20.25-9.42,20.25C49.4,59.66,48.27,59.28,47.24,58.5z M52.65,55.69
		c0.7-0.68,1.24-1.61,1.62-2.78c0.89-2.39,1.43-4.97,1.62-7.73c0.23-2.39,0.35-4.45,0.35-6.19c0-2.11-0.16-4.87-0.49-8.3
		c-0.28-3.61-0.42-6.3-0.42-8.09v-1.26c-0.09-1.78-0.69-3.33-1.79-4.64c-1.1-1.31-2.45-1.97-4.04-1.97c-1.59,0-2.65,0.91-3.16,2.74
		c-0.47,1.45-0.7,3.33-0.7,5.62c0,0.89,0.02,1.64,0.07,2.25v1.9l-0.14,3.23c-0.09,0.98-0.14,2.06-0.14,3.23
		c0,2.53,0.07,5.04,0.21,7.52c0.19,3.51,0.66,6.94,1.41,10.26c0.75,3.47,1.85,5.2,3.3,5.2C51.18,56.71,51.95,56.37,52.65,55.69z"/>
	<path class="st0" d="M72.55,58.5c-1.03-0.77-1.88-1.82-2.53-3.13c-1.36-2.86-2.2-5.98-2.53-9.35c-0.42-3.19-0.63-6.26-0.63-9.21
		c0-0.56,0.02-1.03,0.07-1.41v-1.26c0-0.23-0.02-0.35-0.07-0.35v-1.27l0.07-4.92c0.05-1.5,0.23-3.89,0.56-7.17
		c0.23-2.25,0.77-4.43,1.62-6.54c0.33-0.94,0.75-1.65,1.27-2.14c0.52-0.49,1.1-0.74,1.76-0.74c1.87,0,3.56,0.34,5.06,1.02
		c1.5,0.68,2.76,1.63,3.8,2.85c0.94,1.17,1.73,2.61,2.39,4.32c0.66,1.71,1.12,3.53,1.41,5.45c0.28,1.97,0.42,4.05,0.42,6.26v0.56
		c0,1.45,0.02,2.77,0.07,3.94l0.07,4.01c0,13.5-3.14,20.25-9.42,20.25C74.7,59.66,73.58,59.28,72.55,58.5z M77.96,55.69
		c0.7-0.68,1.24-1.61,1.62-2.78c0.89-2.39,1.43-4.97,1.62-7.73c0.23-2.39,0.35-4.45,0.35-6.19c0-2.11-0.16-4.87-0.49-8.3
		c-0.28-3.61-0.42-6.3-0.42-8.09v-1.26c-0.09-1.78-0.69-3.33-1.79-4.64c-1.1-1.31-2.45-1.97-4.04-1.97c-1.59,0-2.65,0.91-3.16,2.74
		c-0.47,1.45-0.7,3.33-0.7,5.62c0,0.89,0.02,1.64,0.07,2.25v1.9l-0.14,3.23c-0.09,0.98-0.14,2.06-0.14,3.23
		c0,2.53,0.07,5.04,0.21,7.52c0.19,3.51,0.66,6.94,1.41,10.26c0.75,3.47,1.85,5.2,3.3,5.2C76.48,56.71,77.26,56.37,77.96,55.69z"/>
	<path class="st0" d="M110.93,58.08c-0.28-0.3-0.49-0.83-0.63-1.58l-0.42-1.34v-0.14v-0.21c0-1.55-1.61-6.82-4.82-15.82
		c-3.21-9-5.73-15.65-7.56-19.97v35.36l0.28,0.49c0.05,0.09,0.14,0.26,0.28,0.49c0.14,0.24,0.21,0.47,0.21,0.7
		c0,0.61-0.21,1.12-0.63,1.55c-0.42,0.42-0.94,0.63-1.55,0.63c-1.5,0-2.25-1.43-2.25-4.29l-0.07-12.02
		c-0.05-3.61-0.07-7.64-0.07-12.09c0-1.5,0.07-3.68,0.21-6.54c0.14-2.95,0.21-5.13,0.21-6.54c0-2.2,0.84-3.94,2.53-5.2V12
		c0.28-0.09,0.47-0.14,0.56-0.14c1.08,0,2.44,1.87,4.08,5.62c1.31,3,2.5,6.16,3.55,9.49c1.05,3.33,2.45,8.06,4.18,14.2l0.7,2.53
		c1.08,3.8,1.9,6.52,2.46,8.15c0.94-10.08,1.41-21.98,1.41-35.71v-0.91c-0.05-0.28-0.07-0.59-0.07-0.91c0-1.41,0.56-2.11,1.69-2.11
		c0.66,0,1.16,0.26,1.51,0.77c0.35,0.52,0.53,1.17,0.53,1.97v5.27c-0.09,7.22-0.38,15.04-0.84,23.48
		c-0.47,8.44-1.03,13.19-1.69,14.27c-1.36,0.37-2.2,0.56-2.53,0.56C111.63,58.54,111.21,58.39,110.93,58.08z"/>
	<path class="st0" d="M141.16,58.4c-0.8-0.23-1.2-0.89-1.2-1.97V15.58c0-0.8-0.14-1.99-0.42-3.59c-0.33-1.45-0.49-2.65-0.49-3.59
		V8.2c0.8-1.31,1.38-2.16,1.76-2.53c0.66,0,1.52-0.09,2.6-0.28c0.98-0.19,1.85-0.28,2.6-0.28c0.75,0,1.48,0.22,2.18,0.67
		c0.7,0.45,1.05,0.97,1.05,1.58c0,1.41-1.08,2.11-3.23,2.11h-0.98c-0.28-0.05-0.61-0.07-0.98-0.07c-0.42,0-0.68,0.02-0.77,0.07
		c0,1.59,0.09,3.52,0.28,5.76l0.14,1.97l0.14,3.87c0,0.89-0.07,2.25-0.21,4.08l-0.14,3.94l0.98-0.21c0.94-0.28,1.71-0.42,2.32-0.42
		c0.51,0,0.98,0.2,1.41,0.6c0.42,0.4,0.63,0.86,0.63,1.37c0,0.56-0.18,1.07-0.53,1.51c-0.35,0.45-0.78,0.67-1.3,0.67l-0.84-0.07
		h-0.91c-0.7,0-1.2,0.17-1.48,0.49v21.72l3.94-0.21c2.67,0,4.01,0.61,4.01,1.83v0.28c-0.28,0.56-0.8,1.02-1.55,1.37
		c-0.75,0.35-1.48,0.57-2.18,0.67l-2.32,0.07h-2.18C142.59,58.75,141.82,58.63,141.16,58.4z"/>
	<path class="st0" d="M177.01,58.08c-0.28-0.3-0.49-0.83-0.63-1.58l-0.42-1.34v-0.14v-0.21c0-1.55-1.61-6.82-4.82-15.82
		c-3.21-9-5.73-15.65-7.56-19.97v35.36l0.28,0.49c0.05,0.09,0.14,0.26,0.28,0.49c0.14,0.24,0.21,0.47,0.21,0.7
		c0,0.61-0.21,1.12-0.63,1.55s-0.94,0.63-1.55,0.63c-1.5,0-2.25-1.43-2.25-4.29l-0.07-12.02c-0.05-3.61-0.07-7.64-0.07-12.09
		c0-1.5,0.07-3.68,0.21-6.54c0.14-2.95,0.21-5.13,0.21-6.54c0-2.2,0.84-3.94,2.53-5.2V12c0.28-0.09,0.47-0.14,0.56-0.14
		c1.08,0,2.44,1.87,4.08,5.62c1.31,3,2.5,6.16,3.55,9.49s2.45,8.06,4.18,14.2l0.7,2.53c1.08,3.8,1.9,6.52,2.46,8.15
		c0.94-10.08,1.41-21.98,1.41-35.71v-0.91c-0.05-0.28-0.07-0.59-0.07-0.91c0-1.41,0.56-2.11,1.69-2.11c0.66,0,1.16,0.26,1.51,0.77
		c0.35,0.52,0.53,1.17,0.53,1.97v5.27c-0.09,7.22-0.38,15.04-0.84,23.48c-0.47,8.44-1.03,13.19-1.69,14.27
		c-1.36,0.37-2.2,0.56-2.53,0.56C177.72,58.54,177.29,58.39,177.01,58.08z"/>
	<path class="st0" d="M194.34,58.61c-0.49-0.42-0.76-0.94-0.81-1.55v-1.83v-1.41c-0.05-0.42-0.07-0.91-0.07-1.48
		c0-0.98-0.07-2.48-0.21-4.5l-0.14-4.5c0-2.3,0.07-5.72,0.21-10.26c0.19-4.08,0.28-7.5,0.28-10.26c0-0.66-0.07-1.64-0.21-2.95
		c-0.14-1.36-0.21-2.34-0.21-2.95c0-3.33,0.98-4.99,2.95-4.99c1.55,0,3.34,0.31,5.38,0.91c2.04,0.61,3.06,1.34,3.06,2.18
		c0,0.47-0.2,0.9-0.6,1.3c-0.4,0.4-0.88,0.72-1.44,0.95c-1.97-0.7-3.75-1.17-5.34-1.41c0.05,0.7,0.07,1.71,0.07,3.02
		c0,1.87-0.02,3.56-0.07,5.06c-0.14,2.25-0.21,3.94-0.21,5.06l0.21,1.13l1.12-0.07c0.37-0.05,0.84-0.07,1.41-0.07
		c2.25,0,3.37,0.66,3.37,1.97c0,0.52-0.21,0.95-0.63,1.3c-0.42,0.35-0.96,0.53-1.62,0.53c-0.84,0-1.5-0.05-1.97-0.14h-1.76
		c0.09,1.22,0.14,3,0.14,5.34c0,2.34-0.02,4.45-0.07,6.33c-0.14,2.86-0.21,4.99-0.21,6.4c0,2.63,0.05,3.94,0.14,3.94l2.32-0.07
		c0.8-0.05,1.76-0.07,2.88-0.07c1.78,0,2.67,0.56,2.67,1.69c0,0.66-0.29,1.16-0.88,1.51c-0.59,0.35-1.3,0.53-2.14,0.53h-5.98
		C195.38,59.24,194.83,59.03,194.34,58.61z"/>
	<path class="st0" d="M222.21,56.15c-0.98-2.44-1.71-4.94-2.18-7.52l-0.49-2.39c-1.36-6.7-2.23-10.52-2.6-11.46h-0.84
		c0,1.36-0.02,2.6-0.07,3.73v3.87c0,6.28,0.44,11.18,1.34,14.69l-0.77,1.9h-1.97l-0.91-1.05l0.07-4.71c0-4.22-0.21-10.61-0.63-19.19
		c-0.38-9.14-0.56-15.54-0.56-19.19c0-2.25,0.77-3.37,2.32-3.37c2.53,0,4.6,0.66,6.22,1.97c1.62,1.31,2.43,3.14,2.43,5.48v4.92
		c0,0.7-0.12,1.51-0.35,2.43c-0.24,0.91-0.49,1.65-0.77,2.21l-1.34,2.53l-1.12,2.11l0.35,1.69l0.98,4.99
		c0.66,3.61,1.29,6.54,1.9,8.79c0.61,2.25,1.36,4.29,2.25,6.12l0.42,0.84c0.47,0.94,0.7,1.69,0.7,2.25c0,0.47-0.14,0.88-0.42,1.23
		c-0.28,0.35-0.66,0.53-1.12,0.53C224,59.52,223.06,58.4,222.21,56.15z M219.02,27.08c0.73-2.32,1.09-4.46,1.09-6.43
		c0-1.5-0.19-2.91-0.56-4.22c-0.24-0.75-0.62-1.32-1.16-1.72c-0.54-0.4-1.21-0.6-2-0.6l-0.14,0.35l-0.14,0.63l0.14,8.3
		c0.09,2.44,0.14,5.09,0.14,7.94C217.41,30.82,218.29,29.4,219.02,27.08z"/>
	<path class="st0" d="M239.02,58.15c-1.08-0.49-1.99-1.14-2.74-1.93c-0.61-0.66-1.17-1.62-1.69-2.88c-0.52-1.26-0.89-2.48-1.13-3.66
		c-0.24-0.89-0.42-2.18-0.56-3.87c-0.14-1.69-0.24-3.14-0.28-4.36v-4.08v-2.81c0-2.72,0.05-4.94,0.14-6.68
		c0.09-2.11,0.4-4.33,0.91-6.68c0.42-2.11,1.15-3.96,2.18-5.55c0.98-1.59,2.37-2.69,4.15-3.3c0.84-0.33,1.83-0.49,2.95-0.49
		c2.01,0,3.02,0.59,3.02,1.76c0,0.56-0.22,1.02-0.67,1.37c-0.45,0.35-0.97,0.53-1.58,0.53c-0.28,0-0.54-0.02-0.77-0.07
		c-0.19-0.05-0.42-0.07-0.7-0.07c-0.8,0-1.5,0.42-2.11,1.27c-0.61,0.84-1.13,2.02-1.55,3.52c-0.75,2.91-1.27,6.07-1.55,9.49
		c-0.19,3.19-0.28,5.55-0.28,7.1c0,1.59,0.07,3.77,0.21,6.54c0.19,2.58,0.59,4.83,1.2,6.75c0.33,1.13,0.71,2.03,1.16,2.71
		c0.44,0.68,1.02,1.25,1.72,1.72c0.8,0.52,1.62,0.77,2.46,0.77c2.25,0,3.37-3.75,3.37-11.25v-3.23c-0.33-0.14-0.87-0.21-1.62-0.21
		h-0.63h-0.77c-1.64,0-2.46-0.54-2.46-1.62c0-0.66,0.22-1.16,0.67-1.51c0.45-0.35,1.02-0.53,1.72-0.53v0.07h0.98
		c4.22,0,6.33,0.73,6.33,2.18c0,0.42-0.12,1.26-0.35,2.53c-0.28,1.12-0.42,1.97-0.42,2.53c0,0.8,0.07,2.04,0.21,3.73l0.14,3.73
		c0,2.25-0.78,4.02-2.35,5.31c-1.57,1.29-3.48,1.93-5.73,1.93C241.29,58.89,240.09,58.64,239.02,58.15z"/>
	<path class="st0" d="M261.58,57.77c0.51-0.98,0.77-4.97,0.77-11.95c0-1.64-0.12-3.42-0.35-5.34l-0.21-2.04
		c-0.14-1.27-0.21-2.23-0.21-2.88v-1.83c-0.47-1.17-1.32-3.35-2.57-6.54c-1.24-3.19-2.24-5.86-2.99-8.01
		c-0.89-2.48-1.34-4.17-1.34-5.06v-0.35l1.62-1.2c0.8,0.09,1.64,1.13,2.53,3.09c0.75,1.73,1.58,4.22,2.5,7.45
		c0.91,3.23,1.37,4.95,1.37,5.13c0.19-0.52,0.56-2.27,1.13-5.27c0.56-3,1.2-5.65,1.9-7.94c0.8-2.3,1.62-3.44,2.46-3.44
		c0.47,0,0.88,0.14,1.23,0.42c0.35,0.28,0.53,0.63,0.53,1.05c0,2.39-0.66,5.76-1.97,10.12c-1.41,4.73-2.11,8.15-2.11,10.26V54.6
		c0,3.14-0.77,4.71-2.32,4.71C262.75,59.31,262.1,58.8,261.58,57.77z"/>
</g>
</svg>
