<?xml version="1.0" encoding="utf-8"?>
<!-- Generator: Adobe Illustrator 27.1.1, SVG Export Plug-In . SVG Version: 6.00 Build 0)  -->
<svg version="1.1" id="Lune" xmlns="http://www.w3.org/2000/svg" xmlns:xlink="http://www.w3.org/1999/xlink" x="0px" y="0px"
	 viewBox="0 0 272 134" style="enable-background:new 0 0 272 134;" xml:space="preserve">
<style type="text/css">
	.st0{fill:#CFE4BA;}
</style>
<g>
	<g>
		<g>
			<circle class="st0" cx="86.9" cy="9.12" r="0.93"/>
		</g>
		<g>
			<circle class="st0" cx="83.28" cy="58.5" r="0.93"/>
		</g>
		<g>
			<circle class="st0" cx="60.81" cy="32.55" r="0.93"/>
		</g>
		<g>
			<circle class="st0" cx="159.48" cy="20.85" r="0.93"/>
		</g>
		<g>
			<circle class="st0" cx="244.76" cy="60.52" r="0.56"/>
		</g>
		<g>
			<circle class="st0" cx="229.59" cy="31.81" r="0.56"/>
		</g>
		<g>
			<circle class="st0" cx="186.86" cy="64.63" r="0.56"/>
		</g>
		<g>
			<circle class="st0" cx="127.97" cy="6.18" r="0.56"/>
		</g>
		<g>
			<circle class="st0" cx="199.4" cy="35.26" r="0.56"/>
		</g>
		<g>
			<circle class="st0" cx="191.4" cy="94.26" r="0.56"/>
		</g>
		<g>
			<circle class="st0" cx="90.98" cy="37.27" r="0.56"/>
		</g>
		<g>
			<circle class="st0" cx="41.15" cy="34.77" r="0.56"/>
		</g>
		<g>
			<circle class="st0" cx="78.89" cy="92.04" r="0.56"/>
		</g>
		<g>
			<circle class="st0" cx="118.89" cy="120.04" r="0.56"/>
		</g>
		<g>
			<circle class="st0" cx="81.5" cy="120.42" r="0.56"/>
		</g>
		<g>
			<circle class="st0" cx="225.32" cy="85.21" r="0.56"/>
		</g>
		<g>
			<circle class="st0" cx="221.35" cy="116.23" r="0.56"/>
		</g>
		<g>
			<circle class="st0" cx="125.23" cy="13.99" r="0.93"/>
		</g>
		<g>
			<circle class="st0" cx="131.11" cy="127.45" r="0.93"/>
		</g>
		<g>
			<circle class="st0" cx="265.63" cy="73.53" r="0.56"/>
		</g>
		<g>
			<circle class="st0" cx="51.63" cy="65.53" r="0.56"/>
		</g>
		<g>
			<circle class="st0" cx="257.99" cy="86.71" r="0.93"/>
		</g>
		<g>
			<circle class="st0" cx="6.37" cy="52.65" r="0.56"/>
		</g>
		<g>
			<circle class="st0" cx="24.49" cy="54.24" r="0.93"/>
		</g>
		<g>
			<circle class="st0" cx="196.05" cy="8.46" r="0.93"/>
		</g>
		<g>
			<circle class="st0" cx="206.86" cy="59.23" r="0.93"/>
		</g>
		<g>
			<circle class="st0" cx="208.58" cy="112.46" r="0.93"/>
		</g>
		<g>
			<circle class="st0" cx="62.6" cy="93.15" r="0.93"/>
		</g>
		<g>
			<circle class="st0" cx="168.14" cy="118.07" r="0.93"/>
		</g>
		<g>
			<circle class="st0" cx="27.95" cy="84.57" r="0.93"/>
		</g>
	</g>
	<path class="st0" d="M136,31.23c-19.71,0-35.75,16.04-35.75,35.75c0,19.71,16.04,35.75,35.75,35.75
		c19.71,0,35.75-16.04,35.75-35.75C171.75,47.27,155.71,31.23,136,31.23z M101.75,66.98c0-18.89,15.36-34.25,34.25-34.25
		c0.5,0,1,0.02,1.5,0.04c-10.33,8.05-17,20.6-17,34.71c0,13.56,6.15,25.67,15.8,33.74c-0.1,0-0.2,0.01-0.3,0.01
		C117.11,101.23,101.75,85.87,101.75,66.98z"/>
</g>
</svg>
