<svg width="64" height="64" viewBox="0 0 64 64" fill="none" xmlns="http://www.w3.org/2000/svg">
<path d="M17.0627 20.493L31.7308 31.2064C31.8844 31.3216 32.102 31.3216 32.2684 31.2064L46.9494 20.493C47.3206 20.2242 47.1286 19.6482 46.6806 19.6482H17.3303C16.8823 19.6482 16.6903 20.237 17.0615 20.493H17.0627Z" fill="#CFE4BA"/>
<path d="M47.6288 44.3526H16.3722C16.1674 44.3526 16.001 44.1734 16.001 43.9814V22.3876C16.001 22.0804 16.3594 21.9012 16.6026 22.0804L31.7704 33.2034C31.9112 33.3058 32.0904 33.3058 32.2184 33.2034L47.3862 22.0804C47.6294 21.9012 47.9878 22.0676 47.9878 22.3876V43.9814C48.0006 44.1862 47.8342 44.3526 47.6294 44.3526H47.6288Z" fill="#85CEE7"/>
<path d="M32 64C23.4498 64 15.4115 60.672 9.36939 54.6306C3.3273 48.5892 0 40.5511 0 32C0 23.4489 3.328 15.4115 9.36939 9.36939C15.4108 3.3273 23.4489 0 32 0C40.5511 0 48.5885 3.328 54.6306 9.36939C60.6727 15.4108 64 23.4489 64 32C64 40.5511 60.672 48.5885 54.6306 54.6306C48.5892 60.6727 40.5511 64 32 64ZM32 2.04843C15.4887 2.04843 2.0482 15.4878 2.0482 32.0002C2.0482 48.5127 15.4875 61.952 32 61.952C48.5125 61.952 61.9518 48.5127 61.9518 32.0002C61.9518 15.4878 48.5125 2.04843 32 2.04843Z" fill="#85CEE7"/>
</svg>
