<?xml version="1.0" encoding="utf-8"?>
<!-- Generator: Adobe Illustrator 27.1.1, SVG Export Plug-In . SVG Version: 6.00 Build 0)  -->
<svg version="1.1" id="Layer_2" xmlns="http://www.w3.org/2000/svg" xmlns:xlink="http://www.w3.org/1999/xlink" x="0px" y="0px"
	 viewBox="0 0 245 245" style="enable-background:new 0 0 245 245;" xml:space="preserve">
<style type="text/css">
	.st0{fill-rule:evenodd;clip-rule:evenodd;fill:url(#SVGID_1_);}
	.st1{fill:#CFE4BA;}
	.st2{fill:url(#SVGID_00000136409769681698028040000017047725110673177998_);}
	.st3{fill:url(#SVGID_00000150063558923322197800000008913674150811240336_);}
</style>
<g>
	<linearGradient id="SVGID_1_" gradientUnits="userSpaceOnUse" x1="76.1762" y1="152.7046" x2="102.6529" y2="17.5367">
		<stop  offset="0" style="stop-color:#84CAE5"/>
		<stop  offset="1" style="stop-color:#91D6EB"/>
	</linearGradient>
	<path class="st0" d="M84.56,148.81c0-38.76,22.69-72.32,55.48-88.11c-13.86-15.95-28.63-32.38-41.86-52.36
		c-24.24,35.79-54.89,62.36-74.7,95c-7.9,13.02-13.28,26.9-13.28,45.46c0,48.51,39.33,87.84,87.84,87.84
		c11.03,0,21.55-2.08,31.26-5.8C102.4,213.43,84.56,183.17,84.56,148.81z"/>
	<path class="st1" d="M94.43,148.81c0,48.51,39.33,87.84,87.84,87.84c19.73,0,37.88-6.58,52.54-17.56
		c-2.08,0.18-4.17,0.32-6.29,0.32c-38.99,0-70.6-31.61-70.6-70.6c0-38.99,31.61-70.6,70.6-70.6c2.13,0,4.22,0.13,6.29,0.32
		C220.15,67.55,202,60.97,182.27,60.97C133.76,60.97,94.43,100.3,94.43,148.81z"/>
	
		<linearGradient id="SVGID_00000048482544305364547620000003521283642392994434_" gradientUnits="userSpaceOnUse" x1="70.0792" y1="253.4121" x2="70.0792" y2="152.2874">
		<stop  offset="0" style="stop-color:#89CFE7"/>
		<stop  offset="0.153" style="stop-color:#7BCAE4"/>
		<stop  offset="0.4664" style="stop-color:#63C2E0"/>
		<stop  offset="0.7568" style="stop-color:#54BEDE"/>
		<stop  offset="1" style="stop-color:#4FBCDD"/>
	</linearGradient>
	<path style="fill:url(#SVGID_00000048482544305364547620000003521283642392994434_);" d="M87.38,172.1
		c-11.95-14.2-26.31-25.22-46.66-24.88c-10.45,0.17-20.67,3.99-28.63,10.32c-0.46,0.36-0.9,0.74-1.34,1.12
		c5.22,45.38,44.62,79.76,91.01,77.93c9.74-0.38,19.02-2.38,27.66-5.65C108.74,217.58,93.41,196.65,87.38,172.1z"/>
	
		<linearGradient id="SVGID_00000158744684270440605290000014778402680401153410_" gradientUnits="userSpaceOnUse" x1="66.5663" y1="248.3195" x2="71.9248" y2="166.8695">
		<stop  offset="0.3148" style="stop-color:#1498CB"/>
		<stop  offset="1" style="stop-color:#49C5E2"/>
	</linearGradient>
	<path style="fill:url(#SVGID_00000158744684270440605290000014778402680401153410_);" d="M87.95,174.3
		c-16.23,11.84-35.24,15.86-55.64,3.2c-7.65-4.75-15.37-11.13-21.56-18.76c5.26,45.34,44.63,79.67,91,77.85
		c9.74-0.38,19.02-2.38,27.66-5.65C109.36,217.98,94.34,197.91,87.95,174.3z"/>
</g>
</svg>
