<?xml version="1.0" encoding="utf-8"?>
<!-- Generator: Adobe Illustrator 27.9.0, SVG Export Plug-In . SVG Version: 6.00 Build 0)  -->
<svg version="1.1" id="Poisson" xmlns="http://www.w3.org/2000/svg" xmlns:xlink="http://www.w3.org/1999/xlink" x="0px" y="0px"
	 viewBox="0 0 32 32" style="enable-background:new 0 0 32 32;" xml:space="preserve">
<style type="text/css">
	.st0{fill:#FFFFFF;}
</style>
<path class="st0" d="M7.4,2.7C6.7,2.7,6.1,3.3,6.1,4c0,0.3,0.1,0.5,0.3,0.8c2,2.9,3,6.5,3.2,10.3H6.7c-0.7,0-1.4,0.6-1.4,1.3
	c0,0.7,0.6,1.4,1.3,1.4l0,0h2.7C9,21.2,8,24.7,6.2,27.7c-0.4,0.6-0.2,1.5,0.4,1.9s1.5,0.2,1.9-0.4l0,0c2.1-3.5,3.3-7.4,3.6-11.3h7.5
	c0.3,3.9,1.5,7.9,3.6,11.3c0.4,0.6,1.2,0.9,1.8,0.5c0.6-0.4,0.9-1.2,0.5-1.8l0,0c-1.8-3-2.8-6.5-3.1-9.9h2.5c0.7,0,1.4-0.6,1.4-1.3
	c0-0.7-0.6-1.4-1.3-1.4l0,0h-2.5c0.1-3.8,1.2-7.4,3.2-10.3c0.4-0.6,0.3-1.4-0.3-1.9c-0.6-0.4-1.4-0.3-1.9,0.3l0,0
	c-2.4,3.4-3.6,7.6-3.7,11.9h-7.3C12.4,11,11.2,6.8,8.8,3.4C8.3,2.9,7.9,2.6,7.4,2.7z"/>
</svg>
