<?xml version="1.0" encoding="utf-8"?>
<!-- Generator: Adobe Illustrator 27.9.0, SVG Export Plug-In . SVG Version: 6.00 Build 0)  -->
<svg version="1.1" id="Sagittaire" xmlns="http://www.w3.org/2000/svg" xmlns:xlink="http://www.w3.org/1999/xlink" x="0px" y="0px"
	 viewBox="0 0 32 32" style="enable-background:new 0 0 32 32;" xml:space="preserve">
<style type="text/css">
	.st0{fill:#FFFFFF;}
</style>
<path class="st0" d="M14.6,3.9c-0.7,0-1.4,0.6-1.4,1.3s0.6,1.4,1.3,1.4l0,0h9.2L11,19.3l-4.1-4.1c-0.5-0.5-1.4-0.6-1.9,0
	S4.5,16.5,5,17l0,0l4.1,4.1L4,26.3c-0.5,0.5-0.6,1.4,0,1.9s1.4,0.6,1.9,0l0,0l5.1-5.1l4.3,4.3c0.5,0.5,1.4,0.6,1.9,0
	c0.5-0.5,0.6-1.4,0-1.9l0,0l-4.3-4.3L25.3,8.8v8.5c0,0.7,0.6,1.4,1.3,1.4s1.4-0.6,1.4-1.3l0,0V5.2c0-0.7-0.6-1.3-1.3-1.3
	C26.7,3.9,14.6,3.9,14.6,3.9z"/>
</svg>
