<?xml version="1.0" encoding="utf-8"?>
<!-- Generator: Adobe Illustrator 27.9.0, SVG Export Plug-In . SVG Version: 6.00 Build 0)  -->
<svg version="1.1" id="Scorpion" xmlns="http://www.w3.org/2000/svg" xmlns:xlink="http://www.w3.org/1999/xlink" x="0px" y="0px"
	 viewBox="0 0 32 32" style="enable-background:new 0 0 32 32;" xml:space="preserve">
<style type="text/css">
	.st0{fill:#FFFFFF;}
</style>
<path class="st0" d="M9.4,1.9c-1.8,0-3.2,0.9-4.2,2.2C4.4,3.3,3.5,2.6,2.5,2.2C1.8,2,1,2.3,0.7,3s0.1,1.5,0.8,1.7l0,0
	C2.8,5.2,4,6.6,4,8v18.1c0,0.1,0,0.2,0,0.3c0,0.1,0,0.2,0.1,0.3c0,0.1,0.1,0.2,0.1,0.2L4.3,27l0.1,0.1c0.1,0.1,0.2,0.2,0.3,0.2
	c0.1,0,0.2,0.1,0.2,0.1H5h0.1c0.1,0,0.2,0,0.3,0h0.1c0.1,0,0.3-0.1,0.4-0.1c0,0,0.1,0,0.1-0.1c0.1-0.1,0.1-0.1,0.2-0.2
	s0.1-0.1,0.2-0.2c0-0.1,0.1-0.2,0.1-0.2v-0.1v-0.1c0-0.1,0-0.2,0-0.2V8V7.3c0-1.5,1.2-2.7,2.7-2.7s2.7,1.2,2.7,2.7v18.8
	c0,0.7,0.6,1.4,1.3,1.4s1.4-0.6,1.4-1.3l0,0V7.3c0-1.5,1.2-2.7,2.7-2.7S20,5.8,20,7.3v15.1c0,3,2.5,5.4,5.4,5.4H26l-0.3,0.3
	c-0.6,0.5-0.7,1.3-0.2,1.9s1.3,0.7,1.9,0.2l0,0l3.1-2.7c0.6-0.5,0.6-1.3,0.1-1.9c0-0.1-0.1-0.1-0.1-0.1l-3.1-2.7
	c-0.2-0.2-0.5-0.3-0.9-0.3c-0.7,0-1.4,0.6-1.4,1.3c0,0.4,0.2,0.8,0.5,1.1l0.3,0.3h-0.5l0,0c-1.5,0-2.7-1.2-2.7-2.7V7.3
	c0-3-2.4-5.4-5.4-5.4c-1.6,0-3,0.7-4,1.8C12.4,2.7,11,1.9,9.4,1.9z"/>
</svg>
