<svg width="32" height="32" viewBox="0 0 32 32" fill="none" xmlns="http://www.w3.org/2000/svg">
<path d="M17.3333 1.66663C12.7467 1.66663 8.99996 5.41338 8.99996 9.99996C8.99996 12.2424 9.9011 14.1265 10.7135 15.845C10.2707 15.7327 9.8095 15.6666 9.33329 15.6666C6.21947 15.6666 3.66663 18.2195 3.66663 21.3333C3.66663 24.4471 6.21947 27 9.33329 27C12.4471 27 15 24.4471 15 21.3333C15 21.2757 14.9926 21.2199 14.9908 21.1627C14.9972 21.1087 15.0002 21.0543 15 21C15 18.6296 14.0404 16.6512 13.2057 14.8815C12.371 13.1118 11.6666 11.5498 11.6666 9.99996C11.6666 6.85454 14.1879 4.33329 17.3333 4.33329C20.4787 4.33329 23 6.85454 23 9.99996C23 11.2432 21.7087 13.4645 20.1875 16.0169C18.6662 18.5692 17 21.5555 17 25C16.9999 25.0557 17.0034 25.1113 17.0104 25.1666C17.0034 25.2219 16.9999 25.2776 17 25.3333C17 28.4471 19.5528 31 22.6666 31C25.7805 31 28.3333 28.4471 28.3333 25.3333C28.3358 25.1566 28.3031 24.9812 28.2373 24.8172C28.1714 24.6533 28.0736 24.504 27.9495 24.3782C27.8254 24.2524 27.6776 24.1525 27.5146 24.0843C27.3516 24.0161 27.1767 23.981 27 23.981C26.8233 23.981 26.6483 24.0161 26.4853 24.0843C26.3223 24.1525 26.1745 24.2524 26.0504 24.3782C25.9264 24.504 25.8285 24.6533 25.7627 24.8172C25.6968 24.9812 25.6641 25.1566 25.6666 25.3333C25.6666 27.0061 24.3394 28.3333 22.6666 28.3333C20.9938 28.3333 19.6666 27.0061 19.6666 25.3333C19.667 25.2785 19.6639 25.2237 19.6575 25.1692C19.6641 25.1131 19.6672 25.0565 19.6666 25C19.6666 22.4444 21.0003 19.8639 22.4791 17.3828C23.9579 14.9016 25.6666 12.6227 25.6666 9.99996C25.6666 5.41338 21.9199 1.66663 17.3333 1.66663ZM9.33329 18.3333C11.0059 18.3333 12.3333 19.6606 12.3333 21.3333C12.3333 23.0059 11.0059 24.3333 9.33329 24.3333C7.66064 24.3333 6.33329 23.0059 6.33329 21.3333C6.33329 19.6606 7.66064 18.3333 9.33329 18.3333Z" fill="white"/>
</svg>
