<?xml version="1.0" encoding="utf-8"?>
<!-- Generator: Adobe Illustrator 27.9.0, SVG Export Plug-In . SVG Version: 6.00 Build 0)  -->
<svg version="1.1" id="Taureau" xmlns="http://www.w3.org/2000/svg" xmlns:xlink="http://www.w3.org/1999/xlink" x="0px" y="0px"
	 viewBox="0 0 32 32" style="enable-background:new 0 0 32 32;" xml:space="preserve">
<style type="text/css">
	.st0{fill:#FFFFFF;}
</style>
<path class="st0" d="M3.2,2.4C2.5,2.4,1.9,3,1.8,3.8s0.6,1.4,1.3,1.4l0,0c2.9,0,3.7,1.2,5.1,2.9c0.6,0.8,1.4,1.7,2.5,2.4
	c-3.3,1.8-5.5,5.2-5.5,9.2C5.2,25.3,9.9,30,15.6,30S26,25.3,26,19.6c0-3.9-2.1-7.2-5.3-9c1.2-0.8,2-1.7,2.7-2.6s1.3-1.6,1.9-2
	s1.5-0.8,3-0.8c0.7,0,1.4-0.6,1.4-1.3s-0.6-1.4-1.3-1.4l0,0c-1.9,0-3.4,0.5-4.5,1.3s-1.8,1.7-2.5,2.6C20.1,8,19.3,9.2,16,9.2
	c-0.1,0-0.1,0-0.2,0l0,0h-0.1c-3.1,0-3.9-1.2-5.3-2.9S7,2.4,3.2,2.4z M15.6,11.9c4.3,0,7.7,3.4,7.7,7.7s-3.4,7.7-7.7,7.7
	s-7.7-3.4-7.7-7.7S11.4,11.9,15.6,11.9z"/>
</svg>
