<?xml version="1.0" encoding="utf-8"?>
<!-- Generator: Adobe Illustrator 27.1.1, SVG Export Plug-In . SVG Version: 6.00 Build 0)  -->
<svg version="1.1" id="Layer_5" xmlns="http://www.w3.org/2000/svg" xmlns:xlink="http://www.w3.org/1999/xlink" x="0px" y="0px"
	 viewBox="0 0 24 24" style="enable-background:new 0 0 24 24;" xml:space="preserve">
<style type="text/css">
	.st0{fill:#CFE4BA;}
</style>
<g>
	<path class="st0" d="M9.79,21.93c-0.01,0-0.01,0-0.02,0c-3.59-0.01-6.5-2.93-6.49-6.5c0.01-3.58,2.92-6.49,6.48-6.49
		c0.3-0.01,0.61,0.02,0.92,0.07c0.29,0.04,0.51,0.3,0.51,0.59v3.26c0,0.19-0.09,0.37-0.25,0.48c-0.15,0.11-0.35,0.15-0.54,0.09
		c-0.54-0.17-1.11-0.12-1.61,0.14c-0.49,0.26-0.86,0.7-1.02,1.23c-0.17,0.54-0.12,1.11,0.14,1.61c0.26,0.5,0.7,0.86,1.23,1.03
		c0.54,0.17,1.12,0.12,1.62-0.14c0.49-0.26,0.86-0.7,1.02-1.23c0.06-0.2,0.09-0.42,0.09-0.63V2.77c0-0.33,0.27-0.6,0.6-0.6h3.19
		c0.33,0,0.6,0.27,0.6,0.6c0,0.25,0.02,0.48,0.06,0.69c0.19,1.03,0.81,1.95,1.69,2.52c0.63,0.42,1.35,0.64,2.11,0.64
		c0.33,0,0.6,0.27,0.6,0.6v3.17c0,0.33-0.27,0.6-0.6,0.6h-0.01c-1.36,0-2.67-0.32-3.85-0.95v5.41c0,1.74-0.68,3.37-1.91,4.6
		C13.14,21.26,11.52,21.93,9.79,21.93z M9.76,10.14c-2.91,0-5.27,2.37-5.28,5.29c-0.01,2.91,2.37,5.29,5.29,5.3
		c0.01,0,0.01,0,0.02,0c1.41,0,2.73-0.55,3.73-1.54c1-1,1.55-2.33,1.55-3.75V8.96c0-0.22,0.12-0.43,0.33-0.53
		c0.2-0.1,0.44-0.09,0.62,0.05c1.04,0.74,2.24,1.18,3.51,1.28V7.77c-0.78-0.09-1.51-0.36-2.16-0.8c-1.16-0.74-1.97-1.95-2.22-3.3
		c-0.02-0.1-0.04-0.2-0.05-0.31h-2.02v12.07c0,0.33-0.05,0.67-0.15,0.99c-0.26,0.84-0.83,1.53-1.61,1.94
		c-0.78,0.41-1.68,0.49-2.53,0.22c-0.84-0.26-1.53-0.83-1.94-1.62c-0.4-0.78-0.48-1.67-0.22-2.52c0.26-0.84,0.83-1.53,1.61-1.94
		c0.55-0.29,1.16-0.41,1.75-0.37v-2C9.92,10.14,9.84,10.15,9.76,10.14z"/>
</g>
</svg>
