<?xml version="1.0" encoding="utf-8"?>
<!-- Generator: Adobe Illustrator 27.9.0, SVG Export Plug-In . SVG Version: 6.00 Build 0)  -->
<svg version="1.1" id="Verseau" xmlns="http://www.w3.org/2000/svg" xmlns:xlink="http://www.w3.org/1999/xlink" x="0px" y="0px"
	 viewBox="0 0 32 32" style="enable-background:new 0 0 32 32;" xml:space="preserve">
<style type="text/css">
	.st0{fill:#FFFFFF;}
</style>
<path class="st0" d="M9.1,7.8c-2,0-3.4,1-4.2,1.6c-0.8,0.7-1.2,1.1-2.5,1.1c-0.7,0-1.4,0.6-1.4,1.3s0.6,1.4,1.3,1.4l0,0
	c2,0,3.4-1,4.2-1.6c0.8-0.7,1.2-1.1,2.5-1.1s1.7,0.4,2.5,1.1s2.2,1.6,4.2,1.6s3.4-1,4.2-1.6c0.8-0.7,1.2-1,2.5-1s1.7,0.4,2.5,1.1
	s2.2,1.6,4.2,1.6c0.7,0,1.4-0.6,1.4-1.3s-0.6-1.4-1.3-1.4l0,0c-1.3,0-1.7-0.4-2.5-1.1c-0.8-0.7-2.2-1.6-4.2-1.6s-3.4,1-4.2,1.6
	c-0.8,0.7-1.2,1-2.5,1s-1.7-0.4-2.5-1.1C12.5,8.8,11.1,7.8,9.1,7.8z M9.1,19.2c-2,0-3.4,1-4.2,1.6c-0.8,0.7-1.2,1.1-2.5,1.1
	c-0.7,0-1.4,0.6-1.4,1.3c0,0.7,0.6,1.4,1.3,1.4l0,0c2,0,3.4-1,4.2-1.6s1.2-1.1,2.5-1.1s1.7,0.4,2.5,1.1s2.2,1.6,4.2,1.6
	s3.4-1,4.2-1.6c0.8-0.7,1.2-1,2.5-1s1.7,0.4,2.5,1.1s2.2,1.6,4.2,1.6c0.7,0,1.4-0.6,1.4-1.3S29.9,22,29.2,22l0,0
	c-1.3,0-1.7-0.4-2.5-1.1s-2.2-1.6-4.2-1.6s-3.4,1-4.2,1.6c-0.8,0.7-1.2,1-2.5,1s-1.7-0.4-2.5-1.1C12.5,20.2,11.1,19.2,9.1,19.2z"/>
</svg>
