<?xml version="1.0" encoding="utf-8"?>
<!-- Generator: Adobe Illustrator 27.9.0, SVG Export Plug-In . SVG Version: 6.00 Build 0)  -->
<svg version="1.1" id="Verseau" xmlns="http://www.w3.org/2000/svg" xmlns:xlink="http://www.w3.org/1999/xlink" x="0px" y="0px"
	 viewBox="0 0 32 32" style="enable-background:new 0 0 32 32;" xml:space="preserve">
<style type="text/css">
	.st0{fill:url(#SVGID_1_);}
</style>
<linearGradient id="SVGID_1_" gradientUnits="userSpaceOnUse" x1="1.0036" y1="16.2243" x2="30.6223" y2="16.2243">
	<stop  offset="0" style="stop-color:#4FBCDD"/>
	<stop  offset="1" style="stop-color:#89CFE7"/>
</linearGradient>
<path class="st0" d="M9.1,7.8c-2,0-3.4,1-4.2,1.6c-0.8,0.7-1.2,1.1-2.5,1.1c-0.7,0-1.4,0.6-1.4,1.3c0,0.7,0.6,1.4,1.3,1.4
	c0,0,0,0,0,0c2,0,3.4-1,4.2-1.6c0.8-0.7,1.2-1.1,2.5-1.1s1.7,0.4,2.5,1.1s2.2,1.6,4.2,1.6c2,0,3.4-1,4.2-1.6c0.8-0.7,1.2-1,2.5-1
	c1.3,0,1.7,0.4,2.5,1.1s2.2,1.6,4.2,1.6c0.7,0,1.4-0.6,1.4-1.3c0-0.7-0.6-1.4-1.3-1.4c0,0,0,0,0,0c-1.3,0-1.7-0.4-2.5-1.1
	c-0.8-0.7-2.2-1.6-4.2-1.6c-2,0-3.4,1-4.2,1.6c-0.8,0.7-1.2,1-2.5,1c-1.3,0-1.7-0.4-2.5-1.1C12.5,8.8,11.1,7.8,9.1,7.8z M9.1,19.2
	c-2,0-3.4,1-4.2,1.6c-0.8,0.7-1.2,1.1-2.5,1.1c-0.7,0-1.4,0.6-1.4,1.3c0,0.7,0.6,1.4,1.3,1.4c0,0,0,0,0,0c2,0,3.4-1,4.2-1.6
	s1.2-1.1,2.5-1.1s1.7,0.4,2.5,1.1c0.8,0.7,2.2,1.6,4.2,1.6c2,0,3.4-1,4.2-1.6c0.8-0.7,1.2-1,2.5-1c1.3,0,1.7,0.4,2.5,1.1
	c0.8,0.7,2.2,1.6,4.2,1.6c0.7,0,1.4-0.6,1.4-1.3s-0.6-1.4-1.3-1.4c0,0,0,0,0,0c-1.3,0-1.7-0.4-2.5-1.1c-0.8-0.7-2.2-1.6-4.2-1.6
	c-2,0-3.4,1-4.2,1.6c-0.8,0.7-1.2,1-2.5,1c-1.3,0-1.7-0.4-2.5-1.1C12.5,20.2,11.1,19.2,9.1,19.2z"/>
</svg>
