<svg width="277" height="325" viewBox="0 0 277 325" fill="none" xmlns="http://www.w3.org/2000/svg">
<path d="M138.457 162.262C93.6261 162.262 57.1277 125.763 57.1277 80.9328C57.1277 36.1045 93.6268 0 138.457 0C183.288 0 219.787 36.4991 219.787 81.3296C219.787 126.158 183.288 162.262 138.457 162.262ZM138.457 27.7711C109.099 27.7711 84.8973 51.5763 84.8973 81.331C84.8973 111.086 109.098 134.492 138.457 134.492C167.817 134.492 192.017 110.687 192.017 80.9321C192.017 51.1774 167.817 27.7711 138.457 27.7711Z" fill="#CFE4BA"/>
<path d="M276.916 324.525H249.145V304.688C249.145 246.764 201.934 199.555 144.012 199.555H132.904C74.9798 199.555 27.7704 246.767 27.7704 304.688V324.525H0V304.688C0 231.293 59.5094 171.784 132.904 171.784H144.013C217.408 171.784 276.917 231.293 276.917 304.688L276.916 324.525Z" fill="#CFE4BA"/>
</svg>
