<svg width="158" height="158" viewBox="0 0 158 158" fill="none" xmlns="http://www.w3.org/2000/svg">
<rect width="158" height="158" rx="79" fill="#84CAE5"/>
<path d="M89.5029 78.3026C95.5154 74.6303 99.5237 68.1544 99.5237 60.7308C99.5237 49.319 90.1041 40 78.48 40C66.8558 40 57.4362 49.2795 57.4362 60.7308C57.4362 68.1544 61.4846 74.6697 67.4571 78.3026C51.6242 82.962 40 97.4933 40 114.631C40 115.934 41.0822 117 42.405 117C43.7277 117 44.81 115.934 44.81 114.631C44.81 96.3482 59.9214 81.422 78.52 81.422C97.1187 81.422 112.23 96.3087 112.23 114.631C112.23 115.934 113.312 117 114.635 117C115.958 117 117.04 115.934 117.04 114.631C117.04 97.4933 105.416 82.962 89.5429 78.3026H89.5029ZM62.2863 60.7308C62.2863 51.9251 69.5815 44.7385 78.52 44.7385C87.4586 44.7385 94.7538 51.9251 94.7538 60.7308C94.7538 69.5364 87.4586 76.7231 78.52 76.7231C69.5815 76.7231 62.2863 69.5364 62.2863 60.7308Z" fill="white"/>
</svg>
