<?xml version="1.0" encoding="utf-8"?>
<!-- Generator: Adobe Illustrator 27.9.0, SVG Export Plug-In . SVG Version: 6.00 Build 0)  -->
<svg version="1.1" id="Scorpion" xmlns="http://www.w3.org/2000/svg" xmlns:xlink="http://www.w3.org/1999/xlink" x="0px" y="0px"
	 viewBox="0 0 32 32" style="enable-background:new 0 0 32 32;" xml:space="preserve">
<style type="text/css">
	.st0{fill:url(#SVGID_1_);}
</style>
<linearGradient id="SVGID_1_" gradientUnits="userSpaceOnUse" x1="0.6259" y1="16.2243" x2="31" y2="16.2243">
	<stop  offset="0" style="stop-color:#4FBCDD"/>
	<stop  offset="1" style="stop-color:#89CFE7"/>
</linearGradient>
<path class="st0" d="M9.4,1.9c-1.8,0-3.2,0.9-4.2,2.2C4.4,3.3,3.5,2.6,2.5,2.2C1.8,2,1,2.3,0.7,3s0.1,1.5,0.8,1.7c0,0,0,0,0,0
	C2.8,5.2,4,6.6,4,8v18.1c0,0.1,0,0.2,0,0.3c0,0.1,0,0.2,0.1,0.3c0,0.1,0.1,0.2,0.1,0.2c0,0,0.1,0.1,0.1,0.1c0,0,0.1,0.1,0.1,0.1
	c0.1,0.1,0.2,0.2,0.3,0.2c0.1,0,0.2,0.1,0.2,0.1c0,0,0.1,0,0.1,0c0,0,0.1,0,0.1,0c0.1,0,0.2,0,0.3,0c0,0,0.1,0,0.1,0
	c0.1,0,0.3-0.1,0.4-0.1c0,0,0.1,0,0.1-0.1c0.1-0.1,0.1-0.1,0.2-0.2c0.1-0.1,0.1-0.1,0.2-0.2c0-0.1,0.1-0.2,0.1-0.2c0,0,0-0.1,0-0.1
	c0,0,0-0.1,0-0.1c0-0.1,0-0.2,0-0.2V8V7.3c0-1.5,1.2-2.7,2.7-2.7s2.7,1.2,2.7,2.7v18.8c0,0.7,0.6,1.4,1.3,1.4c0.7,0,1.4-0.6,1.4-1.3
	c0,0,0,0,0,0V7.3c0-1.5,1.2-2.7,2.7-2.7s2.7,1.2,2.7,2.7v15.1c0,3,2.5,5.4,5.4,5.4H26l-0.3,0.3c-0.6,0.5-0.7,1.3-0.2,1.9
	c0.5,0.6,1.3,0.7,1.9,0.2c0,0,0,0,0,0l3.1-2.7c0.6-0.5,0.6-1.3,0.1-1.9c0-0.1-0.1-0.1-0.1-0.1l-3.1-2.7c-0.2-0.2-0.5-0.3-0.9-0.3
	c-0.7,0-1.4,0.6-1.4,1.3c0,0.4,0.2,0.8,0.5,1.1l0.3,0.3h-0.5c0,0,0,0,0,0c-1.5,0-2.7-1.2-2.7-2.7V7.3c0-3-2.4-5.4-5.4-5.4
	c-1.6,0-3,0.7-4,1.8C12.4,2.7,11,1.9,9.4,1.9z"/>
</svg>
