<?xml version="1.0" encoding="utf-8"?>
<!-- Generator: Adobe Illustrator 27.1.1, SVG Export Plug-In . SVG Version: 6.00 Build 0)  -->
<svg version="1.1" id="Layer_6" xmlns="http://www.w3.org/2000/svg" xmlns:xlink="http://www.w3.org/1999/xlink" x="0px" y="0px"
	 viewBox="0 0 28 24" style="enable-background:new 0 0 28 24;" xml:space="preserve">
<style type="text/css">
	.st0{fill:url(#SVGID_1_);}
	.st1{fill:url(#SVGID_00000015356844111221570630000003290494768228573886_);}
</style>
<g>
	<linearGradient id="SVGID_1_" gradientUnits="userSpaceOnUse" x1="8.7505" y1="12" x2="19.2495" y2="12">
		<stop  offset="0" style="stop-color:#84CAE5"/>
		<stop  offset="1" style="stop-color:#91D6EB"/>
	</linearGradient>
	<path class="st0" d="M14,6.75c-2.89,0-5.25,2.35-5.25,5.25s2.35,5.25,5.25,5.25s5.25-2.35,5.25-5.25S16.89,6.75,14,6.75z
		 M13.34,8.02c0.04,0.16,0.06,0.33,0.06,0.5c0,1.27-1.03,2.31-2.31,2.31c-0.3,0-0.59-0.06-0.87-0.17c-0.01,0-0.02,0-0.03,0
		C10.69,9.28,11.88,8.26,13.34,8.02z M14,16.05c-2.23,0-4.05-1.82-4.05-4.05c0-0.06,0.02-0.12,0.02-0.18
		c0.36,0.12,0.74,0.2,1.13,0.2c1.93,0,3.51-1.57,3.51-3.51c0-0.17-0.03-0.34-0.05-0.51c1.97,0.27,3.5,1.95,3.5,3.99
		C18.05,14.23,16.23,16.05,14,16.05z"/>
	
		<linearGradient id="SVGID_00000112623386904388962990000017500548912130643617_" gradientUnits="userSpaceOnUse" x1="1.7764" y1="12" x2="26.2236" y2="12">
		<stop  offset="0" style="stop-color:#84CAE5"/>
		<stop  offset="1" style="stop-color:#91D6EB"/>
	</linearGradient>
	<path style="fill:url(#SVGID_00000112623386904388962990000017500548912130643617_);" d="M14,2.1C5.57,2.1,1.78,9.97,1.78,12
		S5.57,21.9,14,21.9s12.22-7.87,12.22-9.9S22.43,2.1,14,2.1z M14,20.7c-7.85,0-11.02-7.46-11.02-8.7S6.15,3.3,14,3.3
		s11.02,7.46,11.02,8.7S21.85,20.7,14,20.7z"/>
</g>
</svg>
