<svg width="30" height="34" viewBox="0 0 30 34" fill="none" xmlns="http://www.w3.org/2000/svg">
<path d="M28.9698 14.14C26.2198 14.14 23.5397 13.29 21.2997 11.69V22.85C21.2997 28.46 16.7497 33 11.1497 33C5.53975 33 0.999756 28.45 0.999756 22.85C0.999756 17.24 5.54975 12.7 11.1497 12.7C11.6097 12.7 12.0798 12.73 12.5398 12.8V18.41C10.0898 17.64 7.46977 19 6.69977 21.46C5.92977 23.91 7.28976 26.53 9.74976 27.3C12.2098 28.07 14.8198 26.71 15.5898 24.25C15.7298 23.8 15.7997 23.33 15.7997 22.85V1.04004H21.2898C21.2898 1.50004 21.3298 1.97004 21.4098 2.42004C21.7998 4.48004 23.0098 6.29004 24.7798 7.43004C26.0198 8.25004 27.4797 8.69004 28.9597 8.69004V14.15L28.9698 14.14Z" stroke="#CFE4BA" stroke-width="2" stroke-linecap="round" stroke-linejoin="round"/>
</svg>
