<?xml version="1.0" encoding="utf-8"?>
<!-- Generator: Adobe Illustrator 27.1.1, SVG Export Plug-In . SVG Version: 6.00 Build 0)  -->
<svg version="1.1" id="Galaxie" xmlns="http://www.w3.org/2000/svg" xmlns:xlink="http://www.w3.org/1999/xlink" x="0px" y="0px"
	 viewBox="0 0 272 134" style="enable-background:new 0 0 272 134;" xml:space="preserve">
<style type="text/css">
	.st0{fill:#CFE4BA;}
	.st1{clip-path:url(#SVGID_00000154411207768919980930000015633872598059185041_);fill:#84CAE5;}
	.st2{clip-path:url(#SVGID_00000154411207768919980930000015633872598059185041_);fill:#85CBE6;}
	.st3{clip-path:url(#SVGID_00000154411207768919980930000015633872598059185041_);fill:#86CCE6;}
	.st4{clip-path:url(#SVGID_00000154411207768919980930000015633872598059185041_);fill:#87CDE7;}
	.st5{clip-path:url(#SVGID_00000154411207768919980930000015633872598059185041_);fill:#88CEE7;}
	.st6{clip-path:url(#SVGID_00000154411207768919980930000015633872598059185041_);fill:#89CFE8;}
	.st7{clip-path:url(#SVGID_00000154411207768919980930000015633872598059185041_);fill:#8BD0E8;}
	.st8{clip-path:url(#SVGID_00000154411207768919980930000015633872598059185041_);fill:#8CD1E9;}
	.st9{clip-path:url(#SVGID_00000154411207768919980930000015633872598059185041_);fill:#8DD2E9;}
	.st10{clip-path:url(#SVGID_00000154411207768919980930000015633872598059185041_);fill:#8ED3EA;}
	.st11{clip-path:url(#SVGID_00000154411207768919980930000015633872598059185041_);fill:#8FD4EA;}
	.st12{clip-path:url(#SVGID_00000154411207768919980930000015633872598059185041_);fill:#90D5EB;}
	.st13{clip-path:url(#SVGID_00000154411207768919980930000015633872598059185041_);fill:#91D6EB;}
	.st14{clip-path:url(#SVGID_00000086665324953266588910000017953437524482258076_);fill:#84CAE5;}
	.st15{clip-path:url(#SVGID_00000086665324953266588910000017953437524482258076_);fill:#85CBE6;}
	.st16{clip-path:url(#SVGID_00000086665324953266588910000017953437524482258076_);fill:#86CCE6;}
	.st17{clip-path:url(#SVGID_00000086665324953266588910000017953437524482258076_);fill:#87CDE7;}
	.st18{clip-path:url(#SVGID_00000086665324953266588910000017953437524482258076_);fill:#88CEE7;}
	.st19{clip-path:url(#SVGID_00000086665324953266588910000017953437524482258076_);fill:#89CFE8;}
	.st20{clip-path:url(#SVGID_00000086665324953266588910000017953437524482258076_);fill:#8BD0E8;}
	.st21{clip-path:url(#SVGID_00000086665324953266588910000017953437524482258076_);fill:#8CD1E9;}
	.st22{clip-path:url(#SVGID_00000086665324953266588910000017953437524482258076_);fill:#8DD2E9;}
	.st23{clip-path:url(#SVGID_00000086665324953266588910000017953437524482258076_);fill:#8ED3EA;}
	.st24{clip-path:url(#SVGID_00000086665324953266588910000017953437524482258076_);fill:#8FD4EA;}
	.st25{clip-path:url(#SVGID_00000086665324953266588910000017953437524482258076_);fill:#90D5EB;}
	.st26{clip-path:url(#SVGID_00000086665324953266588910000017953437524482258076_);fill:#91D6EB;}
	.st27{clip-path:url(#SVGID_00000036242184041209760140000004578523581628510911_);fill:#84CAE5;}
	.st28{clip-path:url(#SVGID_00000036242184041209760140000004578523581628510911_);fill:#85CBE6;}
	.st29{clip-path:url(#SVGID_00000036242184041209760140000004578523581628510911_);fill:#86CCE6;}
	.st30{clip-path:url(#SVGID_00000036242184041209760140000004578523581628510911_);fill:#87CDE7;}
	.st31{clip-path:url(#SVGID_00000036242184041209760140000004578523581628510911_);fill:#88CEE7;}
	.st32{clip-path:url(#SVGID_00000036242184041209760140000004578523581628510911_);fill:#89CFE8;}
	.st33{clip-path:url(#SVGID_00000036242184041209760140000004578523581628510911_);fill:#8BD0E8;}
	.st34{clip-path:url(#SVGID_00000036242184041209760140000004578523581628510911_);fill:#8CD1E9;}
	.st35{clip-path:url(#SVGID_00000036242184041209760140000004578523581628510911_);fill:#8DD2E9;}
	.st36{clip-path:url(#SVGID_00000036242184041209760140000004578523581628510911_);fill:#8ED3EA;}
	.st37{clip-path:url(#SVGID_00000036242184041209760140000004578523581628510911_);fill:#8FD4EA;}
	.st38{clip-path:url(#SVGID_00000036242184041209760140000004578523581628510911_);fill:#90D5EB;}
	.st39{clip-path:url(#SVGID_00000036242184041209760140000004578523581628510911_);fill:#91D6EB;}
	.st40{clip-path:url(#SVGID_00000029037635134922153990000017904387370651614620_);fill:#84CAE5;}
	.st41{clip-path:url(#SVGID_00000029037635134922153990000017904387370651614620_);fill:#85CBE6;}
	.st42{clip-path:url(#SVGID_00000029037635134922153990000017904387370651614620_);fill:#86CCE6;}
	.st43{clip-path:url(#SVGID_00000029037635134922153990000017904387370651614620_);fill:#87CDE7;}
	.st44{clip-path:url(#SVGID_00000029037635134922153990000017904387370651614620_);fill:#88CEE7;}
	.st45{clip-path:url(#SVGID_00000029037635134922153990000017904387370651614620_);fill:#89CFE8;}
	.st46{clip-path:url(#SVGID_00000029037635134922153990000017904387370651614620_);fill:#8BD0E8;}
	.st47{clip-path:url(#SVGID_00000029037635134922153990000017904387370651614620_);fill:#8CD1E9;}
	.st48{clip-path:url(#SVGID_00000029037635134922153990000017904387370651614620_);fill:#8DD2E9;}
	.st49{clip-path:url(#SVGID_00000029037635134922153990000017904387370651614620_);fill:#8ED3EA;}
	.st50{clip-path:url(#SVGID_00000029037635134922153990000017904387370651614620_);fill:#8FD4EA;}
	.st51{clip-path:url(#SVGID_00000029037635134922153990000017904387370651614620_);fill:#90D5EB;}
	.st52{clip-path:url(#SVGID_00000029037635134922153990000017904387370651614620_);fill:#91D6EB;}
	.st53{clip-path:url(#SVGID_00000029033409005927235730000016645620737824186007_);fill:#84CAE5;}
	.st54{clip-path:url(#SVGID_00000029033409005927235730000016645620737824186007_);fill:#85CBE6;}
	.st55{clip-path:url(#SVGID_00000029033409005927235730000016645620737824186007_);fill:#86CCE6;}
	.st56{clip-path:url(#SVGID_00000029033409005927235730000016645620737824186007_);fill:#87CDE7;}
	.st57{clip-path:url(#SVGID_00000029033409005927235730000016645620737824186007_);fill:#88CEE7;}
	.st58{clip-path:url(#SVGID_00000029033409005927235730000016645620737824186007_);fill:#89CFE8;}
	.st59{clip-path:url(#SVGID_00000029033409005927235730000016645620737824186007_);fill:#8BD0E8;}
	.st60{clip-path:url(#SVGID_00000029033409005927235730000016645620737824186007_);fill:#8CD1E9;}
	.st61{clip-path:url(#SVGID_00000029033409005927235730000016645620737824186007_);fill:#8DD2E9;}
	.st62{clip-path:url(#SVGID_00000029033409005927235730000016645620737824186007_);fill:#8ED3EA;}
	.st63{clip-path:url(#SVGID_00000029033409005927235730000016645620737824186007_);fill:#8FD4EA;}
	.st64{clip-path:url(#SVGID_00000029033409005927235730000016645620737824186007_);fill:#90D5EB;}
	.st65{clip-path:url(#SVGID_00000029033409005927235730000016645620737824186007_);fill:#91D6EB;}
	.st66{clip-path:url(#SVGID_00000139982205891419954540000012469882102670658207_);fill:#84CAE5;}
	.st67{clip-path:url(#SVGID_00000139982205891419954540000012469882102670658207_);fill:#85CBE6;}
	.st68{clip-path:url(#SVGID_00000139982205891419954540000012469882102670658207_);fill:#86CCE6;}
	.st69{clip-path:url(#SVGID_00000139982205891419954540000012469882102670658207_);fill:#87CDE7;}
	.st70{clip-path:url(#SVGID_00000139982205891419954540000012469882102670658207_);fill:#88CEE7;}
	.st71{clip-path:url(#SVGID_00000139982205891419954540000012469882102670658207_);fill:#89CFE8;}
	.st72{clip-path:url(#SVGID_00000139982205891419954540000012469882102670658207_);fill:#8BD0E8;}
	.st73{clip-path:url(#SVGID_00000139982205891419954540000012469882102670658207_);fill:#8CD1E9;}
	.st74{clip-path:url(#SVGID_00000139982205891419954540000012469882102670658207_);fill:#8DD2E9;}
	.st75{clip-path:url(#SVGID_00000139982205891419954540000012469882102670658207_);fill:#8ED3EA;}
	.st76{clip-path:url(#SVGID_00000139982205891419954540000012469882102670658207_);fill:#8FD4EA;}
	.st77{clip-path:url(#SVGID_00000139982205891419954540000012469882102670658207_);fill:#90D5EB;}
	.st78{clip-path:url(#SVGID_00000139982205891419954540000012469882102670658207_);fill:#91D6EB;}
</style>
<g>
	<path class="st0" d="M136,31.23c-19.71,0-35.75,16.04-35.75,35.75c0,19.71,16.04,35.75,35.75,35.75
		c19.71,0,35.75-16.04,35.75-35.75C171.75,47.27,155.71,31.23,136,31.23z M101.75,66.98c0-18.89,15.36-34.25,34.25-34.25v68.5
		C117.11,101.23,101.75,85.87,101.75,66.98z"/>
	<g>
		<g>
			<g>
				<circle class="st0" cx="86.9" cy="9.12" r="0.93"/>
			</g>
			<g>
				<circle class="st0" cx="83.28" cy="58.5" r="0.93"/>
			</g>
			<g>
				<circle class="st0" cx="60.81" cy="32.55" r="0.93"/>
			</g>
			<g>
				<circle class="st0" cx="159.48" cy="20.85" r="0.93"/>
			</g>
			<g>
				<circle class="st0" cx="244.76" cy="60.52" r="0.56"/>
			</g>
			<g>
				<circle class="st0" cx="229.59" cy="31.81" r="0.56"/>
			</g>
			<g>
				<circle class="st0" cx="186.86" cy="64.63" r="0.56"/>
			</g>
			<g>
				<circle class="st0" cx="127.97" cy="6.18" r="0.56"/>
			</g>
			<g>
				<circle class="st0" cx="199.4" cy="35.26" r="0.56"/>
			</g>
			<g>
				<circle class="st0" cx="191.4" cy="94.26" r="0.56"/>
			</g>
			<g>
				<circle class="st0" cx="90.98" cy="37.27" r="0.56"/>
			</g>
			<g>
				<circle class="st0" cx="41.15" cy="34.77" r="0.56"/>
			</g>
			<g>
				<circle class="st0" cx="78.89" cy="92.04" r="0.56"/>
			</g>
			<g>
				<circle class="st0" cx="118.89" cy="120.04" r="0.56"/>
			</g>
			<g>
				<circle class="st0" cx="81.5" cy="120.42" r="0.56"/>
			</g>
			<g>
				<circle class="st0" cx="225.32" cy="85.21" r="0.56"/>
			</g>
			<g>
				<circle class="st0" cx="221.35" cy="116.23" r="0.56"/>
			</g>
			<g>
				<circle class="st0" cx="125.23" cy="13.99" r="0.93"/>
			</g>
			<g>
				<circle class="st0" cx="131.11" cy="127.45" r="0.93"/>
			</g>
			<g>
				<circle class="st0" cx="265.63" cy="73.53" r="0.56"/>
			</g>
			<g>
				<circle class="st0" cx="51.63" cy="65.53" r="0.56"/>
			</g>
			<g>
				<circle class="st0" cx="257.99" cy="86.71" r="0.93"/>
			</g>
			<g>
				<circle class="st0" cx="6.37" cy="52.65" r="0.56"/>
			</g>
			<g>
				<circle class="st0" cx="24.49" cy="54.24" r="0.93"/>
			</g>
			<g>
				<circle class="st0" cx="196.05" cy="8.46" r="0.93"/>
			</g>
			<g>
				<circle class="st0" cx="206.86" cy="59.23" r="0.93"/>
			</g>
			<g>
				<circle class="st0" cx="208.58" cy="112.46" r="0.93"/>
			</g>
			<g>
				<circle class="st0" cx="62.6" cy="93.15" r="0.93"/>
			</g>
			<g>
				<circle class="st0" cx="168.14" cy="118.07" r="0.93"/>
			</g>
			<g>
				<circle class="st0" cx="27.95" cy="84.57" r="0.93"/>
			</g>
		</g>
		<g>
			<g>
				<defs>
					<path id="SVGID_1_" d="M185.84,19.9L185.84,19.9c-1.75,0-3.16,1.42-3.16,3.16v0v0c0-1.75-1.42-3.16-3.16-3.16l0,0l0,0
						c1.75,0,3.16-1.42,3.16-3.16v0v0C182.68,18.48,184.1,19.9,185.84,19.9L185.84,19.9z"/>
				</defs>
				<clipPath id="SVGID_00000163786637790191291220000011369998719491916464_">
					<use xlink:href="#SVGID_1_"  style="overflow:visible;"/>
				</clipPath>
				<path style="clip-path:url(#SVGID_00000163786637790191291220000011369998719491916464_);fill:#84CAE5;" d="M179.51,16.73v6.33
					V16.73z"/>
				
					<rect x="179.51" y="16.73" style="clip-path:url(#SVGID_00000163786637790191291220000011369998719491916464_);fill:#84CAE5;" width="0.49" height="6.33"/>
				
					<rect x="180" y="16.73" style="clip-path:url(#SVGID_00000163786637790191291220000011369998719491916464_);fill:#85CBE6;" width="0.49" height="6.33"/>
				
					<rect x="180.49" y="16.73" style="clip-path:url(#SVGID_00000163786637790191291220000011369998719491916464_);fill:#86CCE6;" width="0.49" height="6.33"/>
				
					<rect x="180.97" y="16.73" style="clip-path:url(#SVGID_00000163786637790191291220000011369998719491916464_);fill:#87CDE7;" width="0.49" height="6.33"/>
				
					<rect x="181.46" y="16.73" style="clip-path:url(#SVGID_00000163786637790191291220000011369998719491916464_);fill:#88CEE7;" width="0.49" height="6.33"/>
				
					<rect x="181.95" y="16.73" style="clip-path:url(#SVGID_00000163786637790191291220000011369998719491916464_);fill:#89CFE8;" width="0.49" height="6.33"/>
				
					<rect x="182.44" y="16.73" style="clip-path:url(#SVGID_00000163786637790191291220000011369998719491916464_);fill:#8BD0E8;" width="0.49" height="6.33"/>
				
					<rect x="182.92" y="16.73" style="clip-path:url(#SVGID_00000163786637790191291220000011369998719491916464_);fill:#8CD1E9;" width="0.49" height="6.33"/>
				
					<rect x="183.41" y="16.73" style="clip-path:url(#SVGID_00000163786637790191291220000011369998719491916464_);fill:#8DD2E9;" width="0.49" height="6.33"/>
				
					<rect x="183.9" y="16.73" style="clip-path:url(#SVGID_00000163786637790191291220000011369998719491916464_);fill:#8ED3EA;" width="0.49" height="6.33"/>
				
					<rect x="184.38" y="16.73" style="clip-path:url(#SVGID_00000163786637790191291220000011369998719491916464_);fill:#8FD4EA;" width="0.49" height="6.33"/>
				
					<rect x="184.87" y="16.73" style="clip-path:url(#SVGID_00000163786637790191291220000011369998719491916464_);fill:#90D5EB;" width="0.49" height="6.33"/>
				
					<rect x="185.36" y="16.73" style="clip-path:url(#SVGID_00000163786637790191291220000011369998719491916464_);fill:#91D6EB;" width="0.49" height="6.33"/>
				<path style="clip-path:url(#SVGID_00000163786637790191291220000011369998719491916464_);fill:#91D6EB;" d="M185.84,23.06v-6.33
					V23.06z"/>
			</g>
		</g>
		<g>
			<g>
				<defs>
					<path id="SVGID_00000013912868661573806900000007570147327596464826_" d="M208.84,91.9L208.84,91.9
						c-1.75,0-3.16,1.42-3.16,3.16l0,0l0,0c0-1.75-1.42-3.16-3.16-3.16l0,0l0,0c1.75,0,3.16-1.42,3.16-3.16l0,0l0,0
						C205.68,90.48,207.1,91.9,208.84,91.9L208.84,91.9z"/>
				</defs>
				<clipPath id="SVGID_00000041979056050511824120000011706212634887794573_">
					<use xlink:href="#SVGID_00000013912868661573806900000007570147327596464826_"  style="overflow:visible;"/>
				</clipPath>
				<path style="clip-path:url(#SVGID_00000041979056050511824120000011706212634887794573_);fill:#84CAE5;" d="M202.51,88.73v6.33
					V88.73z"/>
				
					<rect x="202.51" y="88.73" style="clip-path:url(#SVGID_00000041979056050511824120000011706212634887794573_);fill:#84CAE5;" width="0.49" height="6.33"/>
				
					<rect x="203" y="88.73" style="clip-path:url(#SVGID_00000041979056050511824120000011706212634887794573_);fill:#85CBE6;" width="0.49" height="6.33"/>
				
					<rect x="203.49" y="88.73" style="clip-path:url(#SVGID_00000041979056050511824120000011706212634887794573_);fill:#86CCE6;" width="0.49" height="6.33"/>
				
					<rect x="203.97" y="88.73" style="clip-path:url(#SVGID_00000041979056050511824120000011706212634887794573_);fill:#87CDE7;" width="0.49" height="6.33"/>
				
					<rect x="204.46" y="88.73" style="clip-path:url(#SVGID_00000041979056050511824120000011706212634887794573_);fill:#88CEE7;" width="0.49" height="6.33"/>
				
					<rect x="204.95" y="88.73" style="clip-path:url(#SVGID_00000041979056050511824120000011706212634887794573_);fill:#89CFE8;" width="0.49" height="6.33"/>
				
					<rect x="205.44" y="88.73" style="clip-path:url(#SVGID_00000041979056050511824120000011706212634887794573_);fill:#8BD0E8;" width="0.49" height="6.33"/>
				
					<rect x="205.92" y="88.73" style="clip-path:url(#SVGID_00000041979056050511824120000011706212634887794573_);fill:#8CD1E9;" width="0.49" height="6.33"/>
				
					<rect x="206.41" y="88.73" style="clip-path:url(#SVGID_00000041979056050511824120000011706212634887794573_);fill:#8DD2E9;" width="0.49" height="6.33"/>
				
					<rect x="206.9" y="88.73" style="clip-path:url(#SVGID_00000041979056050511824120000011706212634887794573_);fill:#8ED3EA;" width="0.49" height="6.33"/>
				
					<rect x="207.38" y="88.73" style="clip-path:url(#SVGID_00000041979056050511824120000011706212634887794573_);fill:#8FD4EA;" width="0.49" height="6.33"/>
				
					<rect x="207.87" y="88.73" style="clip-path:url(#SVGID_00000041979056050511824120000011706212634887794573_);fill:#90D5EB;" width="0.49" height="6.33"/>
				
					<rect x="208.36" y="88.73" style="clip-path:url(#SVGID_00000041979056050511824120000011706212634887794573_);fill:#91D6EB;" width="0.49" height="6.33"/>
				<path style="clip-path:url(#SVGID_00000041979056050511824120000011706212634887794573_);fill:#91D6EB;" d="M208.84,95.06v-6.33
					V95.06z"/>
			</g>
		</g>
		<g>
			<g>
				<defs>
					<path id="SVGID_00000003103081991891770450000001571584906913646759_" d="M83.84,25.9L83.84,25.9c-1.75,0-3.16,1.42-3.16,3.16
						v0v0c0-1.75-1.42-3.16-3.16-3.16l0,0l0,0c1.75,0,3.16-1.42,3.16-3.16v0v0C80.68,24.48,82.1,25.9,83.84,25.9L83.84,25.9z"/>
				</defs>
				<clipPath id="SVGID_00000172398935969057354570000009357907167739399860_">
					<use xlink:href="#SVGID_00000003103081991891770450000001571584906913646759_"  style="overflow:visible;"/>
				</clipPath>
				<path style="clip-path:url(#SVGID_00000172398935969057354570000009357907167739399860_);fill:#84CAE5;" d="M77.51,22.73v6.33
					V22.73z"/>
				
					<rect x="77.51" y="22.73" style="clip-path:url(#SVGID_00000172398935969057354570000009357907167739399860_);fill:#84CAE5;" width="0.49" height="6.33"/>
				
					<rect x="78" y="22.73" style="clip-path:url(#SVGID_00000172398935969057354570000009357907167739399860_);fill:#85CBE6;" width="0.49" height="6.33"/>
				
					<rect x="78.49" y="22.73" style="clip-path:url(#SVGID_00000172398935969057354570000009357907167739399860_);fill:#86CCE6;" width="0.49" height="6.33"/>
				
					<rect x="78.97" y="22.73" style="clip-path:url(#SVGID_00000172398935969057354570000009357907167739399860_);fill:#87CDE7;" width="0.49" height="6.33"/>
				
					<rect x="79.46" y="22.73" style="clip-path:url(#SVGID_00000172398935969057354570000009357907167739399860_);fill:#88CEE7;" width="0.49" height="6.33"/>
				
					<rect x="79.95" y="22.73" style="clip-path:url(#SVGID_00000172398935969057354570000009357907167739399860_);fill:#89CFE8;" width="0.49" height="6.33"/>
				
					<rect x="80.44" y="22.73" style="clip-path:url(#SVGID_00000172398935969057354570000009357907167739399860_);fill:#8BD0E8;" width="0.49" height="6.33"/>
				
					<rect x="80.92" y="22.73" style="clip-path:url(#SVGID_00000172398935969057354570000009357907167739399860_);fill:#8CD1E9;" width="0.49" height="6.33"/>
				
					<rect x="81.41" y="22.73" style="clip-path:url(#SVGID_00000172398935969057354570000009357907167739399860_);fill:#8DD2E9;" width="0.49" height="6.33"/>
				
					<rect x="81.9" y="22.73" style="clip-path:url(#SVGID_00000172398935969057354570000009357907167739399860_);fill:#8ED3EA;" width="0.49" height="6.33"/>
				
					<rect x="82.38" y="22.73" style="clip-path:url(#SVGID_00000172398935969057354570000009357907167739399860_);fill:#8FD4EA;" width="0.49" height="6.33"/>
				
					<rect x="82.87" y="22.73" style="clip-path:url(#SVGID_00000172398935969057354570000009357907167739399860_);fill:#90D5EB;" width="0.49" height="6.33"/>
				
					<rect x="83.36" y="22.73" style="clip-path:url(#SVGID_00000172398935969057354570000009357907167739399860_);fill:#91D6EB;" width="0.49" height="6.33"/>
				<path style="clip-path:url(#SVGID_00000172398935969057354570000009357907167739399860_);fill:#91D6EB;" d="M83.84,29.06v-6.33
					V29.06z"/>
			</g>
		</g>
		<g>
			<g>
				<defs>
					<path id="SVGID_00000039830862466185946770000017835630334607741318_" d="M44.84,56.9L44.84,56.9c-1.75,0-3.16,1.42-3.16,3.16
						v0v0c0-1.75-1.42-3.16-3.16-3.16l0,0l0,0c1.75,0,3.16-1.42,3.16-3.16v0v0C41.68,55.48,43.1,56.9,44.84,56.9L44.84,56.9z"/>
				</defs>
				<clipPath id="SVGID_00000042737204040288532130000006274803069834746508_">
					<use xlink:href="#SVGID_00000039830862466185946770000017835630334607741318_"  style="overflow:visible;"/>
				</clipPath>
				<path style="clip-path:url(#SVGID_00000042737204040288532130000006274803069834746508_);fill:#84CAE5;" d="M38.51,53.73v6.33
					V53.73z"/>
				
					<rect x="38.51" y="53.73" style="clip-path:url(#SVGID_00000042737204040288532130000006274803069834746508_);fill:#84CAE5;" width="0.49" height="6.33"/>
				
					<rect x="39" y="53.73" style="clip-path:url(#SVGID_00000042737204040288532130000006274803069834746508_);fill:#85CBE6;" width="0.49" height="6.33"/>
				
					<rect x="39.49" y="53.73" style="clip-path:url(#SVGID_00000042737204040288532130000006274803069834746508_);fill:#86CCE6;" width="0.49" height="6.33"/>
				
					<rect x="39.97" y="53.73" style="clip-path:url(#SVGID_00000042737204040288532130000006274803069834746508_);fill:#87CDE7;" width="0.49" height="6.33"/>
				
					<rect x="40.46" y="53.73" style="clip-path:url(#SVGID_00000042737204040288532130000006274803069834746508_);fill:#88CEE7;" width="0.49" height="6.33"/>
				
					<rect x="40.95" y="53.73" style="clip-path:url(#SVGID_00000042737204040288532130000006274803069834746508_);fill:#89CFE8;" width="0.49" height="6.33"/>
				
					<rect x="41.44" y="53.73" style="clip-path:url(#SVGID_00000042737204040288532130000006274803069834746508_);fill:#8BD0E8;" width="0.49" height="6.33"/>
				
					<rect x="41.92" y="53.73" style="clip-path:url(#SVGID_00000042737204040288532130000006274803069834746508_);fill:#8CD1E9;" width="0.49" height="6.33"/>
				
					<rect x="42.41" y="53.73" style="clip-path:url(#SVGID_00000042737204040288532130000006274803069834746508_);fill:#8DD2E9;" width="0.49" height="6.33"/>
				
					<rect x="42.9" y="53.73" style="clip-path:url(#SVGID_00000042737204040288532130000006274803069834746508_);fill:#8ED3EA;" width="0.49" height="6.33"/>
				
					<rect x="43.38" y="53.73" style="clip-path:url(#SVGID_00000042737204040288532130000006274803069834746508_);fill:#8FD4EA;" width="0.49" height="6.33"/>
				
					<rect x="43.87" y="53.73" style="clip-path:url(#SVGID_00000042737204040288532130000006274803069834746508_);fill:#90D5EB;" width="0.49" height="6.33"/>
				
					<rect x="44.36" y="53.73" style="clip-path:url(#SVGID_00000042737204040288532130000006274803069834746508_);fill:#91D6EB;" width="0.49" height="6.33"/>
				<path style="clip-path:url(#SVGID_00000042737204040288532130000006274803069834746508_);fill:#91D6EB;" d="M44.84,60.06v-6.33
					V60.06z"/>
			</g>
		</g>
		<g>
			<g>
				<defs>
					<path id="SVGID_00000018939413639528286360000005257363169993264008_" d="M233.45,47.29L233.45,47.29
						c-2.64,0-4.77,2.14-4.77,4.77v0v0c0-2.64-2.14-4.77-4.77-4.77l0,0l0,0c2.64,0,4.77-2.14,4.77-4.77v0v0
						C228.68,45.15,230.82,47.29,233.45,47.29L233.45,47.29z"/>
				</defs>
				<clipPath id="SVGID_00000067202076106099200760000008567888073109406347_">
					<use xlink:href="#SVGID_00000018939413639528286360000005257363169993264008_"  style="overflow:visible;"/>
				</clipPath>
				<path style="clip-path:url(#SVGID_00000067202076106099200760000008567888073109406347_);fill:#84CAE5;" d="M223.9,42.51v9.55
					V42.51z"/>
				
					<rect x="223.9" y="42.51" style="clip-path:url(#SVGID_00000067202076106099200760000008567888073109406347_);fill:#84CAE5;" width="0.73" height="9.55"/>
				
					<rect x="224.64" y="42.51" style="clip-path:url(#SVGID_00000067202076106099200760000008567888073109406347_);fill:#85CBE6;" width="0.73" height="9.55"/>
				
					<rect x="225.37" y="42.51" style="clip-path:url(#SVGID_00000067202076106099200760000008567888073109406347_);fill:#86CCE6;" width="0.73" height="9.55"/>
				
					<rect x="226.11" y="42.51" style="clip-path:url(#SVGID_00000067202076106099200760000008567888073109406347_);fill:#87CDE7;" width="0.73" height="9.55"/>
				
					<rect x="226.84" y="42.51" style="clip-path:url(#SVGID_00000067202076106099200760000008567888073109406347_);fill:#88CEE7;" width="0.73" height="9.55"/>
				
					<rect x="227.58" y="42.51" style="clip-path:url(#SVGID_00000067202076106099200760000008567888073109406347_);fill:#89CFE8;" width="0.73" height="9.55"/>
				
					<rect x="228.31" y="42.51" style="clip-path:url(#SVGID_00000067202076106099200760000008567888073109406347_);fill:#8BD0E8;" width="0.73" height="9.55"/>
				
					<rect x="229.05" y="42.51" style="clip-path:url(#SVGID_00000067202076106099200760000008567888073109406347_);fill:#8CD1E9;" width="0.73" height="9.55"/>
				
					<rect x="229.78" y="42.51" style="clip-path:url(#SVGID_00000067202076106099200760000008567888073109406347_);fill:#8DD2E9;" width="0.73" height="9.55"/>
				
					<rect x="230.52" y="42.51" style="clip-path:url(#SVGID_00000067202076106099200760000008567888073109406347_);fill:#8ED3EA;" width="0.73" height="9.55"/>
				
					<rect x="231.25" y="42.51" style="clip-path:url(#SVGID_00000067202076106099200760000008567888073109406347_);fill:#8FD4EA;" width="0.73" height="9.55"/>
				
					<rect x="231.98" y="42.51" style="clip-path:url(#SVGID_00000067202076106099200760000008567888073109406347_);fill:#90D5EB;" width="0.73" height="9.55"/>
				
					<rect x="232.72" y="42.51" style="clip-path:url(#SVGID_00000067202076106099200760000008567888073109406347_);fill:#91D6EB;" width="0.73" height="9.55"/>
				<path style="clip-path:url(#SVGID_00000067202076106099200760000008567888073109406347_);fill:#91D6EB;" d="M233.45,52.06v-9.55
					V52.06z"/>
			</g>
		</g>
		<g>
			<g>
				<defs>
					<path id="SVGID_00000055674724867848415110000011472497458893878931_" d="M101.45,105.29L101.45,105.29
						c-2.64,0-4.77,2.14-4.77,4.77l0,0l0,0c0-2.64-2.14-4.77-4.77-4.77l0,0l0,0c2.64,0,4.77-2.14,4.77-4.77v0v0
						C96.68,103.15,98.82,105.29,101.45,105.29L101.45,105.29z"/>
				</defs>
				<clipPath id="SVGID_00000081645185271381366250000015098283965640476314_">
					<use xlink:href="#SVGID_00000055674724867848415110000011472497458893878931_"  style="overflow:visible;"/>
				</clipPath>
				<path style="clip-path:url(#SVGID_00000081645185271381366250000015098283965640476314_);fill:#84CAE5;" d="M91.9,100.51v9.55
					V100.51z"/>
				
					<rect x="91.9" y="100.51" style="clip-path:url(#SVGID_00000081645185271381366250000015098283965640476314_);fill:#84CAE5;" width="0.73" height="9.55"/>
				
					<rect x="92.64" y="100.51" style="clip-path:url(#SVGID_00000081645185271381366250000015098283965640476314_);fill:#85CBE6;" width="0.73" height="9.55"/>
				
					<rect x="93.37" y="100.51" style="clip-path:url(#SVGID_00000081645185271381366250000015098283965640476314_);fill:#86CCE6;" width="0.73" height="9.55"/>
				
					<rect x="94.11" y="100.51" style="clip-path:url(#SVGID_00000081645185271381366250000015098283965640476314_);fill:#87CDE7;" width="0.73" height="9.55"/>
				
					<rect x="94.84" y="100.51" style="clip-path:url(#SVGID_00000081645185271381366250000015098283965640476314_);fill:#88CEE7;" width="0.73" height="9.55"/>
				
					<rect x="95.58" y="100.51" style="clip-path:url(#SVGID_00000081645185271381366250000015098283965640476314_);fill:#89CFE8;" width="0.73" height="9.55"/>
				
					<rect x="96.31" y="100.51" style="clip-path:url(#SVGID_00000081645185271381366250000015098283965640476314_);fill:#8BD0E8;" width="0.73" height="9.55"/>
				
					<rect x="97.05" y="100.51" style="clip-path:url(#SVGID_00000081645185271381366250000015098283965640476314_);fill:#8CD1E9;" width="0.73" height="9.55"/>
				
					<rect x="97.78" y="100.51" style="clip-path:url(#SVGID_00000081645185271381366250000015098283965640476314_);fill:#8DD2E9;" width="0.73" height="9.55"/>
				
					<rect x="98.52" y="100.51" style="clip-path:url(#SVGID_00000081645185271381366250000015098283965640476314_);fill:#8ED3EA;" width="0.73" height="9.55"/>
				
					<rect x="99.25" y="100.51" style="clip-path:url(#SVGID_00000081645185271381366250000015098283965640476314_);fill:#8FD4EA;" width="0.73" height="9.55"/>
				
					<rect x="99.98" y="100.51" style="clip-path:url(#SVGID_00000081645185271381366250000015098283965640476314_);fill:#90D5EB;" width="0.73" height="9.55"/>
				
					<rect x="100.72" y="100.51" style="clip-path:url(#SVGID_00000081645185271381366250000015098283965640476314_);fill:#91D6EB;" width="0.73" height="9.55"/>
				<path style="clip-path:url(#SVGID_00000081645185271381366250000015098283965640476314_);fill:#91D6EB;" d="M101.45,110.06
					v-9.55V110.06z"/>
			</g>
		</g>
	</g>
</g>
</svg>
