<svg width="34" height="34" viewBox="0 0 34 34" fill="none" xmlns="http://www.w3.org/2000/svg">
<path d="M17 33C25.8366 33 33 25.8366 33 17C33 8.16344 25.8366 1 17 1C8.16344 1 1 8.16344 1 17C1 25.8366 8.16344 33 17 33Z" stroke="url(#paint0_linear_42_1951)" stroke-width="2" stroke-miterlimit="10" stroke-linecap="round"/>
<path d="M14 23.4V10.6C14 10.39 14.25 10.27 14.41 10.41L21.87 16.84C21.99 16.94 21.99 17.12 21.87 17.22L14.41 23.6C14.25 23.74 14 23.62 14 23.41V23.4Z" stroke="url(#paint1_linear_42_1951)" stroke-width="2" stroke-miterlimit="10" stroke-linecap="round"/>
<defs>
<linearGradient id="paint0_linear_42_1951" x1="0" y1="17" x2="34" y2="17" gradientUnits="userSpaceOnUse">
<stop stop-color="#84CAE5"/>
<stop offset="1" stop-color="#91D6EB"/>
</linearGradient>
<linearGradient id="paint1_linear_42_1951" x1="13" y1="17" x2="22.96" y2="17" gradientUnits="userSpaceOnUse">
<stop stop-color="#84CAE5"/>
<stop offset="1" stop-color="#91D6EB"/>
</linearGradient>
</defs>
</svg>
