<?xml version="1.0" encoding="utf-8"?>
<!-- Generator: Adobe Illustrator 27.9.0, SVG Export Plug-In . SVG Version: 6.00 Build 0)  -->
<svg version="1.1" id="Vierge" xmlns="http://www.w3.org/2000/svg" xmlns:xlink="http://www.w3.org/1999/xlink" x="0px" y="0px"
	 viewBox="0 0 32 32" style="enable-background:new 0 0 32 32;" xml:space="preserve">
<style type="text/css">
	.st0{fill:url(#SVGID_1_);}
</style>
<linearGradient id="SVGID_1_" gradientUnits="userSpaceOnUse" x1="2.0228" y1="16.2243" x2="29.6031" y2="16.2243">
	<stop  offset="0" style="stop-color:#4FBCDD"/>
	<stop  offset="1" style="stop-color:#89CFE7"/>
</linearGradient>
<path class="st0" d="M10.8,1.6C9,1.6,7.5,2.5,6.6,3.8C5.8,3,4.9,2.3,3.9,1.9C3.2,1.6,2.4,2,2.1,2.7s0.1,1.5,0.8,1.7c0,0,0,0,0,0
	c1.3,0.5,2.5,1.9,2.5,3.3v18.1c0,0.1,0,0.2,0,0.3c0,0,0,0.1,0,0.1c0,0.1,0.1,0.2,0.1,0.2c0.1,0.1,0.1,0.2,0.2,0.3
	c0,0,0.1,0.1,0.1,0.1C6,27,6.2,27.1,6.4,27.1c0.1,0,0.3,0.1,0.4,0.1c0.1,0,0.3,0,0.4-0.1c0.1,0,0.2-0.1,0.2-0.1c0,0,0.1,0,0.1-0.1
	c0.2-0.1,0.3-0.3,0.4-0.5c0,0,0-0.1,0.1-0.1c0.1-0.2,0.1-0.3,0.1-0.5V7.7V7c0-1.5,1.2-2.7,2.7-2.7s2.7,1.2,2.7,2.7v18.8
	c0,0.3,0.1,0.6,0.3,0.9c0,0,0.1,0.1,0.1,0.1c0.2,0.2,0.4,0.3,0.7,0.4c0,0,0.1,0,0.1,0c0.1,0,0.2,0,0.3,0c0,0,0.1,0,0.1,0
	c0.2,0,0.3-0.1,0.5-0.2c0,0,0.1-0.1,0.1-0.1c0.1-0.1,0.1-0.1,0.2-0.2c0,0,0.1-0.1,0.1-0.1c0-0.1,0.1-0.2,0.1-0.2c0,0,0-0.1,0-0.1
	c0,0,0-0.1,0-0.1c0,0,0-0.1,0-0.1c0,0,0-0.1,0-0.1V7c0-1.5,1.2-2.7,2.7-2.7c1.5,0,2.7,1.2,2.7,2.7v4v11.7c-0.8,0.7-1.7,1.4-2.7,2
	c-0.6,0.4-0.8,1.2-0.5,1.8c0.4,0.6,1.2,0.8,1.8,0.5c0,0,0,0,0,0c0.5-0.3,0.9-0.6,1.3-0.9c0.3,2.5,2.1,4.4,4.5,4.8
	c0.7,0.1,1.4-0.3,1.6-1.1c0.1-0.7-0.3-1.4-1.1-1.6c0,0,0,0,0,0c-1.6-0.3-2.3-1-2.3-2.8v-1.6c5.3-5.3,5.4-11.5,5.4-12.8
	c0-2.2-1.8-4-4-4c-0.5,0-0.9,0.1-1.3,0.2V7c0-3-2.4-5.4-5.4-5.4c-1.6,0-3,0.8-4,1.9C13.8,2.4,12.4,1.6,10.8,1.6z M25.6,9.7
	c0.8,0,1.3,0.6,1.3,1.3c0,1,0.1,4.8-2.7,8.7V11C24.2,10.2,24.8,9.7,25.6,9.7z"/>
</svg>
