<svg width="48" height="34" viewBox="0 0 48 34" fill="none" xmlns="http://www.w3.org/2000/svg">
<path d="M18.67 23.6701V10.7001C18.67 10.4801 18.92 10.3701 19.09 10.5101L30.71 17.0201C30.83 17.1201 30.83 17.3001 30.71 17.4001L19.09 23.8601C18.93 24.0001 18.67 23.8801 18.67 23.6701Z" stroke="#CFE4BA" stroke-width="2" stroke-miterlimit="10"/>
<path d="M45.49 6C44.97 4.03 43.43 2.48 41.47 1.96C37.93 1 23.72 1 23.72 1C23.72 1 9.51 1 5.97 1.96C4.02 2.49 2.48001 4.04 1.95001 6C1.00001 9.57 1 17.01 1 17.01C1 17.01 1.00001 24.45 1.95001 28.02C2.47001 29.99 4.01 31.47 5.97 32C9.51 32.96 23.72 32.96 23.72 32.96C23.72 32.96 37.93 32.96 41.47 32C43.42 31.47 44.96 29.99 45.49 28.02C46.44 24.45 46.44 17.01 46.44 17.01C46.44 17.01 46.44 9.57 45.49 6Z" stroke="#CFE4BA" stroke-width="2" stroke-miterlimit="10"/>
</svg>
