<?xml version="1.0" encoding="utf-8"?>
<!-- Generator: Adobe Illustrator 27.1.1, SVG Export Plug-In . SVG Version: 6.00 Build 0)  -->
<svg version="1.1" id="Layer_5" xmlns="http://www.w3.org/2000/svg" xmlns:xlink="http://www.w3.org/1999/xlink" x="0px" y="0px"
	 viewBox="0 0 32 24" style="enable-background:new 0 0 32 24;" xml:space="preserve">
<style type="text/css">
	.st0{fill:#CFE4BA;}
</style>
<g>
	<g>
		<path class="st0" d="M13.21,16.66c-0.11,0-0.21-0.02-0.31-0.07c-0.26-0.12-0.44-0.39-0.44-0.68V8.38c0-0.29,0.17-0.56,0.44-0.68
			c0.24-0.11,0.52-0.08,0.73,0.06l6.81,3.83c0.17,0.14,0.26,0.35,0.26,0.57s-0.1,0.43-0.26,0.57l-0.1,0.07l-6.72,3.74
			C13.51,16.62,13.36,16.66,13.21,16.66z M13.67,9.16v5.99l5.36-2.98L13.67,9.16z"/>
	</g>
	<g>
		<path class="st0" d="M16,21.9c-0.34,0-8.36-0.01-10.47-0.58c-1.35-0.36-2.41-1.41-2.76-2.74c-0.56-2.12-0.57-6.37-0.57-6.55
			s0.01-4.43,0.57-6.55c0.36-1.35,1.42-2.41,2.76-2.77C7.64,2.15,15.66,2.14,16,2.14s8.36,0.01,10.47,0.58
			c1.34,0.36,2.4,1.42,2.76,2.77l0,0c0.56,2.12,0.57,6.37,0.57,6.55s-0.01,4.43-0.57,6.55c-0.35,1.32-1.41,2.37-2.76,2.74
			C24.36,21.9,16.34,21.9,16,21.9z M16,3.34c-0.08,0-8.2,0.01-10.16,0.53C4.91,4.13,4.18,4.87,3.93,5.8C3.41,7.77,3.4,12,3.4,12.04
			s0.01,4.27,0.53,6.24c0.25,0.93,0.96,1.63,1.91,1.89C7.8,20.7,15.92,20.7,16,20.7s8.2-0.01,10.16-0.53
			c0.95-0.26,1.66-0.96,1.91-1.89c0.52-1.97,0.53-6.2,0.53-6.24s-0.01-4.27-0.53-6.24h0c-0.25-0.94-0.98-1.67-1.91-1.92
			C24.2,3.35,16.08,3.34,16,3.34z"/>
	</g>
</g>
</svg>
